<?xml version="1.0" standalone="no"?>
<!DOCTYPE svg PUBLIC "-//W3C//DTD SVG 20010904//EN"
 "http://www.w3.org/TR/2001/REC-SVG-20010904/DTD/svg10.dtd">
<svg version="1.0" xmlns="http://www.w3.org/2000/svg"
 width="3607.000000pt" height="7016.000000pt" viewBox="0 0 3607.000000 7016.000000"
 preserveAspectRatio="xMidYMid meet">

<g transform="translate(0.000000,7016.000000) scale(0.100000,-0.100000)"
fill="#000000" stroke="none">
<path d="M5878 66948 c-2 -2 -5 -375 -8 -829 l-5 -825 -775 132 c-426 73 -787
133 -802 133 l-28 1 0 -125 0 -125 -824 0 c-818 0 -824 0 -829 -20 -13 -51
-38 -50 839 -50 l814 0 0 -120 c0 -120 0 -120 23 -115 12 3 364 61 782 130
418 69 770 127 783 130 l22 5 0 -3084 c0 -2837 1 -3086 16 -3101 9 -9 23 -14
31 -11 8 3 17 6 19 6 2 0 4 461 4 1025 l0 1026 33 -6 c17 -3 377 -64 800 -134
l767 -128 0 119 0 118 755 0 755 0 0 -999 c0 -910 1 -1001 16 -1016 9 -9 23
-14 31 -11 8 3 17 6 19 6 2 0 4 455 4 1010 l0 1010 29 0 c47 0 61 10 61 41 0
28 -2 29 -45 29 l-45 0 0 2050 0 2051 33 -6 c17 -3 377 -64 800 -134 l767
-128 0 119 0 118 819 0 c451 0 826 3 835 6 10 4 16 18 16 35 l0 29 -835 0
-835 0 0 125 c0 111 -2 125 -17 125 -16 0 -1512 -254 -1560 -265 l-23 -5 0
830 0 830 -29 0 c-21 0 -30 -6 -35 -22 -3 -13 -6 -1313 -6 -2890 l0 -2868
-755 0 -755 0 0 120 c0 114 -1 120 -20 120 -18 0 -1482 -241 -1552 -256 l-28
-6 0 2901 0 2901 -30 0 c-16 0 -31 -1 -32 -2z"/>
<path d="M13601 66109 c-129 -25 -246 -117 -314 -247 -142 -270 -143 -871 -3
-1150 83 -164 206 -246 391 -259 378 -26 575 261 575 838 0 413 -108 684 -312
779 -101 47 -223 62 -337 39z m234 -187 c57 -29 120 -98 149 -162 47 -104 60
-210 60 -480 0 -346 -28 -477 -127 -578 -66 -69 -108 -87 -202 -87 -94 0 -136
18 -202 87 -99 102 -128 233 -127 578 0 212 3 258 22 344 50 232 149 331 322
322 40 -2 80 -11 105 -24z"/>
<path d="M15460 66110 c-133 -28 -260 -129 -319 -253 -27 -57 -54 -147 -47
-155 2 -1 32 -7 67 -12 35 -6 78 -12 95 -15 30 -5 32 -4 43 41 47 187 202 282
375 230 164 -50 229 -252 127 -394 -43 -59 -139 -104 -235 -110 l-74 -5 -6
-43 c-3 -24 -9 -65 -12 -91 -6 -42 -5 -46 12 -39 11 5 56 10 100 13 111 8 178
-14 249 -79 65 -59 95 -120 102 -207 17 -205 -137 -371 -343 -371 -153 0 -259
90 -309 263 -16 57 -17 58 -48 52 -18 -3 -61 -9 -96 -15 -35 -5 -66 -11 -68
-14 -11 -10 21 -121 53 -185 104 -209 342 -310 599 -256 241 51 415 260 415
500 0 171 -82 309 -223 376 -34 16 -68 29 -75 29 -7 0 15 19 49 43 151 103
199 283 121 452 -51 109 -136 183 -258 226 -68 24 -223 34 -294 19z"/>
<path d="M16545 66068 c-17 -71 -163 -814 -160 -816 1 -2 42 -10 91 -17 l87
-15 49 51 c27 28 73 62 105 77 51 24 70 27 158 27 80 0 109 -5 147 -22 117
-53 186 -163 195 -307 15 -242 -112 -416 -316 -433 -170 -14 -287 74 -337 255
l-18 63 -48 -5 c-26 -3 -71 -9 -99 -12 l-50 -6 7 -41 c34 -202 165 -347 359
-397 202 -52 399 -3 533 131 172 172 222 470 115 689 -35 73 -151 189 -223
222 -148 69 -302 63 -449 -18 -61 -34 -63 -34 -58 -12 3 13 22 110 43 216 l37
192 308 0 309 0 0 100 0 100 -390 0 -390 0 -5 -22z"/>
<path d="M18100 65665 c-73 -21 -153 -70 -201 -124 l-39 -44 0 82 0 81 -90 0
-90 0 0 -590 0 -590 100 0 100 0 0 348 c0 360 7 442 42 524 71 165 326 214
415 80 39 -58 43 -114 43 -542 l0 -410 99 0 100 0 3 403 c3 352 6 408 21 448
25 63 70 115 131 147 43 22 64 27 133 27 74 0 85 -3 125 -30 84 -59 83 -50 86
-552 l3 -443 99 0 100 0 0 433 c0 270 -4 456 -11 492 -22 121 -99 216 -202
252 -72 25 -223 25 -295 0 -63 -22 -144 -82 -189 -138 l-32 -40 -20 39 c-27
53 -101 117 -159 137 -67 24 -204 29 -272 10z"/>
<path d="M14560 64590 l0 -110 110 0 110 0 0 110 0 110 -110 0 -110 0 0 -110z"/>
<path d="M4056 62778 c-3 -13 -6 -384 -6 -826 l0 -802 -22 5 c-51 12 -1542
255 -1564 255 -24 0 -24 0 -24 -120 l0 -120 -824 0 c-818 0 -824 0 -829 -20
-13 -51 -38 -50 839 -50 l814 0 0 -120 c0 -120 0 -120 23 -115 12 3 364 61
782 130 418 69 770 127 783 130 l22 5 0 -1014 c0 -924 1 -1016 16 -1031 9 -9
23 -14 31 -11 8 3 17 6 19 6 2 0 4 837 4 1860 l0 1860 -29 0 c-21 0 -30 -6
-35 -22z"/>
<path d="M10421 61959 c-129 -25 -246 -117 -314 -247 -142 -270 -143 -871 -3
-1150 83 -164 206 -246 391 -259 378 -26 575 261 575 838 0 413 -108 684 -312
779 -101 47 -223 62 -337 39z m234 -187 c57 -29 120 -98 149 -162 47 -104 60
-210 60 -480 0 -346 -28 -477 -127 -578 -66 -69 -108 -87 -202 -87 -94 0 -136
18 -202 87 -99 102 -128 233 -127 578 0 212 3 258 22 344 50 232 149 331 322
322 40 -2 80 -11 105 -24z"/>
<path d="M12273 61956 c-212 -49 -344 -192 -378 -413 -7 -46 -10 -44 95 -58
25 -3 57 -8 73 -11 24 -5 27 -3 27 23 0 44 29 131 57 174 58 87 138 124 273
124 84 0 102 -3 152 -28 149 -73 196 -225 118 -383 -40 -83 -200 -251 -400
-422 -74 -64 -168 -150 -208 -191 -125 -128 -208 -274 -219 -388 l-6 -53 537
0 536 0 0 100 0 100 -402 2 -402 3 60 64 c32 35 138 132 234 215 313 269 429
400 482 544 31 83 31 245 0 322 -47 119 -153 216 -283 260 -82 29 -255 36
-346 16z"/>
<path d="M13591 61959 c-129 -25 -246 -117 -314 -247 -142 -270 -143 -871 -3
-1150 83 -164 206 -246 391 -259 378 -26 575 261 575 838 0 413 -108 684 -312
779 -101 47 -223 62 -337 39z m234 -187 c57 -29 120 -98 149 -162 47 -104 60
-210 60 -480 0 -346 -28 -477 -127 -578 -66 -69 -108 -87 -202 -87 -94 0 -136
18 -202 87 -99 102 -128 233 -127 578 0 212 3 258 22 344 50 232 149 331 322
322 40 -2 80 -11 105 -24z"/>
<path d="M14920 61515 c-73 -21 -153 -70 -201 -124 l-39 -44 0 82 0 81 -90 0
-90 0 0 -590 0 -590 100 0 100 0 0 348 c0 360 7 442 42 524 71 165 326 214
415 80 39 -58 43 -114 43 -542 l0 -410 99 0 100 0 3 403 c3 352 6 408 21 448
25 63 70 115 131 147 43 22 64 27 133 27 74 0 85 -3 125 -30 84 -59 83 -50 86
-552 l3 -443 99 0 100 0 0 433 c0 270 -4 456 -11 492 -22 121 -99 216 -202
252 -72 25 -223 25 -295 0 -63 -22 -144 -82 -189 -138 l-32 -40 -20 39 c-27
53 -101 117 -159 137 -67 24 -204 29 -272 10z"/>
<path d="M11380 60440 l0 -110 110 0 110 0 0 110 0 110 -110 0 -110 0 0 -110z"/>
<path d="M4056 58558 c-3 -13 -6 -12705 -6 -28205 0 -25606 1 -28183 16
-28197 14 -14 256 -16 2519 -16 1377 0 2510 3 2519 6 15 6 16 2502 16 28220
l0 28214 -2529 0 -2529 0 -6 -22z m1814 -433 c0 -301 -3 -385 -12 -386 -10 0
-10 -2 -1 -6 9 -3 12 -121 13 -500 0 -469 -1 -495 -17 -489 -17 6 -17 5 -1 -7
16 -13 17 -54 18 -512 0 -344 -3 -502 -11 -511 -7 -9 -7 -18 0 -33 7 -13 11
-177 11 -495 0 -439 -1 -476 -17 -492 -17 -17 -17 -18 0 -11 9 3 17 2 17 -3 0
-5 -8 -14 -17 -20 -17 -11 -17 -11 0 -6 16 5 17 -23 17 -485 0 -441 -2 -490
-16 -496 -15 -5 -15 -7 -1 -15 14 -7 16 -68 17 -523 0 -411 -2 -515 -12 -516
-10 0 -10 -2 -1 -6 9 -3 12 -121 13 -500 0 -469 -1 -495 -17 -489 -17 6 -17 5
-1 -7 16 -13 17 -54 18 -512 0 -344 -3 -502 -11 -511 -7 -9 -7 -18 0 -33 17
-31 15 -1011 -2 -1012 -9 0 -9 -2 1 -6 9 -4 12 -112 12 -494 0 -441 -2 -490
-16 -496 -15 -5 -15 -7 -1 -15 14 -7 16 -66 17 -503 0 -341 -3 -502 -10 -516
-8 -15 -8 -24 0 -34 7 -9 10 -161 10 -511 -1 -454 -3 -499 -18 -511 -16 -12
-16 -13 1 -7 16 6 17 -20 17 -490 -1 -382 -4 -496 -13 -497 -9 0 -9 -2 1 -6 9
-4 12 -113 12 -498 0 -457 -1 -495 -17 -511 -17 -17 -17 -18 0 -11 22 8 22 -9
0 -23 -17 -11 -17 -11 0 -6 16 5 17 -23 17 -494 0 -393 -3 -500 -12 -501 -10
0 -10 -2 -1 -6 9 -3 12 -121 13 -500 0 -469 -1 -495 -17 -489 -17 6 -17 5 -1
-7 16 -13 17 -54 18 -512 0 -344 -3 -502 -11 -511 -7 -9 -7 -18 0 -33 7 -13
11 -177 11 -495 0 -439 -1 -476 -17 -492 -17 -17 -17 -18 0 -11 22 8 22 -9 0
-23 -17 -11 -17 -11 0 -6 16 5 17 -23 17 -485 0 -441 -2 -490 -16 -496 -15 -5
-15 -7 -1 -15 14 -7 16 -66 17 -503 0 -341 -3 -502 -10 -516 -8 -15 -8 -24 0
-34 7 -9 10 -161 10 -511 -1 -454 -3 -499 -18 -511 -16 -12 -16 -13 1 -7 16 6
17 -21 17 -483 0 -340 -3 -492 -11 -500 -8 -8 -8 -17 0 -31 8 -14 11 -171 11
-496 0 -439 -1 -476 -17 -492 -17 -17 -17 -18 0 -11 22 8 22 -9 0 -23 -17 -11
-17 -11 0 -6 16 5 17 -23 17 -485 0 -441 -2 -490 -16 -496 -15 -5 -15 -7 -1
-15 14 -7 16 -66 17 -503 0 -341 -3 -502 -10 -516 -8 -15 -8 -24 0 -34 7 -9
10 -161 10 -511 -1 -454 -3 -499 -18 -511 -16 -12 -16 -13 1 -7 16 6 17 -20
17 -490 -1 -382 -4 -496 -13 -497 -9 0 -9 -2 1 -6 9 -4 12 -112 12 -494 0
-441 -2 -490 -16 -496 -15 -5 -15 -7 -1 -15 14 -7 16 -68 17 -523 0 -411 -2
-515 -12 -516 -10 0 -10 -2 -1 -6 9 -3 12 -121 13 -500 0 -469 -1 -495 -17
-489 -17 6 -17 5 -1 -7 16 -13 17 -54 18 -512 0 -344 -3 -502 -11 -511 -7 -9
-7 -18 0 -33 7 -13 11 -177 11 -495 0 -439 -1 -476 -17 -492 -17 -17 -17 -18
0 -11 22 8 22 -9 0 -23 -17 -11 -17 -11 0 -6 16 5 17 -23 17 -485 0 -441 -2
-490 -16 -496 -15 -5 -15 -7 -1 -15 14 -7 16 -66 17 -503 0 -341 -3 -502 -10
-516 -8 -15 -8 -24 0 -34 7 -9 10 -161 10 -511 -1 -454 -3 -499 -18 -511 -16
-12 -16 -13 1 -7 16 6 17 -20 17 -490 -1 -382 -4 -496 -13 -497 -9 0 -9 -2 1
-6 9 -4 12 -112 12 -494 0 -441 -2 -490 -16 -496 -15 -5 -15 -7 -1 -15 14 -7
16 -68 17 -523 0 -411 -2 -515 -12 -516 -10 0 -10 -2 -1 -6 17 -6 19 -983 2
-1014 -7 -15 -7 -24 1 -34 7 -9 10 -161 10 -511 -1 -454 -3 -499 -18 -511 -16
-12 -16 -13 1 -7 16 6 17 -20 17 -490 -1 -382 -4 -496 -13 -497 -9 0 -9 -2 1
-6 9 -4 12 -112 12 -494 0 -441 -2 -490 -16 -496 -15 -5 -15 -7 -1 -15 14 -7
16 -68 17 -523 0 -411 -2 -515 -12 -516 -10 0 -10 -2 -1 -6 9 -3 12 -121 13
-500 0 -469 -1 -495 -17 -489 -17 6 -17 5 -1 -7 16 -13 17 -54 18 -512 0 -344
-3 -502 -11 -511 -7 -9 -7 -18 0 -33 7 -13 11 -177 11 -495 0 -439 -1 -476
-17 -492 -17 -17 -17 -18 -1 -11 23 8 23 -9 1 -23 -17 -11 -17 -11 -1 -6 17 5
18 -23 18 -494 0 -393 -3 -500 -12 -501 -10 0 -10 -2 -1 -6 17 -6 19 -983 2
-1014 -7 -15 -7 -24 1 -34 7 -9 10 -161 10 -511 -1 -454 -3 -499 -18 -511 -16
-12 -16 -13 1 -7 16 6 17 -20 17 -490 -1 -382 -4 -496 -13 -497 -9 0 -9 -2 1
-6 9 -4 12 -114 12 -504 0 -392 -3 -499 -12 -500 -10 0 -10 -2 -1 -6 18 -7 19
-1033 1 -1034 -10 0 -10 -2 -1 -6 9 -3 12 -121 13 -500 0 -469 -1 -495 -17
-489 -17 6 -17 5 -1 -7 17 -13 18 -86 18 -1190 l0 -1177 -875 0 -875 0 0 310
c0 241 3 310 13 311 10 0 10 2 0 6 -7 2 -13 11 -13 19 0 9 4 13 8 10 5 -3 9 1
9 9 0 8 -4 15 -9 15 -4 0 -8 304 -8 675 0 529 3 675 13 676 9 0 9 2 0 6 -17 6
-18 605 -2 635 8 15 8 19 0 14 -6 -4 -11 0 -11 8 0 9 6 16 13 17 9 0 9 2 0 6
-18 7 -18 673 0 674 9 0 9 2 0 6 -18 7 -18 623 0 624 9 0 9 2 0 6 -10 4 -13
81 -13 339 0 260 3 334 13 335 9 0 9 2 0 6 -7 2 -13 11 -13 19 0 9 5 12 11 8
8 -5 8 -1 0 14 -16 30 -15 632 2 633 9 0 9 2 0 6 -18 7 -18 673 0 674 9 0 9 2
0 6 -7 2 -13 11 -13 19 0 9 5 12 11 8 8 -5 8 -1 0 14 -16 30 -15 632 2 633 9
0 9 2 0 6 -18 7 -18 673 0 674 9 0 9 2 0 6 -7 2 -13 11 -13 19 0 9 5 12 11 8
8 -5 8 -1 0 14 -16 30 -15 632 2 633 9 0 9 2 0 6 -19 7 -19 403 0 404 9 0 9 2
0 6 -17 6 -18 605 -2 635 8 15 8 19 0 14 -6 -4 -11 0 -11 8 0 9 6 16 13 17 9
0 9 2 0 6 -18 7 -18 673 0 674 9 0 9 2 0 6 -17 6 -18 605 -2 635 8 15 8 19 0
14 -6 -4 -11 0 -11 8 0 9 6 16 13 17 9 0 9 2 0 6 -18 7 -18 673 0 674 9 0 9 2
0 6 -17 6 -18 605 -2 635 8 15 8 19 0 14 -6 -4 -11 0 -11 8 0 9 6 16 13 17 9
0 9 2 0 6 -18 7 -18 673 0 674 9 0 9 2 0 6 -17 6 -18 605 -2 635 8 15 8 19 0
14 -6 -4 -11 0 -11 8 0 9 6 16 13 17 9 0 9 2 0 6 -18 7 -18 623 0 624 9 0 9 2
0 6 -7 2 -13 11 -13 19 0 9 5 12 11 8 8 -5 8 -1 0 14 -16 30 -15 632 2 633 9
0 9 2 0 6 -18 7 -18 673 0 674 9 0 9 2 0 6 -7 2 -13 11 -13 19 0 9 5 12 11 8
8 -5 8 -1 0 14 -16 30 -15 632 2 633 9 0 9 2 0 6 -18 7 -18 673 0 674 9 0 9 2
-1 6 -6 2 -12 11 -12 19 0 9 5 12 11 8 8 -5 8 -1 0 14 -16 31 -15 1042 2 1043
9 0 9 2 0 6 -18 7 -18 623 0 624 9 0 9 2 0 6 -18 7 -18 673 0 674 9 0 9 2 0 6
-7 2 -13 11 -13 19 0 9 5 12 11 8 8 -5 8 -1 0 14 -16 30 -15 632 2 633 9 0 9
2 0 6 -18 7 -18 673 0 674 9 0 9 2 -1 6 -6 2 -12 11 -12 19 0 9 5 12 11 8 8
-5 8 -1 0 14 -16 30 -15 632 2 633 9 0 9 2 0 6 -18 7 -18 673 0 674 9 0 9 2 0
6 -7 2 -13 11 -13 19 0 9 5 12 11 8 8 -5 8 -1 0 14 -16 30 -15 632 2 633 9 0
9 2 0 6 -17 6 -18 1014 -2 1045 8 15 8 19 0 14 -6 -4 -11 0 -11 8 0 9 6 16 13
17 9 0 9 2 0 6 -18 7 -18 673 0 674 9 0 9 2 0 6 -17 6 -18 605 -2 635 8 15 8
19 0 14 -6 -4 -11 0 -11 8 0 9 6 16 13 17 9 0 9 2 0 6 -18 7 -18 673 0 674 9
0 9 2 0 6 -17 6 -18 605 -2 635 8 15 8 19 0 14 -6 -4 -11 0 -11 8 0 9 6 16 13
17 9 0 9 2 0 6 -18 7 -18 673 0 674 9 0 9 2 0 6 -17 6 -18 605 -2 635 8 15 8
19 0 14 -6 -4 -11 0 -11 8 0 9 6 16 13 17 9 0 9 2 0 6 -18 7 -18 623 0 624 9
0 9 2 0 6 -7 2 -13 11 -13 19 0 9 5 12 11 8 8 -5 8 -1 0 14 -16 30 -15 632 2
633 9 0 9 2 0 6 -18 7 -18 673 0 674 9 0 9 2 0 6 -7 2 -13 11 -13 19 0 9 5 12
11 8 8 -5 8 -1 0 14 -16 30 -15 632 2 633 9 0 9 2 0 6 -18 7 -18 673 0 674 9
0 9 2 0 6 -7 2 -13 11 -13 19 0 9 5 12 11 8 8 -5 8 -1 0 14 -16 30 -15 632 2
633 9 0 9 2 0 6 -18 7 -18 673 0 674 9 0 9 2 0 6 -7 2 -13 11 -13 19 0 9 5 12
11 8 8 -5 8 -1 0 14 -16 31 -15 1042 2 1043 9 0 9 2 0 6 -17 6 -18 605 -2 635
8 15 8 19 0 14 -6 -4 -11 0 -11 8 0 9 6 16 13 17 9 0 9 2 0 6 -18 7 -18 623 0
624 9 0 9 2 0 6 -7 2 -13 11 -13 19 0 9 5 12 11 8 8 -5 8 -1 0 14 -16 30 -15
632 2 633 9 0 9 2 0 6 -18 7 -18 673 0 674 9 0 9 2 -1 6 -6 2 -12 11 -12 19 0
9 5 12 11 8 8 -5 8 -1 0 14 -16 30 -15 632 2 633 9 0 9 2 0 6 -18 7 -18 673 0
674 9 0 9 2 0 6 -7 2 -13 11 -13 19 0 9 5 12 11 8 8 -5 8 -1 0 14 -15 27 -15
297 0 324 8 15 8 19 0 14 -6 -4 -11 0 -11 8 0 9 6 16 13 17 9 0 9 2 0 6 -18 7
-18 673 0 674 9 0 9 2 0 6 -17 6 -18 605 -2 635 8 15 8 19 0 14 -6 -4 -11 0
-11 8 0 9 6 16 13 17 9 0 9 2 0 6 -18 7 -18 673 0 674 9 0 9 2 0 6 -17 6 -18
605 -2 635 8 15 8 19 0 14 -6 -4 -11 0 -11 8 0 9 6 16 13 17 9 0 9 2 0 6 -18
7 -18 673 0 674 9 0 9 2 0 6 -17 6 -18 605 -2 635 8 15 8 19 0 14 -6 -4 -11 0
-11 8 0 9 6 16 13 17 9 0 9 2 0 6 -18 7 -18 623 0 624 9 0 9 2 0 6 -7 2 -13
11 -13 19 0 9 5 12 11 8 8 -5 8 -1 0 14 -16 30 -15 632 2 633 9 0 9 2 0 6 -18
7 -18 673 0 674 9 0 9 2 0 6 -7 2 -13 11 -13 19 0 9 5 12 11 8 8 -5 8 -1 0 14
-16 30 -15 632 2 633 9 0 9 2 0 6 -18 7 -18 673 0 674 9 0 9 2 0 6 -7 2 -13
11 -13 19 0 9 5 12 11 8 8 -5 8 -1 0 14 -16 30 -15 632 2 633 9 0 9 2 0 6 -18
7 -18 673 0 674 9 0 9 2 0 6 -7 2 -13 11 -13 19 0 9 5 12 11 8 8 -5 8 -1 0 14
-16 30 -15 632 2 633 9 0 9 2 0 6 -19 7 -19 403 0 404 9 0 9 2 0 6 -17 6 -18
605 -2 635 8 15 8 19 0 14 -6 -4 -11 0 -11 8 0 9 6 16 13 17 9 0 9 2 0 6 -18
7 -18 673 0 674 9 0 9 2 0 6 -17 6 -18 605 -2 635 8 15 8 19 0 14 -6 -4 -11 0
-11 8 0 9 6 16 13 17 9 0 9 2 0 6 -18 7 -18 673 0 674 9 0 9 2 0 6 -18 7 -18
623 0 624 9 0 9 2 0 6 -18 7 -18 673 0 674 9 0 9 2 0 6 -7 2 -13 11 -13 19 0
9 5 12 11 8 8 -5 8 -1 0 14 -16 31 -15 1042 2 1043 9 0 9 2 0 6 -17 6 -18 605
-2 635 8 15 8 19 0 14 -6 -4 -11 0 -11 8 0 9 6 16 13 17 9 0 9 2 0 6 -18 7
-18 673 0 674 9 0 9 2 0 6 -17 6 -18 605 -2 635 8 15 8 19 0 14 -6 -4 -11 0
-11 8 0 9 6 16 13 17 9 0 9 2 0 6 -18 7 -18 673 0 674 9 0 9 2 0 6 -17 6 -18
605 -2 635 8 15 8 19 0 14 -6 -4 -11 0 -11 8 0 9 6 16 13 17 10 0 10 2 0 6 -7
2 -13 18 -13 34 l0 29 875 0 875 0 0 -385z m3180 -40 l0 -425 -1555 0 -1555 0
0 425 0 425 1555 0 1555 0 0 -425z m-1070 -1595 l0 -1100 -1020 0 -1020 0 0
1100 0 1100 1020 0 1020 0 0 -1100z m1070 0 l0 -1100 -500 0 -500 0 0 1100 0
1100 500 0 500 0 0 -1100z m0 -2275 l0 -1105 -1555 0 -1555 0 0 1105 0 1105
1555 0 1555 0 0 -1105z m-1070 -2280 l0 -1105 -1020 0 -1020 0 0 1105 0 1105
1020 0 1020 0 0 -1105z m1070 0 l0 -1105 -500 0 -500 0 0 1105 0 1105 500 0
500 0 0 -1105z m0 -2275 l0 -1100 -1555 0 -1555 0 0 1100 0 1100 1555 0 1555
0 0 -1100z m-1070 -2270 l0 -1100 -1020 0 -1020 0 0 1100 0 1100 1020 0 1020
0 0 -1100z m1070 0 l0 -1100 -500 0 -500 0 0 1100 0 1100 500 0 500 0 0 -1100z
m0 -2270 l0 -1100 -1555 0 -1555 0 0 1100 0 1100 1555 0 1555 0 0 -1100z
m-1070 -2270 l0 -1100 -1020 0 -1020 0 0 1100 0 1100 1020 0 1020 0 0 -1100z
m1070 0 l0 -1100 -500 0 -500 0 0 1100 0 1100 500 0 500 0 0 -1100z m0 -2270
l0 -1100 -1555 0 -1555 0 0 1100 0 1100 1555 0 1555 0 0 -1100z m-1070 -2270
l0 -1100 -1020 0 -1020 0 0 1100 0 1100 1020 0 1020 0 0 -1100z m1070 0 l0
-1100 -500 0 -500 0 0 1100 0 1100 500 0 500 0 0 -1100z m0 -2280 l0 -1110
-1555 0 -1555 0 0 1110 0 1110 1555 0 1555 0 0 -1110z m-1070 -2280 l0 -1100
-1020 0 -1020 0 0 1100 0 1100 1020 0 1020 0 0 -1100z m1070 0 l0 -1100 -500
0 -500 0 0 1100 0 1100 500 0 500 0 0 -1100z m0 -2270 l0 -1100 -1555 0 -1555
0 0 1100 0 1100 1555 0 1555 0 0 -1100z m-1070 -2270 l0 -1100 -1020 0 -1020
0 0 1100 0 1100 1020 0 1020 0 0 -1100z m1070 0 l0 -1100 -500 0 -500 0 0
1100 0 1100 500 0 500 0 0 -1100z m0 -2270 l0 -1100 -1555 0 -1555 0 0 1100 0
1100 1555 0 1555 0 0 -1100z m-1070 -2270 l0 -1100 -1020 0 -1020 0 0 1100 0
1100 1020 0 1020 0 0 -1100z m1070 0 l0 -1100 -500 0 -500 0 0 1100 0 1100
500 0 500 0 0 -1100z m0 -2270 l0 -1100 -1555 0 -1555 0 0 1100 0 1100 1555 0
1555 0 0 -1100z m-1070 -2275 l0 -1105 -1020 0 -1020 0 0 1105 0 1105 1020 0
1020 0 0 -1105z m1070 0 l0 -1105 -500 0 -500 0 0 1105 0 1105 500 0 500 0 0
-1105z m0 -2280 l0 -1105 -1555 0 -1555 0 0 1105 0 1105 1555 0 1555 0 0
-1105z m-1070 -2275 l0 -1100 -1020 0 -1020 0 0 1100 0 1100 1020 0 1020 0 0
-1100z m1070 0 l0 -1100 -500 0 -500 0 0 1100 0 1100 500 0 500 0 0 -1100z m0
-2270 l0 -1100 -1555 0 -1555 0 0 1100 0 1100 1555 0 1555 0 0 -1100z m-1070
-2270 l0 -1100 -1020 0 -1020 0 0 1100 0 1100 1020 0 1020 0 0 -1100z m1070 0
l0 -1100 -500 0 -500 0 0 1100 0 1100 500 0 500 0 0 -1100z m0 -2270 l0 -1100
-1555 0 -1555 0 0 1100 0 1100 1555 0 1555 0 0 -1100z m-1070 -2270 l0 -1100
-1020 0 -1020 0 0 1100 0 1100 1020 0 1020 0 0 -1100z m1070 0 l0 -1100 -500
0 -500 0 0 1100 0 1100 500 0 500 0 0 -1100z m0 -2265 l0 -1095 -1555 0 -1555
0 0 1095 0 1095 1555 0 1555 0 0 -1095z m-1070 -1590 l0 -425 -1020 0 -1020 0
0 425 0 425 1020 0 1020 0 0 -425z m1070 0 l0 -425 -500 0 -500 0 0 425 0 425
500 0 500 0 0 -425z"/>
<path d="M4620 58440 c-9 -6 -10 -10 -3 -10 6 0 15 5 18 10 8 12 4 12 -15 0z"/>
<path d="M5630 58446 c0 -2 9 -6 20 -9 11 -3 18 -1 14 4 -5 9 -34 13 -34 5z"/>
<path d="M5613 58425 c0 -8 4 -12 9 -9 5 3 6 10 3 15 -9 13 -12 11 -12 -6z"/>
<path d="M4261 58404 c0 -11 3 -14 6 -6 3 7 2 16 -1 19 -3 4 -6 -2 -5 -13z"/>
<path d="M4576 58408 c3 -4 9 -8 15 -8 5 0 9 4 9 8 0 5 -7 9 -15 9 -8 0 -12
-4 -9 -9z"/>
<path d="M5634 58405 c-4 -8 -10 -13 -14 -10 -5 3 -11 1 -14 -4 -4 -5 1 -8 10
-7 8 1 19 8 24 15 4 8 13 10 20 6 9 -5 11 -4 6 3 -10 17 -26 15 -32 -3z"/>
<path d="M5605 58101 c-3 -5 -2 -12 3 -15 5 -3 9 1 9 9 0 17 -3 19 -12 6z"/>
<path d="M5640 58100 c-9 -6 -10 -10 -3 -10 6 0 15 5 18 10 8 12 4 12 -15 0z"/>
<path d="M4273 58055 c0 -8 4 -12 9 -9 5 3 6 10 3 15 -9 13 -12 11 -12 -6z"/>
<path d="M5607 58056 c-4 -10 -1 -13 8 -9 8 3 12 9 9 14 -7 12 -11 11 -17 -5z"/>
<path d="M4578 57733 c232 -2 612 -2 845 0 232 1 42 2 -423 2 -465 0 -655 -1
-422 -2z"/>
<path d="M4250 57419 c0 -5 5 -7 10 -4 6 3 10 8 10 11 0 2 -4 4 -10 4 -5 0
-10 -5 -10 -11z"/>
<path d="M4580 57424 c0 -1 8 -8 17 -15 14 -12 16 -12 8 0 -6 11 -3 13 13 9
12 -4 20 -2 17 3 -5 7 -55 10 -55 3z"/>
<path d="M5269 57408 c-5 -18 -6 -38 -1 -34 7 8 12 36 6 36 -2 0 -4 -1 -5 -2z"/>
<path d="M5613 57396 c-10 -11 -9 -15 3 -20 24 -9 31 -7 14 4 -10 6 -11 10 -2
10 6 0 12 5 12 10 0 14 -13 12 -27 -4z"/>
<path d="M4278 57381 c5 -14 3 -14 -11 -2 -9 7 -17 11 -17 8 0 -2 6 -10 14
-16 12 -10 17 -8 25 7 7 14 7 19 -4 19 -8 0 -11 -7 -7 -16z"/>
<path d="M4590 57381 c0 -6 4 -13 10 -16 6 -3 7 1 4 9 -7 18 -14 21 -14 7z"/>
<path d="M4620 57080 c-9 -6 -10 -10 -3 -10 6 0 15 5 18 10 8 12 4 12 -15 0z"/>
<path d="M5630 57086 c0 -2 9 -6 20 -9 11 -3 18 -1 14 4 -5 9 -34 13 -34 5z"/>
<path d="M5613 57065 c0 -8 4 -12 9 -9 5 3 6 10 3 15 -9 13 -12 11 -12 -6z"/>
<path d="M4261 57044 c0 -11 3 -14 6 -6 3 7 2 16 -1 19 -3 4 -6 -2 -5 -13z"/>
<path d="M4576 57048 c3 -4 9 -8 15 -8 5 0 9 4 9 8 0 5 -7 9 -15 9 -8 0 -12
-4 -9 -9z"/>
<path d="M5634 57045 c-4 -8 -10 -13 -14 -10 -5 3 -11 1 -14 -4 -4 -5 1 -8 10
-7 8 1 19 8 24 15 4 8 13 10 20 6 9 -5 11 -4 6 3 -10 17 -26 15 -32 -3z"/>
<path d="M4590 56400 c-9 -6 -10 -10 -3 -10 6 0 15 5 18 10 8 12 4 12 -15 0z"/>
<path d="M5610 56401 c0 -6 4 -13 10 -16 6 -3 7 1 4 9 -7 18 -14 21 -14 7z"/>
<path d="M5646 56402 c-3 -5 1 -9 9 -9 8 0 12 4 9 9 -3 4 -7 8 -9 8 -2 0 -6
-4 -9 -8z"/>
<path d="M4278 56381 c-16 -18 -15 -20 1 -18 9 0 17 9 17 19 0 10 -1 18 -1 18
0 0 -8 -9 -17 -19z"/>
<path d="M4964 56390 c-5 -5 -86 -11 -179 -13 l-170 -3 171 -2 c142 -2 174 1
184 13 14 17 10 21 -6 5z"/>
<path d="M5269 56388 c12 -16 33 -18 169 -18 135 0 157 -2 169 -17 13 -16 13
-16 3 5 -10 21 -15 22 -168 22 -112 0 -162 4 -172 13 -12 10 -12 9 -1 -5z"/>
<path d="M4178 56373 c12 -2 32 -2 45 0 12 2 2 4 -23 4 -25 0 -35 -2 -22 -4z"/>
<path d="M4600 56365 c0 -8 4 -15 10 -15 5 0 7 7 4 15 -4 8 -8 15 -10 15 -2 0
-4 -7 -4 -15z"/>
<path d="M5630 56370 c-7 -4 -5 -12 7 -21 10 -7 15 -9 11 -5 -4 5 0 14 8 21
15 11 15 12 1 12 -9 0 -21 -3 -27 -7z"/>
<path d="M4250 56059 c0 -5 5 -7 10 -4 6 3 10 8 10 11 0 2 -4 4 -10 4 -5 0
-10 -5 -10 -11z"/>
<path d="M4580 56064 c0 -1 8 -8 17 -15 14 -12 16 -12 8 0 -6 11 -3 13 13 9
12 -4 20 -2 17 3 -5 7 -55 10 -55 3z"/>
<path d="M5269 56048 c-5 -18 -6 -38 -1 -34 7 8 12 36 6 36 -2 0 -4 -1 -5 -2z"/>
<path d="M5613 56036 c-10 -11 -9 -15 3 -20 24 -9 31 -7 14 4 -10 6 -11 10 -2
10 6 0 12 5 12 10 0 14 -13 12 -27 -4z"/>
<path d="M4278 56021 c5 -14 3 -14 -11 -2 -9 7 -17 11 -17 8 0 -2 6 -10 14
-16 12 -10 17 -8 25 7 7 14 7 19 -4 19 -8 0 -11 -7 -7 -16z"/>
<path d="M4590 56021 c0 -6 4 -13 10 -16 6 -3 7 1 4 9 -7 18 -14 21 -14 7z"/>
<path d="M5605 55381 c-3 -5 -2 -12 3 -15 5 -3 9 1 9 9 0 17 -3 19 -12 6z"/>
<path d="M5640 55380 c-9 -6 -10 -10 -3 -10 6 0 15 5 18 10 8 12 4 12 -15 0z"/>
<path d="M4273 55335 c0 -8 4 -12 9 -9 5 3 6 10 3 15 -9 13 -12 11 -12 -6z"/>
<path d="M5607 55336 c-4 -10 -1 -13 8 -9 8 3 12 9 9 14 -7 12 -11 11 -17 -5z"/>
<path d="M4590 55040 c-9 -6 -10 -10 -3 -10 6 0 15 5 18 10 8 12 4 12 -15 0z"/>
<path d="M5610 55041 c0 -6 4 -13 10 -16 6 -3 7 1 4 9 -7 18 -14 21 -14 7z"/>
<path d="M5646 55042 c-3 -5 1 -9 9 -9 8 0 12 4 9 9 -3 4 -7 8 -9 8 -2 0 -6
-4 -9 -8z"/>
<path d="M4278 55021 c-16 -18 -15 -20 1 -18 9 0 17 9 17 19 0 10 -1 18 -1 18
0 0 -8 -9 -17 -19z"/>
<path d="M4964 55030 c-5 -5 -86 -11 -179 -13 l-170 -3 171 -2 c142 -2 174 1
184 13 14 17 10 21 -6 5z"/>
<path d="M5269 55028 c12 -16 33 -18 169 -18 135 0 157 -2 169 -17 13 -16 13
-16 3 5 -10 21 -15 22 -168 22 -112 0 -162 4 -172 13 -12 10 -12 9 -1 -5z"/>
<path d="M4178 55013 c12 -2 32 -2 45 0 12 2 2 4 -23 4 -25 0 -35 -2 -22 -4z"/>
<path d="M4600 55005 c0 -8 4 -15 10 -15 5 0 7 7 4 15 -4 8 -8 15 -10 15 -2 0
-4 -7 -4 -15z"/>
<path d="M5630 55010 c-7 -4 -5 -12 7 -21 10 -7 15 -9 11 -5 -4 5 0 14 8 21
15 11 15 12 1 12 -9 0 -21 -3 -27 -7z"/>
<path d="M5625 54350 c3 -5 8 -10 11 -10 2 0 4 5 4 10 0 6 -5 10 -11 10 -5 0
-7 -4 -4 -10z"/>
<path d="M4596 54341 c-3 -5 2 -15 12 -22 16 -13 16 -13 2 5 -14 18 -13 19 3
13 11 -4 16 -3 12 3 -8 12 -22 13 -29 1z"/>
<path d="M4263 54325 c0 -8 4 -12 9 -9 5 3 6 10 3 15 -9 13 -12 11 -12 -6z"/>
<path d="M4279 54303 c-13 -16 -12 -17 4 -4 16 13 21 21 13 21 -2 0 -10 -8
-17 -17z"/>
<path d="M4580 54316 c0 -2 8 -10 18 -17 15 -13 16 -12 3 4 -13 16 -21 21 -21
13z"/>
<path d="M4284 54012 c8 -14 -11 -45 -23 -37 -4 2 -8 -2 -8 -9 0 -7 6 -13 14
-13 7 0 11 3 8 5 -3 3 3 14 12 24 14 15 14 21 3 31 -10 9 -11 9 -6 -1z"/>
<path d="M5615 54010 c-3 -6 1 -7 9 -4 18 7 21 14 7 14 -6 0 -13 -4 -16 -10z"/>
<path d="M5654 54001 c0 -11 4 -17 8 -15 4 3 8 12 8 20 0 8 -4 14 -8 14 -4 0
-8 -9 -8 -19z"/>
<path d="M4250 54000 c-9 -6 -10 -10 -3 -10 6 0 15 5 18 10 8 12 4 12 -15 0z"/>
<path d="M4596 53991 c-17 -19 -17 -19 0 -17 9 2 18 10 20 19 3 21 1 21 -20
-2z"/>
<path d="M4610 53960 c-12 -7 -10 -9 7 -7 12 0 19 5 17 9 -6 10 -6 10 -24 -2z"/>
<path d="M5630 53960 c0 -5 5 -10 11 -10 5 0 7 5 4 10 -3 6 -8 10 -11 10 -2 0
-4 -4 -4 -10z"/>
<path d="M5650 53321 c-8 -6 -17 -8 -21 -5 -4 2 -10 0 -14 -5 -3 -6 6 -8 21
-5 15 3 23 1 20 -5 -4 -5 -3 -12 2 -15 4 -2 8 6 8 20 0 13 0 24 0 24 -1 0 -8
-4 -16 -9z"/>
<path d="M5270 53311 c12 -9 13 -11 1 -11 -8 0 -12 -1 -10 -2 2 -2 81 -1 174
2 l170 6 -157 2 c-86 1 -165 5 -175 8 -15 5 -15 4 -3 -5z"/>
<path d="M4183 53303 c15 -2 37 -2 50 0 12 2 0 4 -28 4 -27 0 -38 -2 -22 -4z"/>
<path d="M4586 53301 c-7 -11 22 -36 31 -28 3 4 -2 9 -11 13 -9 3 -13 10 -10
15 3 5 3 9 0 9 -3 0 -7 -4 -10 -9z"/>
<path d="M4690 53303 c133 -7 278 -7 273 0 -2 4 -77 6 -166 5 -89 -1 -137 -3
-107 -5z"/>
<path d="M4260 53280 c0 -5 5 -10 11 -10 5 0 7 5 4 10 -3 6 -8 10 -11 10 -2 0
-4 -4 -4 -10z"/>
<path d="M5605 52981 c-3 -5 -2 -12 3 -15 5 -3 9 1 9 9 0 17 -3 19 -12 6z"/>
<path d="M5640 52980 c-9 -6 -10 -10 -3 -10 6 0 15 5 18 10 8 12 4 12 -15 0z"/>
<path d="M4273 52935 c0 -8 4 -12 9 -9 5 3 6 10 3 15 -9 13 -12 11 -12 -6z"/>
<path d="M5607 52936 c-4 -10 -1 -13 8 -9 8 3 12 9 9 14 -7 12 -11 11 -17 -5z"/>
<path d="M4578 52613 c232 -2 612 -2 845 0 232 1 42 2 -423 2 -465 0 -655 -1
-422 -2z"/>
<path d="M4250 52299 c0 -5 5 -7 10 -4 6 3 10 8 10 11 0 2 -4 4 -10 4 -5 0
-10 -5 -10 -11z"/>
<path d="M4580 52304 c0 -1 8 -8 17 -15 14 -12 16 -12 8 0 -6 11 -3 13 13 9
12 -4 20 -2 17 3 -5 7 -55 10 -55 3z"/>
<path d="M5269 52288 c-5 -18 -6 -38 -1 -34 7 8 12 36 6 36 -2 0 -4 -1 -5 -2z"/>
<path d="M5613 52276 c-10 -11 -9 -15 3 -20 24 -9 31 -7 14 4 -10 6 -11 10 -2
10 6 0 12 5 12 10 0 14 -13 12 -27 -4z"/>
<path d="M4278 52261 c5 -14 3 -14 -11 -2 -9 7 -17 11 -17 8 0 -2 6 -10 14
-16 12 -10 17 -8 25 7 7 14 7 19 -4 19 -8 0 -11 -7 -7 -16z"/>
<path d="M4590 52261 c0 -6 4 -13 10 -16 6 -3 7 1 4 9 -7 18 -14 21 -14 7z"/>
<path d="M4620 51960 c-9 -6 -10 -10 -3 -10 6 0 15 5 18 10 8 12 4 12 -15 0z"/>
<path d="M5630 51966 c0 -2 9 -6 20 -9 11 -3 18 -1 14 4 -5 9 -34 13 -34 5z"/>
<path d="M5613 51945 c0 -8 4 -12 9 -9 5 3 6 10 3 15 -9 13 -12 11 -12 -6z"/>
<path d="M4261 51924 c0 -11 3 -14 6 -6 3 7 2 16 -1 19 -3 4 -6 -2 -5 -13z"/>
<path d="M4576 51928 c3 -4 9 -8 15 -8 5 0 9 4 9 8 0 5 -7 9 -15 9 -8 0 -12
-4 -9 -9z"/>
<path d="M5634 51925 c-4 -8 -10 -13 -14 -10 -5 3 -11 1 -14 -4 -4 -5 1 -8 10
-7 8 1 19 8 24 15 4 8 13 10 20 6 9 -5 11 -4 6 3 -10 17 -26 15 -32 -3z"/>
<path d="M4590 51280 c-9 -6 -10 -10 -3 -10 6 0 15 5 18 10 8 12 4 12 -15 0z"/>
<path d="M5610 51281 c0 -6 4 -13 10 -16 6 -3 7 1 4 9 -7 18 -14 21 -14 7z"/>
<path d="M5646 51282 c-3 -5 1 -9 9 -9 8 0 12 4 9 9 -3 4 -7 8 -9 8 -2 0 -6
-4 -9 -8z"/>
<path d="M4278 51261 c-16 -18 -15 -20 1 -18 9 0 17 9 17 19 0 10 -1 18 -1 18
0 0 -8 -9 -17 -19z"/>
<path d="M4964 51270 c-5 -5 -86 -11 -179 -13 l-170 -3 171 -2 c142 -2 174 1
184 13 14 17 10 21 -6 5z"/>
<path d="M5269 51268 c12 -16 33 -18 169 -18 135 0 157 -2 169 -17 13 -16 13
-16 3 5 -10 21 -15 22 -168 22 -112 0 -162 4 -172 13 -12 10 -12 9 -1 -5z"/>
<path d="M4178 51253 c12 -2 32 -2 45 0 12 2 2 4 -23 4 -25 0 -35 -2 -22 -4z"/>
<path d="M4600 51245 c0 -8 4 -15 10 -15 5 0 7 7 4 15 -4 8 -8 15 -10 15 -2 0
-4 -7 -4 -15z"/>
<path d="M5630 51250 c-7 -4 -5 -12 7 -21 10 -7 15 -9 11 -5 -4 5 0 14 8 21
15 11 15 12 1 12 -9 0 -21 -3 -27 -7z"/>
<path d="M4250 50939 c0 -5 5 -7 10 -4 6 3 10 8 10 11 0 2 -4 4 -10 4 -5 0
-10 -5 -10 -11z"/>
<path d="M4580 50944 c0 -1 8 -8 17 -15 14 -12 16 -12 8 0 -6 11 -3 13 13 9
12 -4 20 -2 17 3 -5 7 -55 10 -55 3z"/>
<path d="M5269 50928 c-5 -18 -6 -38 -1 -34 7 8 12 36 6 36 -2 0 -4 -1 -5 -2z"/>
<path d="M5613 50916 c-10 -11 -9 -15 3 -20 24 -9 31 -7 14 4 -10 6 -11 10 -2
10 6 0 12 5 12 10 0 14 -13 12 -27 -4z"/>
<path d="M4278 50901 c5 -14 3 -14 -11 -2 -9 7 -17 11 -17 8 0 -2 6 -10 14
-16 12 -10 17 -8 25 7 7 14 7 19 -4 19 -8 0 -11 -7 -7 -16z"/>
<path d="M4590 50901 c0 -6 4 -13 10 -16 6 -3 7 1 4 9 -7 18 -14 21 -14 7z"/>
<path d="M5605 50261 c-3 -5 -2 -12 3 -15 5 -3 9 1 9 9 0 17 -3 19 -12 6z"/>
<path d="M5640 50260 c-9 -6 -10 -10 -3 -10 6 0 15 5 18 10 8 12 4 12 -15 0z"/>
<path d="M4273 50215 c0 -8 4 -12 9 -9 5 3 6 10 3 15 -9 13 -12 11 -12 -6z"/>
<path d="M5607 50216 c-4 -10 -1 -13 8 -9 8 3 12 9 9 14 -7 12 -11 11 -17 -5z"/>
<path d="M4590 49920 c-9 -6 -10 -10 -3 -10 6 0 15 5 18 10 8 12 4 12 -15 0z"/>
<path d="M5610 49921 c0 -6 4 -13 10 -16 6 -3 7 1 4 9 -7 18 -14 21 -14 7z"/>
<path d="M5646 49922 c-3 -5 1 -9 9 -9 8 0 12 4 9 9 -3 4 -7 8 -9 8 -2 0 -6
-4 -9 -8z"/>
<path d="M4278 49901 c-16 -18 -15 -20 1 -18 9 0 17 9 17 19 0 10 -1 18 -1 18
0 0 -8 -9 -17 -19z"/>
<path d="M4964 49910 c-5 -5 -86 -11 -179 -13 l-170 -3 171 -2 c142 -2 174 1
184 13 14 17 10 21 -6 5z"/>
<path d="M5269 49908 c12 -16 33 -18 169 -18 135 0 157 -2 169 -17 13 -16 13
-16 3 5 -10 21 -15 22 -168 22 -112 0 -162 4 -172 13 -12 10 -12 9 -1 -5z"/>
<path d="M4178 49893 c12 -2 32 -2 45 0 12 2 2 4 -23 4 -25 0 -35 -2 -22 -4z"/>
<path d="M4600 49885 c0 -8 4 -15 10 -15 5 0 7 7 4 15 -4 8 -8 15 -10 15 -2 0
-4 -7 -4 -15z"/>
<path d="M5630 49890 c-7 -4 -5 -12 7 -21 10 -7 15 -9 11 -5 -4 5 0 14 8 21
15 11 15 12 1 12 -9 0 -21 -3 -27 -7z"/>
<path d="M4578 49543 c232 -2 612 -2 845 0 232 1 42 2 -423 2 -465 0 -655 -1
-422 -2z"/>
<path d="M5625 49230 c3 -5 8 -10 11 -10 2 0 4 5 4 10 0 6 -5 10 -11 10 -5 0
-7 -4 -4 -10z"/>
<path d="M4596 49221 c-3 -5 2 -15 12 -22 16 -13 16 -13 2 5 -14 18 -13 19 3
13 11 -4 16 -3 12 3 -8 12 -22 13 -29 1z"/>
<path d="M4263 49205 c0 -8 4 -12 9 -9 5 3 6 10 3 15 -9 13 -12 11 -12 -6z"/>
<path d="M4279 49183 c-13 -16 -12 -17 4 -4 16 13 21 21 13 21 -2 0 -10 -8
-17 -17z"/>
<path d="M4580 49196 c0 -2 8 -10 18 -17 15 -13 16 -12 3 4 -13 16 -21 21 -21
13z"/>
<path d="M4284 48892 c8 -14 -11 -45 -23 -37 -4 2 -8 -2 -8 -9 0 -7 6 -13 14
-13 7 0 11 3 8 5 -3 3 3 14 12 24 14 15 14 21 3 31 -10 9 -11 9 -6 -1z"/>
<path d="M5615 48890 c-3 -6 1 -7 9 -4 18 7 21 14 7 14 -6 0 -13 -4 -16 -10z"/>
<path d="M5654 48881 c0 -11 4 -17 8 -15 4 3 8 12 8 20 0 8 -4 14 -8 14 -4 0
-8 -9 -8 -19z"/>
<path d="M4250 48880 c-9 -6 -10 -10 -3 -10 6 0 15 5 18 10 8 12 4 12 -15 0z"/>
<path d="M4596 48871 c-17 -19 -17 -19 0 -17 9 2 18 10 20 19 3 21 1 21 -20
-2z"/>
<path d="M4610 48840 c-12 -7 -10 -9 7 -7 12 0 19 5 17 9 -6 10 -6 10 -24 -2z"/>
<path d="M5630 48840 c0 -5 5 -10 11 -10 5 0 7 5 4 10 -3 6 -8 10 -11 10 -2 0
-4 -4 -4 -10z"/>
<path d="M5650 48201 c-8 -6 -17 -8 -21 -5 -4 2 -10 0 -14 -5 -3 -6 6 -8 21
-5 15 3 23 1 20 -5 -4 -5 -3 -12 2 -15 4 -2 8 6 8 20 0 13 0 24 0 24 -1 0 -8
-4 -16 -9z"/>
<path d="M5270 48191 c12 -9 13 -11 1 -11 -8 0 -12 -1 -10 -2 2 -2 81 -1 174
2 l170 6 -157 2 c-86 1 -165 5 -175 8 -15 5 -15 4 -3 -5z"/>
<path d="M4183 48183 c15 -2 37 -2 50 0 12 2 0 4 -28 4 -27 0 -38 -2 -22 -4z"/>
<path d="M4586 48181 c-7 -11 22 -36 31 -28 3 4 -2 9 -11 13 -9 3 -13 10 -10
15 3 5 3 9 0 9 -3 0 -7 -4 -10 -9z"/>
<path d="M4690 48183 c133 -7 278 -7 273 0 -2 4 -77 6 -166 5 -89 -1 -137 -3
-107 -5z"/>
<path d="M4260 48160 c0 -5 5 -10 11 -10 5 0 7 5 4 10 -3 6 -8 10 -11 10 -2 0
-4 -4 -4 -10z"/>
<path d="M5625 47870 c3 -5 8 -10 11 -10 2 0 4 5 4 10 0 6 -5 10 -11 10 -5 0
-7 -4 -4 -10z"/>
<path d="M4596 47861 c-3 -5 2 -15 12 -22 16 -13 16 -13 2 5 -14 18 -13 19 3
13 11 -4 16 -3 12 3 -8 12 -22 13 -29 1z"/>
<path d="M4263 47845 c0 -8 4 -12 9 -9 5 3 6 10 3 15 -9 13 -12 11 -12 -6z"/>
<path d="M4279 47823 c-13 -16 -12 -17 4 -4 16 13 21 21 13 21 -2 0 -10 -8
-17 -17z"/>
<path d="M4580 47836 c0 -2 8 -10 18 -17 15 -13 16 -12 3 4 -13 16 -21 21 -21
13z"/>
<path d="M4590 47190 c-12 -8 -10 -10 8 -10 13 0 20 4 17 10 -7 12 -6 12 -25
0z"/>
<path d="M5623 47185 c0 -7 8 -10 19 -7 10 2 18 6 18 7 0 1 -8 5 -18 7 -11 3
-19 0 -19 -7z"/>
<path d="M4265 47160 c-4 -6 -11 -8 -16 -5 -5 3 -6 -1 -3 -9 8 -21 11 -20 24
4 11 20 6 29 -5 10z"/>
<path d="M5635 47150 c-17 -19 -17 -19 5 -15 26 5 40 15 21 15 -7 0 -9 5 -6
10 10 17 -1 11 -20 -10z"/>
<path d="M4620 47139 c0 -5 5 -7 10 -4 6 3 10 8 10 11 0 2 -4 4 -10 4 -5 0
-10 -5 -10 -11z"/>
<path d="M5650 46841 c-8 -6 -17 -8 -21 -5 -4 2 -10 0 -14 -5 -3 -6 6 -8 21
-5 15 3 23 1 20 -5 -4 -5 -3 -12 2 -15 4 -2 8 6 8 20 0 13 0 24 0 24 -1 0 -8
-4 -16 -9z"/>
<path d="M5270 46831 c12 -9 13 -11 1 -11 -8 0 -12 -1 -10 -2 2 -2 81 -1 174
2 l170 6 -157 2 c-86 1 -165 5 -175 8 -15 5 -15 4 -3 -5z"/>
<path d="M4183 46823 c15 -2 37 -2 50 0 12 2 0 4 -28 4 -27 0 -38 -2 -22 -4z"/>
<path d="M4586 46821 c-7 -11 22 -36 31 -28 3 4 -2 9 -11 13 -9 3 -13 10 -10
15 3 5 3 9 0 9 -3 0 -7 -4 -10 -9z"/>
<path d="M4690 46823 c133 -7 278 -7 273 0 -2 4 -77 6 -166 5 -89 -1 -137 -3
-107 -5z"/>
<path d="M4260 46800 c0 -5 5 -10 11 -10 5 0 7 5 4 10 -3 6 -8 10 -11 10 -2 0
-4 -4 -4 -10z"/>
<path d="M4284 46172 c8 -14 -11 -45 -23 -37 -4 2 -8 -2 -8 -9 0 -7 6 -13 14
-13 7 0 11 3 8 5 -3 3 3 14 12 24 14 15 14 21 3 31 -10 9 -11 9 -6 -1z"/>
<path d="M5615 46170 c-3 -6 1 -7 9 -4 18 7 21 14 7 14 -6 0 -13 -4 -16 -10z"/>
<path d="M5654 46161 c0 -11 4 -17 8 -15 4 3 8 12 8 20 0 8 -4 14 -8 14 -4 0
-8 -9 -8 -19z"/>
<path d="M4250 46160 c-9 -6 -10 -10 -3 -10 6 0 15 5 18 10 8 12 4 12 -15 0z"/>
<path d="M4596 46151 c-17 -19 -17 -19 0 -17 9 2 18 10 20 19 3 21 1 21 -20
-2z"/>
<path d="M4610 46120 c-12 -7 -10 -9 7 -7 12 0 19 5 17 9 -6 10 -6 10 -24 -2z"/>
<path d="M5630 46120 c0 -5 5 -10 11 -10 5 0 7 5 4 10 -3 6 -8 10 -11 10 -2 0
-4 -4 -4 -10z"/>
<path d="M4590 45830 c-12 -8 -10 -10 8 -10 13 0 20 4 17 10 -7 12 -6 12 -25
0z"/>
<path d="M5623 45825 c0 -7 8 -10 19 -7 10 2 18 6 18 7 0 1 -8 5 -18 7 -11 3
-19 0 -19 -7z"/>
<path d="M4265 45800 c-4 -6 -11 -8 -16 -5 -5 3 -6 -1 -3 -9 8 -21 11 -20 24
4 11 20 6 29 -5 10z"/>
<path d="M5635 45790 c-17 -19 -17 -19 5 -15 26 5 40 15 21 15 -7 0 -9 5 -6
10 10 17 -1 11 -20 -10z"/>
<path d="M4620 45779 c0 -5 5 -7 10 -4 6 3 10 8 10 11 0 2 -4 4 -10 4 -5 0
-10 -5 -10 -11z"/>
<path d="M4578 45463 c232 -2 612 -2 845 0 232 1 42 2 -423 2 -465 0 -655 -1
-422 -2z"/>
<path d="M5625 45150 c3 -5 8 -10 11 -10 2 0 4 5 4 10 0 6 -5 10 -11 10 -5 0
-7 -4 -4 -10z"/>
<path d="M4596 45141 c-3 -5 2 -15 12 -22 16 -13 16 -13 2 5 -14 18 -13 19 3
13 11 -4 16 -3 12 3 -8 12 -22 13 -29 1z"/>
<path d="M4263 45125 c0 -8 4 -12 9 -9 5 3 6 10 3 15 -9 13 -12 11 -12 -6z"/>
<path d="M4279 45103 c-13 -16 -12 -17 4 -4 16 13 21 21 13 21 -2 0 -10 -8
-17 -17z"/>
<path d="M4580 45116 c0 -2 8 -10 18 -17 15 -13 16 -12 3 4 -13 16 -21 21 -21
13z"/>
<path d="M4284 44812 c8 -14 -11 -45 -23 -37 -4 2 -8 -2 -8 -9 0 -7 6 -13 14
-13 7 0 11 3 8 5 -3 3 3 14 12 24 14 15 14 21 3 31 -10 9 -11 9 -6 -1z"/>
<path d="M5615 44810 c-3 -6 1 -7 9 -4 18 7 21 14 7 14 -6 0 -13 -4 -16 -10z"/>
<path d="M5654 44801 c0 -11 4 -17 8 -15 4 3 8 12 8 20 0 8 -4 14 -8 14 -4 0
-8 -9 -8 -19z"/>
<path d="M4250 44800 c-9 -6 -10 -10 -3 -10 6 0 15 5 18 10 8 12 4 12 -15 0z"/>
<path d="M4596 44791 c-17 -19 -17 -19 0 -17 9 2 18 10 20 19 3 21 1 21 -20
-2z"/>
<path d="M4610 44760 c-12 -7 -10 -9 7 -7 12 0 19 5 17 9 -6 10 -6 10 -24 -2z"/>
<path d="M5630 44760 c0 -5 5 -10 11 -10 5 0 7 5 4 10 -3 6 -8 10 -11 10 -2 0
-4 -4 -4 -10z"/>
<path d="M4620 44120 c-9 -6 -10 -10 -3 -10 6 0 15 5 18 10 8 12 4 12 -15 0z"/>
<path d="M5630 44126 c0 -2 9 -6 20 -9 11 -3 18 -1 14 4 -5 9 -34 13 -34 5z"/>
<path d="M5613 44105 c0 -8 4 -12 9 -9 5 3 6 10 3 15 -9 13 -12 11 -12 -6z"/>
<path d="M4261 44084 c0 -11 3 -14 6 -6 3 7 2 16 -1 19 -3 4 -6 -2 -5 -13z"/>
<path d="M4576 44088 c3 -4 9 -8 15 -8 5 0 9 4 9 8 0 5 -7 9 -15 9 -8 0 -12
-4 -9 -9z"/>
<path d="M5634 44085 c-4 -8 -10 -13 -14 -10 -5 3 -11 1 -14 -4 -4 -5 1 -8 10
-7 8 1 19 8 24 15 4 8 13 10 20 6 9 -5 11 -4 6 3 -10 17 -26 15 -32 -3z"/>
<path d="M5605 43781 c-3 -5 -2 -12 3 -15 5 -3 9 1 9 9 0 17 -3 19 -12 6z"/>
<path d="M5640 43780 c-9 -6 -10 -10 -3 -10 6 0 15 5 18 10 8 12 4 12 -15 0z"/>
<path d="M4273 43735 c0 -8 4 -12 9 -9 5 3 6 10 3 15 -9 13 -12 11 -12 -6z"/>
<path d="M5607 43736 c-4 -10 -1 -13 8 -9 8 3 12 9 9 14 -7 12 -11 11 -17 -5z"/>
<path d="M4578 43413 c232 -2 612 -2 845 0 232 1 42 2 -423 2 -465 0 -655 -1
-422 -2z"/>
<path d="M4250 43099 c0 -5 5 -7 10 -4 6 3 10 8 10 11 0 2 -4 4 -10 4 -5 0
-10 -5 -10 -11z"/>
<path d="M4580 43104 c0 -1 8 -8 17 -15 14 -12 16 -12 8 0 -6 11 -3 13 13 9
12 -4 20 -2 17 3 -5 7 -55 10 -55 3z"/>
<path d="M5269 43088 c-5 -18 -6 -38 -1 -34 7 8 12 36 6 36 -2 0 -4 -1 -5 -2z"/>
<path d="M5613 43076 c-10 -11 -9 -15 3 -20 24 -9 31 -7 14 4 -10 6 -11 10 -2
10 6 0 12 5 12 10 0 14 -13 12 -27 -4z"/>
<path d="M4278 43061 c5 -14 3 -14 -11 -2 -9 7 -17 11 -17 8 0 -2 6 -10 14
-16 12 -10 17 -8 25 7 7 14 7 19 -4 19 -8 0 -11 -7 -7 -16z"/>
<path d="M4590 43061 c0 -6 4 -13 10 -16 6 -3 7 1 4 9 -7 18 -14 21 -14 7z"/>
<path d="M4620 42760 c-9 -6 -10 -10 -3 -10 6 0 15 5 18 10 8 12 4 12 -15 0z"/>
<path d="M5630 42766 c0 -2 9 -6 20 -9 11 -3 18 -1 14 4 -5 9 -34 13 -34 5z"/>
<path d="M5613 42745 c0 -8 4 -12 9 -9 5 3 6 10 3 15 -9 13 -12 11 -12 -6z"/>
<path d="M4261 42724 c0 -11 3 -14 6 -6 3 7 2 16 -1 19 -3 4 -6 -2 -5 -13z"/>
<path d="M4576 42728 c3 -4 9 -8 15 -8 5 0 9 4 9 8 0 5 -7 9 -15 9 -8 0 -12
-4 -9 -9z"/>
<path d="M5634 42725 c-4 -8 -10 -13 -14 -10 -5 3 -11 1 -14 -4 -4 -5 1 -8 10
-7 8 1 19 8 24 15 4 8 13 10 20 6 9 -5 11 -4 6 3 -10 17 -26 15 -32 -3z"/>
<path d="M4590 42080 c-9 -6 -10 -10 -3 -10 6 0 15 5 18 10 8 12 4 12 -15 0z"/>
<path d="M5610 42081 c0 -6 4 -13 10 -16 6 -3 7 1 4 9 -7 18 -14 21 -14 7z"/>
<path d="M5646 42082 c-3 -5 1 -9 9 -9 8 0 12 4 9 9 -3 4 -7 8 -9 8 -2 0 -6
-4 -9 -8z"/>
<path d="M4278 42061 c-16 -18 -15 -20 1 -18 9 0 17 9 17 19 0 10 -1 18 -1 18
0 0 -8 -9 -17 -19z"/>
<path d="M4964 42070 c-5 -5 -86 -11 -179 -13 l-170 -3 171 -2 c142 -2 174 1
184 13 14 17 10 21 -6 5z"/>
<path d="M5269 42068 c12 -16 33 -18 169 -18 135 0 157 -2 169 -17 13 -16 13
-16 3 5 -10 21 -15 22 -168 22 -112 0 -162 4 -172 13 -12 10 -12 9 -1 -5z"/>
<path d="M4178 42053 c12 -2 32 -2 45 0 12 2 2 4 -23 4 -25 0 -35 -2 -22 -4z"/>
<path d="M4600 42045 c0 -8 4 -15 10 -15 5 0 7 7 4 15 -4 8 -8 15 -10 15 -2 0
-4 -7 -4 -15z"/>
<path d="M5630 42050 c-7 -4 -5 -12 7 -21 10 -7 15 -9 11 -5 -4 5 0 14 8 21
15 11 15 12 1 12 -9 0 -21 -3 -27 -7z"/>
<path d="M4250 41739 c0 -5 5 -7 10 -4 6 3 10 8 10 11 0 2 -4 4 -10 4 -5 0
-10 -5 -10 -11z"/>
<path d="M4580 41744 c0 -1 8 -8 17 -15 14 -12 16 -12 8 0 -6 11 -3 13 13 9
12 -4 20 -2 17 3 -5 7 -55 10 -55 3z"/>
<path d="M5269 41728 c-5 -18 -6 -38 -1 -34 7 8 12 36 6 36 -2 0 -4 -1 -5 -2z"/>
<path d="M5613 41716 c-10 -11 -9 -15 3 -20 24 -9 31 -7 14 4 -10 6 -11 10 -2
10 6 0 12 5 12 10 0 14 -13 12 -27 -4z"/>
<path d="M4278 41701 c5 -14 3 -14 -11 -2 -9 7 -17 11 -17 8 0 -2 6 -10 14
-16 12 -10 17 -8 25 7 7 14 7 19 -4 19 -8 0 -11 -7 -7 -16z"/>
<path d="M4590 41701 c0 -6 4 -13 10 -16 6 -3 7 1 4 9 -7 18 -14 21 -14 7z"/>
<path d="M5605 41061 c-3 -5 -2 -12 3 -15 5 -3 9 1 9 9 0 17 -3 19 -12 6z"/>
<path d="M5640 41060 c-9 -6 -10 -10 -3 -10 6 0 15 5 18 10 8 12 4 12 -15 0z"/>
<path d="M4273 41015 c0 -8 4 -12 9 -9 5 3 6 10 3 15 -9 13 -12 11 -12 -6z"/>
<path d="M5607 41016 c-4 -10 -1 -13 8 -9 8 3 12 9 9 14 -7 12 -11 11 -17 -5z"/>
<path d="M4590 40720 c-9 -6 -10 -10 -3 -10 6 0 15 5 18 10 8 12 4 12 -15 0z"/>
<path d="M5610 40721 c0 -6 4 -13 10 -16 6 -3 7 1 4 9 -7 18 -14 21 -14 7z"/>
<path d="M5646 40722 c-3 -5 1 -9 9 -9 8 0 12 4 9 9 -3 4 -7 8 -9 8 -2 0 -6
-4 -9 -8z"/>
<path d="M4278 40701 c-16 -18 -15 -20 1 -18 9 0 17 9 17 19 0 10 -1 18 -1 18
0 0 -8 -9 -17 -19z"/>
<path d="M4964 40710 c-5 -5 -86 -11 -179 -13 l-170 -3 171 -2 c142 -2 174 1
184 13 14 17 10 21 -6 5z"/>
<path d="M5269 40708 c12 -16 33 -18 169 -18 135 0 157 -2 169 -17 13 -16 13
-16 3 5 -10 21 -15 22 -168 22 -112 0 -162 4 -172 13 -12 10 -12 9 -1 -5z"/>
<path d="M4178 40693 c12 -2 32 -2 45 0 12 2 2 4 -23 4 -25 0 -35 -2 -22 -4z"/>
<path d="M4600 40685 c0 -8 4 -15 10 -15 5 0 7 7 4 15 -4 8 -8 15 -10 15 -2 0
-4 -7 -4 -15z"/>
<path d="M5630 40690 c-7 -4 -5 -12 7 -21 10 -7 15 -9 11 -5 -4 5 0 14 8 21
15 11 15 12 1 12 -9 0 -21 -3 -27 -7z"/>
<path d="M4620 40040 c-9 -6 -10 -10 -3 -10 6 0 15 5 18 10 8 12 4 12 -15 0z"/>
<path d="M5630 40046 c0 -2 9 -6 20 -9 11 -3 18 -1 14 4 -5 9 -34 13 -34 5z"/>
<path d="M5613 40025 c0 -8 4 -12 9 -9 5 3 6 10 3 15 -9 13 -12 11 -12 -6z"/>
<path d="M4261 40004 c0 -11 3 -14 6 -6 3 7 2 16 -1 19 -3 4 -6 -2 -5 -13z"/>
<path d="M4576 40008 c3 -4 9 -8 15 -8 5 0 9 4 9 8 0 5 -7 9 -15 9 -8 0 -12
-4 -9 -9z"/>
<path d="M5634 40005 c-4 -8 -10 -13 -14 -10 -5 3 -11 1 -14 -4 -4 -5 1 -8 10
-7 8 1 19 8 24 15 4 8 13 10 20 6 9 -5 11 -4 6 3 -10 17 -26 15 -32 -3z"/>
<path d="M4284 39692 c8 -14 -11 -45 -23 -37 -4 2 -8 -2 -8 -9 0 -7 6 -13 14
-13 7 0 11 3 8 5 -3 3 3 14 12 24 14 15 14 21 3 31 -10 9 -11 9 -6 -1z"/>
<path d="M5615 39690 c-3 -6 1 -7 9 -4 18 7 21 14 7 14 -6 0 -13 -4 -16 -10z"/>
<path d="M5654 39681 c0 -11 4 -17 8 -15 4 3 8 12 8 20 0 8 -4 14 -8 14 -4 0
-8 -9 -8 -19z"/>
<path d="M4250 39680 c-9 -6 -10 -10 -3 -10 6 0 15 5 18 10 8 12 4 12 -15 0z"/>
<path d="M4596 39671 c-17 -19 -17 -19 0 -17 9 2 18 10 20 19 3 21 1 21 -20
-2z"/>
<path d="M4610 39640 c-12 -7 -10 -9 7 -7 12 0 19 5 17 9 -6 10 -6 10 -24 -2z"/>
<path d="M5630 39640 c0 -5 5 -10 11 -10 5 0 7 5 4 10 -3 6 -8 10 -11 10 -2 0
-4 -4 -4 -10z"/>
<path d="M5650 39001 c-8 -6 -17 -8 -21 -5 -4 2 -10 0 -14 -5 -3 -6 6 -8 21
-5 15 3 23 1 20 -5 -4 -5 -3 -12 2 -15 4 -2 8 6 8 20 0 13 0 24 0 24 -1 0 -8
-4 -16 -9z"/>
<path d="M5270 38991 c12 -9 13 -11 1 -11 -8 0 -12 -1 -10 -2 2 -2 81 -1 174
2 l170 6 -157 2 c-86 1 -165 5 -175 8 -15 5 -15 4 -3 -5z"/>
<path d="M4183 38983 c15 -2 37 -2 50 0 12 2 0 4 -28 4 -27 0 -38 -2 -22 -4z"/>
<path d="M4586 38981 c-7 -11 22 -36 31 -28 3 4 -2 9 -11 13 -9 3 -13 10 -10
15 3 5 3 9 0 9 -3 0 -7 -4 -10 -9z"/>
<path d="M4690 38983 c133 -7 278 -7 273 0 -2 4 -77 6 -166 5 -89 -1 -137 -3
-107 -5z"/>
<path d="M4260 38960 c0 -5 5 -10 11 -10 5 0 7 5 4 10 -3 6 -8 10 -11 10 -2 0
-4 -4 -4 -10z"/>
<path d="M5625 38670 c3 -5 8 -10 11 -10 2 0 4 5 4 10 0 6 -5 10 -11 10 -5 0
-7 -4 -4 -10z"/>
<path d="M4596 38661 c-3 -5 2 -15 12 -22 16 -13 16 -13 2 5 -14 18 -13 19 3
13 11 -4 16 -3 12 3 -8 12 -22 13 -29 1z"/>
<path d="M4263 38645 c0 -8 4 -12 9 -9 5 3 6 10 3 15 -9 13 -12 11 -12 -6z"/>
<path d="M4279 38623 c-13 -16 -12 -17 4 -4 9 7 17 15 17 17 0 8 -8 3 -21 -13z"/>
<path d="M4580 38636 c0 -2 8 -10 18 -17 15 -13 16 -12 3 4 -13 16 -21 21 -21
13z"/>
<path d="M4590 37990 c-12 -8 -10 -10 8 -10 13 0 20 4 17 10 -7 12 -6 12 -25
0z"/>
<path d="M5623 37985 c0 -7 8 -10 19 -7 10 2 18 6 18 7 0 1 -8 5 -18 7 -11 3
-19 0 -19 -7z"/>
<path d="M4265 37960 c-4 -6 -11 -8 -16 -5 -5 3 -6 -1 -3 -9 8 -21 11 -20 24
4 11 20 6 29 -5 10z"/>
<path d="M5635 37950 c-17 -19 -17 -19 5 -15 26 5 40 15 21 15 -7 0 -9 5 -6
10 10 17 -1 11 -20 -10z"/>
<path d="M4620 37939 c0 -5 5 -7 10 -4 6 3 10 8 10 11 0 2 -4 4 -10 4 -5 0
-10 -5 -10 -11z"/>
<path d="M5650 37641 c-8 -6 -17 -8 -21 -5 -4 2 -10 0 -14 -5 -3 -6 6 -8 21
-5 15 3 23 1 20 -5 -4 -5 -3 -12 2 -15 4 -2 8 6 8 20 0 13 0 24 0 24 -1 0 -8
-4 -16 -9z"/>
<path d="M5270 37631 c12 -9 13 -11 1 -11 -8 0 -12 -1 -10 -2 2 -2 81 -1 174
2 l170 6 -157 2 c-86 1 -165 5 -175 8 -15 5 -15 4 -3 -5z"/>
<path d="M4183 37623 c15 -2 37 -2 50 0 12 2 0 4 -28 4 -27 0 -38 -2 -22 -4z"/>
<path d="M4586 37621 c-7 -11 22 -36 31 -28 3 4 -2 9 -11 13 -9 3 -13 10 -10
15 3 5 3 9 0 9 -3 0 -7 -4 -10 -9z"/>
<path d="M4690 37623 c133 -7 278 -7 273 0 -2 4 -77 6 -166 5 -89 -1 -137 -3
-107 -5z"/>
<path d="M4260 37600 c0 -5 5 -10 11 -10 5 0 7 5 4 10 -3 6 -8 10 -11 10 -2 0
-4 -4 -4 -10z"/>
<path d="M4284 36972 c8 -14 -11 -45 -23 -37 -4 2 -8 -2 -8 -9 0 -7 6 -13 14
-13 7 0 11 3 8 5 -3 3 3 14 12 24 14 15 14 21 3 31 -10 9 -11 9 -6 -1z"/>
<path d="M5615 36970 c-3 -6 1 -7 9 -4 18 7 21 14 7 14 -6 0 -13 -4 -16 -10z"/>
<path d="M5654 36961 c0 -11 4 -17 8 -15 4 3 8 12 8 20 0 8 -4 14 -8 14 -4 0
-8 -9 -8 -19z"/>
<path d="M4250 36960 c-9 -6 -10 -10 -3 -10 6 0 15 5 18 10 8 12 4 12 -15 0z"/>
<path d="M4596 36951 c-17 -19 -17 -19 0 -17 9 2 18 10 20 19 3 21 1 21 -20
-2z"/>
<path d="M4610 36920 c-12 -7 -10 -9 7 -7 12 0 19 5 17 9 -6 10 -6 10 -24 -2z"/>
<path d="M5630 36920 c0 -5 5 -10 11 -10 5 0 7 5 4 10 -3 6 -8 10 -11 10 -2 0
-4 -4 -4 -10z"/>
<path d="M4590 36630 c-12 -8 -10 -10 8 -10 13 0 20 4 17 10 -7 12 -6 12 -25
0z"/>
<path d="M5623 36625 c0 -7 8 -10 19 -7 10 2 18 6 18 7 0 1 -8 5 -18 7 -11 3
-19 0 -19 -7z"/>
<path d="M4265 36600 c-4 -6 -11 -8 -16 -5 -5 3 -6 -1 -3 -9 8 -21 11 -20 24
4 11 20 6 29 -5 10z"/>
<path d="M5635 36590 c-17 -19 -17 -19 5 -15 26 5 40 15 21 15 -7 0 -9 5 -6
10 10 17 -1 11 -20 -10z"/>
<path d="M4620 36579 c0 -5 5 -7 10 -4 6 3 10 8 10 11 0 2 -4 4 -10 4 -5 0
-10 -5 -10 -11z"/>
<path d="M5605 35941 c-3 -5 -2 -12 3 -15 5 -3 9 1 9 9 0 17 -3 19 -12 6z"/>
<path d="M5640 35940 c-9 -6 -10 -10 -3 -10 6 0 15 5 18 10 8 12 4 12 -15 0z"/>
<path d="M4273 35895 c0 -8 4 -12 9 -9 5 3 6 10 3 15 -9 13 -12 11 -12 -6z"/>
<path d="M5607 35896 c-4 -10 -1 -13 8 -9 8 3 12 9 9 14 -7 12 -11 11 -17 -5z"/>
<path d="M4590 35600 c-9 -6 -10 -10 -3 -10 6 0 15 5 18 10 8 12 4 12 -15 0z"/>
<path d="M5610 35601 c0 -6 4 -13 10 -16 6 -3 7 1 4 9 -7 18 -14 21 -14 7z"/>
<path d="M5646 35602 c-3 -5 1 -9 9 -9 8 0 12 4 9 9 -3 4 -7 8 -9 8 -2 0 -6
-4 -9 -8z"/>
<path d="M4278 35581 c-16 -18 -15 -20 1 -18 9 0 17 9 17 19 0 10 -1 18 -1 18
0 0 -8 -9 -17 -19z"/>
<path d="M4964 35590 c-5 -5 -86 -11 -179 -13 l-170 -3 171 -2 c142 -2 174 1
184 13 14 17 10 21 -6 5z"/>
<path d="M5269 35588 c12 -16 33 -18 169 -18 135 0 157 -2 169 -17 13 -16 13
-16 3 5 -10 21 -15 22 -168 22 -112 0 -162 4 -172 13 -12 10 -12 9 -1 -5z"/>
<path d="M4178 35573 c12 -2 32 -2 45 0 12 2 2 4 -23 4 -25 0 -35 -2 -22 -4z"/>
<path d="M4600 35565 c0 -8 4 -15 10 -15 5 0 7 7 4 15 -4 8 -8 15 -10 15 -2 0
-4 -7 -4 -15z"/>
<path d="M5630 35570 c-7 -4 -5 -12 7 -21 10 -7 15 -9 11 -5 -4 5 0 14 8 21
15 11 15 12 1 12 -9 0 -21 -3 -27 -7z"/>
<path d="M5625 34910 c3 -5 8 -10 11 -10 2 0 4 5 4 10 0 6 -5 10 -11 10 -5 0
-7 -4 -4 -10z"/>
<path d="M4596 34901 c-3 -5 2 -15 12 -22 16 -13 16 -13 2 5 -14 18 -13 19 3
13 11 -4 16 -3 12 3 -8 12 -22 13 -29 1z"/>
<path d="M4263 34885 c0 -8 4 -12 9 -9 5 3 6 10 3 15 -9 13 -12 11 -12 -6z"/>
<path d="M4279 34863 c-13 -16 -12 -17 4 -4 9 7 17 15 17 17 0 8 -8 3 -21 -13z"/>
<path d="M4580 34876 c0 -2 8 -10 18 -17 15 -13 16 -12 3 4 -13 16 -21 21 -21
13z"/>
<path d="M4284 34572 c8 -14 -11 -45 -23 -37 -4 2 -8 -2 -8 -9 0 -7 6 -13 14
-13 7 0 11 3 8 5 -3 3 3 14 12 24 14 15 14 21 3 31 -10 9 -11 9 -6 -1z"/>
<path d="M5615 34570 c-3 -6 1 -7 9 -4 18 7 21 14 7 14 -6 0 -13 -4 -16 -10z"/>
<path d="M5654 34561 c0 -11 4 -17 8 -15 4 3 8 12 8 20 0 8 -4 14 -8 14 -4 0
-8 -9 -8 -19z"/>
<path d="M4250 34560 c-9 -6 -10 -10 -3 -10 6 0 15 5 18 10 8 12 4 12 -15 0z"/>
<path d="M4596 34551 c-17 -19 -17 -19 0 -17 9 2 18 10 20 19 3 21 1 21 -20
-2z"/>
<path d="M4610 34520 c-12 -7 -10 -9 7 -7 12 0 19 5 17 9 -6 10 -6 10 -24 -2z"/>
<path d="M5630 34520 c0 -5 5 -10 11 -10 5 0 7 5 4 10 -3 6 -8 10 -11 10 -2 0
-4 -4 -4 -10z"/>
<path d="M5650 33881 c-8 -6 -17 -8 -21 -5 -4 2 -10 0 -14 -5 -3 -6 6 -8 21
-5 15 3 23 1 20 -5 -4 -5 -3 -12 2 -15 4 -2 8 6 8 20 0 13 0 24 0 24 -1 0 -8
-4 -16 -9z"/>
<path d="M5270 33871 c12 -9 13 -11 1 -11 -8 0 -12 -1 -10 -2 2 -2 81 -1 174
2 l170 6 -157 2 c-86 1 -165 5 -175 8 -15 5 -15 4 -3 -5z"/>
<path d="M4183 33863 c15 -2 37 -2 50 0 12 2 0 4 -28 4 -27 0 -38 -2 -22 -4z"/>
<path d="M4586 33861 c-7 -11 22 -36 31 -28 3 4 -2 9 -11 13 -9 3 -13 10 -10
15 3 5 3 9 0 9 -3 0 -7 -4 -10 -9z"/>
<path d="M4690 33863 c133 -7 278 -7 273 0 -2 4 -77 6 -166 5 -89 -1 -137 -3
-107 -5z"/>
<path d="M4260 33840 c0 -5 5 -10 11 -10 5 0 7 5 4 10 -3 6 -8 10 -11 10 -2 0
-4 -4 -4 -10z"/>
<path d="M5625 33550 c3 -5 8 -10 11 -10 2 0 4 5 4 10 0 6 -5 10 -11 10 -5 0
-7 -4 -4 -10z"/>
<path d="M4596 33541 c-3 -5 2 -15 12 -22 16 -13 16 -13 2 5 -14 18 -13 19 3
13 11 -4 16 -3 12 3 -8 12 -22 13 -29 1z"/>
<path d="M4263 33525 c0 -8 4 -12 9 -9 5 3 6 10 3 15 -9 13 -12 11 -12 -6z"/>
<path d="M4279 33503 c-13 -16 -12 -17 4 -4 9 7 17 15 17 17 0 8 -8 3 -21 -13z"/>
<path d="M4580 33516 c0 -2 8 -10 18 -17 15 -13 16 -12 3 4 -13 16 -21 21 -21
13z"/>
<path d="M4590 32870 c-12 -8 -10 -10 8 -10 13 0 20 4 17 10 -7 12 -6 12 -25
0z"/>
<path d="M5623 32865 c0 -7 8 -10 19 -7 10 2 18 6 18 7 0 1 -8 5 -18 7 -11 3
-19 0 -19 -7z"/>
<path d="M4265 32840 c-4 -6 -11 -8 -16 -5 -5 3 -6 -1 -3 -9 8 -21 11 -20 24
4 11 20 6 29 -5 10z"/>
<path d="M5635 32830 c-17 -19 -17 -19 5 -15 26 5 40 15 21 15 -7 0 -9 5 -6
10 10 17 -1 11 -20 -10z"/>
<path d="M4620 32819 c0 -5 5 -7 10 -4 6 3 10 8 10 11 0 2 -4 4 -10 4 -5 0
-10 -5 -10 -11z"/>
<path d="M5650 32521 c-8 -6 -17 -8 -21 -5 -4 2 -10 0 -14 -5 -3 -6 6 -8 21
-5 15 3 23 1 20 -5 -4 -5 -3 -12 2 -15 4 -2 8 6 8 20 0 13 0 24 0 24 -1 0 -8
-4 -16 -9z"/>
<path d="M5270 32511 c12 -9 13 -11 1 -11 -8 0 -12 -1 -10 -2 2 -2 81 -1 174
2 l170 6 -157 2 c-86 1 -165 5 -175 8 -15 5 -15 4 -3 -5z"/>
<path d="M4183 32503 c15 -2 37 -2 50 0 12 2 0 4 -28 4 -27 0 -38 -2 -22 -4z"/>
<path d="M4586 32501 c-7 -11 22 -36 31 -28 3 4 -2 9 -11 13 -9 3 -13 10 -10
15 3 5 3 9 0 9 -3 0 -7 -4 -10 -9z"/>
<path d="M4690 32503 c133 -7 278 -7 273 0 -2 4 -77 6 -166 5 -89 -1 -137 -3
-107 -5z"/>
<path d="M4260 32480 c0 -5 5 -10 11 -10 5 0 7 5 4 10 -3 6 -8 10 -11 10 -2 0
-4 -4 -4 -10z"/>
<path d="M4284 31852 c8 -14 -11 -45 -23 -37 -4 2 -8 -2 -8 -9 0 -7 6 -13 14
-13 7 0 11 3 8 5 -3 3 3 14 12 24 14 15 14 21 3 31 -10 9 -11 9 -6 -1z"/>
<path d="M5615 31850 c-3 -6 1 -7 9 -4 18 7 21 14 7 14 -6 0 -13 -4 -16 -10z"/>
<path d="M5654 31841 c0 -11 4 -17 8 -15 4 3 8 12 8 20 0 8 -4 14 -8 14 -4 0
-8 -9 -8 -19z"/>
<path d="M4250 31840 c-9 -6 -10 -10 -3 -10 6 0 15 5 18 10 8 12 4 12 -15 0z"/>
<path d="M4596 31831 c-17 -19 -17 -19 0 -17 9 2 18 10 20 19 3 21 1 21 -20
-2z"/>
<path d="M4610 31800 c-12 -7 -10 -9 7 -7 12 0 19 5 17 9 -6 10 -6 10 -24 -2z"/>
<path d="M5630 31800 c0 -5 5 -10 11 -10 5 0 7 5 4 10 -3 6 -8 10 -11 10 -2 0
-4 -4 -4 -10z"/>
<path d="M4590 31510 c-12 -8 -10 -10 8 -10 13 0 20 4 17 10 -7 12 -6 12 -25
0z"/>
<path d="M5623 31505 c0 -7 8 -10 19 -7 10 2 18 6 18 7 0 1 -8 5 -18 7 -11 3
-19 0 -19 -7z"/>
<path d="M4265 31480 c-4 -6 -11 -8 -16 -5 -5 3 -6 -1 -3 -9 8 -21 11 -20 24
4 11 20 6 29 -5 10z"/>
<path d="M5635 31470 c-17 -19 -17 -19 5 -15 26 5 40 15 21 15 -7 0 -9 5 -6
10 10 17 -1 11 -20 -10z"/>
<path d="M4620 31459 c0 -5 5 -7 10 -4 6 3 10 8 10 11 0 2 -4 4 -10 4 -5 0
-10 -5 -10 -11z"/>
<path d="M4578 31143 c232 -2 612 -2 845 0 232 1 42 2 -423 2 -465 0 -655 -1
-422 -2z"/>
<path d="M5625 30830 c3 -5 8 -10 11 -10 2 0 4 5 4 10 0 6 -5 10 -11 10 -5 0
-7 -4 -4 -10z"/>
<path d="M4596 30821 c-3 -5 2 -15 12 -22 16 -13 16 -13 2 5 -14 18 -13 19 3
13 11 -4 16 -3 12 3 -8 12 -22 13 -29 1z"/>
<path d="M4263 30805 c0 -8 4 -12 9 -9 5 3 6 10 3 15 -9 13 -12 11 -12 -6z"/>
<path d="M4279 30783 c-13 -16 -12 -17 4 -4 9 7 17 15 17 17 0 8 -8 3 -21 -13z"/>
<path d="M4580 30796 c0 -2 8 -10 18 -17 15 -13 16 -12 3 4 -13 16 -21 21 -21
13z"/>
<path d="M4284 30492 c8 -14 -11 -45 -23 -37 -4 2 -8 -2 -8 -9 0 -7 6 -13 14
-13 7 0 11 3 8 5 -3 3 3 14 12 24 14 15 14 21 3 31 -10 9 -11 9 -6 -1z"/>
<path d="M5615 30490 c-3 -6 1 -7 9 -4 18 7 21 14 7 14 -6 0 -13 -4 -16 -10z"/>
<path d="M5654 30481 c0 -11 4 -17 8 -15 4 3 8 12 8 20 0 8 -4 14 -8 14 -4 0
-8 -9 -8 -19z"/>
<path d="M4250 30480 c-9 -6 -10 -10 -3 -10 6 0 15 5 18 10 8 12 4 12 -15 0z"/>
<path d="M4596 30471 c-17 -19 -17 -19 0 -17 9 2 18 10 20 19 3 21 1 21 -20
-2z"/>
<path d="M4610 30440 c-12 -7 -10 -9 7 -7 12 0 19 5 17 9 -6 10 -6 10 -24 -2z"/>
<path d="M5630 30440 c0 -5 5 -10 11 -10 5 0 7 5 4 10 -3 6 -8 10 -11 10 -2 0
-4 -4 -4 -10z"/>
<path d="M4620 29800 c-9 -6 -10 -10 -3 -10 6 0 15 5 18 10 8 12 4 12 -15 0z"/>
<path d="M5630 29806 c0 -2 9 -6 20 -9 11 -3 18 -1 14 4 -5 9 -34 13 -34 5z"/>
<path d="M5613 29785 c0 -8 4 -12 9 -9 5 3 6 10 3 15 -9 13 -12 11 -12 -6z"/>
<path d="M4261 29764 c0 -11 3 -14 6 -6 3 7 2 16 -1 19 -3 4 -6 -2 -5 -13z"/>
<path d="M4576 29768 c3 -4 9 -8 15 -8 5 0 9 4 9 8 0 5 -7 9 -15 9 -8 0 -12
-4 -9 -9z"/>
<path d="M5634 29765 c-4 -8 -10 -13 -14 -10 -5 3 -11 1 -14 -4 -4 -5 1 -8 10
-7 8 1 19 8 24 15 4 8 13 10 20 6 9 -5 11 -4 6 3 -10 17 -26 15 -32 -3z"/>
<path d="M5605 29461 c-3 -5 -2 -12 3 -15 5 -3 9 1 9 9 0 17 -3 19 -12 6z"/>
<path d="M5640 29460 c-9 -6 -10 -10 -3 -10 6 0 15 5 18 10 8 12 4 12 -15 0z"/>
<path d="M4273 29415 c0 -8 4 -12 9 -9 5 3 6 10 3 15 -9 13 -12 11 -12 -6z"/>
<path d="M5607 29416 c-4 -10 -1 -13 8 -9 8 3 12 9 9 14 -7 12 -11 11 -17 -5z"/>
<path d="M4578 29093 c232 -2 612 -2 845 0 232 1 42 2 -423 2 -465 0 -655 -1
-422 -2z"/>
<path d="M4250 28779 c0 -5 5 -7 10 -4 6 3 10 8 10 11 0 2 -4 4 -10 4 -5 0
-10 -5 -10 -11z"/>
<path d="M4580 28784 c0 -1 8 -8 17 -15 14 -12 16 -12 8 0 -6 11 -3 13 13 9
12 -4 20 -2 17 3 -5 7 -55 10 -55 3z"/>
<path d="M5269 28768 c-5 -18 -6 -38 -1 -34 7 8 12 36 6 36 -2 0 -4 -1 -5 -2z"/>
<path d="M5613 28756 c-10 -11 -9 -15 3 -20 24 -9 31 -7 14 4 -10 6 -11 10 -2
10 6 0 12 5 12 10 0 14 -13 12 -27 -4z"/>
<path d="M4278 28741 c5 -14 3 -14 -11 -2 -9 7 -17 11 -17 8 0 -2 6 -10 14
-16 12 -10 17 -8 25 7 7 14 7 19 -4 19 -8 0 -11 -7 -7 -16z"/>
<path d="M4590 28741 c0 -6 4 -13 10 -16 6 -3 7 1 4 9 -7 18 -14 21 -14 7z"/>
<path d="M4620 28440 c-9 -6 -10 -10 -3 -10 6 0 15 5 18 10 8 12 4 12 -15 0z"/>
<path d="M5630 28446 c0 -2 9 -6 20 -9 11 -3 18 -1 14 4 -5 9 -34 13 -34 5z"/>
<path d="M5613 28425 c0 -8 4 -12 9 -9 5 3 6 10 3 15 -9 13 -12 11 -12 -6z"/>
<path d="M4261 28404 c0 -11 3 -14 6 -6 3 7 2 16 -1 19 -3 4 -6 -2 -5 -13z"/>
<path d="M4576 28408 c3 -4 9 -8 15 -8 5 0 9 4 9 8 0 5 -7 9 -15 9 -8 0 -12
-4 -9 -9z"/>
<path d="M5634 28405 c-4 -8 -10 -13 -14 -10 -5 3 -11 1 -14 -4 -4 -5 1 -8 10
-7 8 1 19 8 24 15 4 8 13 10 20 6 9 -5 11 -4 6 3 -10 17 -26 15 -32 -3z"/>
<path d="M4590 27760 c-9 -6 -10 -10 -3 -10 6 0 15 5 18 10 8 12 4 12 -15 0z"/>
<path d="M5610 27761 c0 -6 4 -13 10 -16 6 -3 7 1 4 9 -7 18 -14 21 -14 7z"/>
<path d="M5646 27762 c-3 -5 1 -9 9 -9 8 0 12 4 9 9 -3 4 -7 8 -9 8 -2 0 -6
-4 -9 -8z"/>
<path d="M4278 27741 c-16 -18 -15 -20 1 -18 9 0 17 9 17 19 0 10 -1 18 -1 18
0 0 -8 -9 -17 -19z"/>
<path d="M4964 27750 c-5 -5 -86 -11 -179 -13 l-170 -3 171 -2 c142 -2 174 1
184 13 14 17 10 21 -6 5z"/>
<path d="M5269 27748 c12 -16 33 -18 169 -18 135 0 157 -2 169 -17 13 -16 13
-16 3 5 -10 21 -15 22 -168 22 -112 0 -162 4 -172 13 -12 10 -12 9 -1 -5z"/>
<path d="M4178 27733 c12 -2 32 -2 45 0 12 2 2 4 -23 4 -25 0 -35 -2 -22 -4z"/>
<path d="M4600 27725 c0 -8 4 -15 10 -15 5 0 7 7 4 15 -4 8 -8 15 -10 15 -2 0
-4 -7 -4 -15z"/>
<path d="M5630 27730 c-7 -4 -5 -12 7 -21 10 -7 15 -9 11 -5 -4 5 0 14 8 21
15 11 15 12 1 12 -9 0 -21 -3 -27 -7z"/>
<path d="M4250 27419 c0 -5 5 -7 10 -4 6 3 10 8 10 11 0 2 -4 4 -10 4 -5 0
-10 -5 -10 -11z"/>
<path d="M4580 27424 c0 -1 8 -8 17 -15 14 -12 16 -12 8 0 -6 11 -3 13 13 9
12 -4 20 -2 17 3 -5 7 -55 10 -55 3z"/>
<path d="M5269 27408 c-5 -18 -6 -38 -1 -34 7 8 12 36 6 36 -2 0 -4 -1 -5 -2z"/>
<path d="M5613 27396 c-10 -11 -9 -15 3 -20 24 -9 31 -7 14 4 -10 6 -11 10 -2
10 6 0 12 5 12 10 0 14 -13 12 -27 -4z"/>
<path d="M4278 27381 c5 -14 3 -14 -11 -2 -9 7 -17 11 -17 8 0 -2 6 -10 14
-16 12 -10 17 -8 25 7 7 14 7 19 -4 19 -8 0 -11 -7 -7 -16z"/>
<path d="M4590 27381 c0 -6 4 -13 10 -16 6 -3 7 1 4 9 -7 18 -14 21 -14 7z"/>
<path d="M5605 26741 c-3 -5 -2 -12 3 -15 5 -3 9 1 9 9 0 17 -3 19 -12 6z"/>
<path d="M5640 26740 c-9 -6 -10 -10 -3 -10 6 0 15 5 18 10 8 12 4 12 -15 0z"/>
<path d="M4273 26695 c0 -8 4 -12 9 -9 5 3 6 10 3 15 -9 13 -12 11 -12 -6z"/>
<path d="M5607 26696 c-4 -10 -1 -13 8 -9 8 3 12 9 9 14 -7 12 -11 11 -17 -5z"/>
<path d="M4590 26400 c-9 -6 -10 -10 -3 -10 6 0 15 5 18 10 8 12 4 12 -15 0z"/>
<path d="M5610 26401 c0 -6 4 -13 10 -16 6 -3 7 1 4 9 -7 18 -14 21 -14 7z"/>
<path d="M5646 26402 c-3 -5 1 -9 9 -9 8 0 12 4 9 9 -3 4 -7 8 -9 8 -2 0 -6
-4 -9 -8z"/>
<path d="M4278 26381 c-16 -18 -15 -20 1 -18 9 0 17 9 17 19 0 10 -1 18 -1 18
0 0 -8 -9 -17 -19z"/>
<path d="M4964 26390 c-5 -5 -86 -11 -179 -13 l-170 -3 171 -2 c142 -2 174 1
184 13 14 17 10 21 -6 5z"/>
<path d="M5269 26388 c12 -16 33 -18 169 -18 135 0 157 -2 169 -17 13 -16 13
-16 3 5 -10 21 -15 22 -168 22 -112 0 -162 4 -172 13 -12 10 -12 9 -1 -5z"/>
<path d="M4178 26373 c12 -2 32 -2 45 0 12 2 2 4 -23 4 -25 0 -35 -2 -22 -4z"/>
<path d="M4600 26365 c0 -8 4 -15 10 -15 5 0 7 7 4 15 -4 8 -8 15 -10 15 -2 0
-4 -7 -4 -15z"/>
<path d="M5630 26370 c-7 -4 -5 -12 7 -21 10 -7 15 -9 11 -5 -4 5 0 14 8 21
15 11 15 12 1 12 -9 0 -21 -3 -27 -7z"/>
<path d="M4620 25720 c-9 -6 -10 -10 -3 -10 6 0 15 5 18 10 8 12 4 12 -15 0z"/>
<path d="M5630 25726 c0 -2 9 -6 20 -9 11 -3 18 -1 14 4 -5 9 -34 13 -34 5z"/>
<path d="M5613 25705 c0 -8 4 -12 9 -9 5 3 6 10 3 15 -9 13 -12 11 -12 -6z"/>
<path d="M4261 25684 c0 -11 3 -14 6 -6 3 7 2 16 -1 19 -3 4 -6 -2 -5 -13z"/>
<path d="M4576 25688 c3 -4 9 -8 15 -8 5 0 9 4 9 8 0 5 -7 9 -15 9 -8 0 -12
-4 -9 -9z"/>
<path d="M5634 25685 c-4 -8 -10 -13 -14 -10 -5 3 -11 1 -14 -4 -4 -5 1 -8 10
-7 8 1 19 8 24 15 4 8 13 10 20 6 9 -5 11 -4 6 3 -10 17 -26 15 -32 -3z"/>
<path d="M5605 25381 c-3 -5 -2 -12 3 -15 5 -3 9 1 9 9 0 17 -3 19 -12 6z"/>
<path d="M5640 25380 c-9 -6 -10 -10 -3 -10 6 0 15 5 18 10 8 12 4 12 -15 0z"/>
<path d="M4273 25335 c0 -8 4 -12 9 -9 5 3 6 10 3 15 -9 13 -12 11 -12 -6z"/>
<path d="M5607 25336 c-4 -10 -1 -13 8 -9 8 3 12 9 9 14 -7 12 -11 11 -17 -5z"/>
<path d="M5650 24681 c-8 -6 -17 -8 -21 -5 -4 2 -10 0 -14 -5 -3 -6 6 -8 21
-5 15 3 23 1 20 -5 -4 -5 -3 -12 2 -15 4 -2 8 6 8 20 0 13 0 24 0 24 -1 0 -8
-4 -16 -9z"/>
<path d="M5270 24671 c12 -9 13 -11 1 -11 -8 0 -12 -1 -10 -2 2 -2 81 -1 174
2 l170 6 -157 2 c-86 1 -165 5 -175 8 -15 5 -15 4 -3 -5z"/>
<path d="M4183 24663 c15 -2 37 -2 50 0 12 2 0 4 -28 4 -27 0 -38 -2 -22 -4z"/>
<path d="M4586 24661 c-7 -11 22 -36 31 -28 3 4 -2 9 -11 13 -9 3 -13 10 -10
15 3 5 3 9 0 9 -3 0 -7 -4 -10 -9z"/>
<path d="M4690 24663 c133 -7 278 -7 273 0 -2 4 -77 6 -166 5 -89 -1 -137 -3
-107 -5z"/>
<path d="M4260 24640 c0 -5 5 -10 11 -10 5 0 7 5 4 10 -3 6 -8 10 -11 10 -2 0
-4 -4 -4 -10z"/>
<path d="M5625 24350 c3 -5 8 -10 11 -10 2 0 4 5 4 10 0 6 -5 10 -11 10 -5 0
-7 -4 -4 -10z"/>
<path d="M4596 24341 c-3 -5 2 -15 12 -22 16 -13 16 -13 2 5 -14 18 -13 19 3
13 11 -4 16 -3 12 3 -8 12 -22 13 -29 1z"/>
<path d="M4263 24325 c0 -8 4 -12 9 -9 5 3 6 10 3 15 -9 13 -12 11 -12 -6z"/>
<path d="M4279 24303 c-13 -16 -12 -17 4 -4 9 7 17 15 17 17 0 8 -8 3 -21 -13z"/>
<path d="M4580 24316 c0 -2 8 -10 18 -17 15 -13 16 -12 3 4 -13 16 -21 21 -21
13z"/>
<path d="M5623 23665 c0 -7 8 -10 19 -7 10 2 18 6 18 7 0 1 -8 5 -18 7 -11 3
-19 0 -19 -7z"/>
<path d="M4265 23640 c-4 -6 -11 -8 -16 -5 -5 3 -6 -1 -3 -9 8 -21 11 -20 24
4 11 20 6 29 -5 10z"/>
<path d="M4586 23641 c-3 -5 1 -14 8 -20 10 -9 16 -9 21 -1 4 6 1 9 -7 8 -7
-2 -12 3 -10 10 2 14 -4 16 -12 3z"/>
<path d="M5250 23646 c0 -2 8 -10 18 -17 15 -13 16 -12 3 4 -13 16 -21 21 -21
13z"/>
<path d="M5635 23630 c-17 -19 -17 -19 5 -15 26 5 40 15 21 15 -7 0 -9 5 -6
10 10 17 -1 11 -20 -10z"/>
<path d="M5650 23321 c-8 -6 -17 -8 -21 -5 -4 2 -10 0 -14 -5 -3 -6 6 -8 21
-5 15 3 23 1 20 -5 -4 -5 -3 -12 2 -15 4 -2 8 6 8 20 0 13 0 24 0 24 -1 0 -8
-4 -16 -9z"/>
<path d="M5270 23311 c12 -9 13 -11 1 -11 -8 0 -12 -1 -10 -2 2 -2 81 -1 174
2 l170 6 -157 2 c-86 1 -165 5 -175 8 -15 5 -15 4 -3 -5z"/>
<path d="M4183 23303 c15 -2 37 -2 50 0 12 2 0 4 -28 4 -27 0 -38 -2 -22 -4z"/>
<path d="M4586 23301 c-7 -11 22 -36 31 -28 3 4 -2 9 -11 13 -9 3 -13 10 -10
15 3 5 3 9 0 9 -3 0 -7 -4 -10 -9z"/>
<path d="M4690 23303 c133 -7 278 -7 273 0 -2 4 -77 6 -166 5 -89 -1 -137 -3
-107 -5z"/>
<path d="M4260 23280 c0 -5 5 -10 11 -10 5 0 7 5 4 10 -3 6 -8 10 -11 10 -2 0
-4 -4 -4 -10z"/>
<path d="M4284 22652 c8 -14 -11 -45 -23 -37 -4 2 -8 -2 -8 -9 0 -7 6 -13 14
-13 7 0 11 3 8 5 -3 3 3 14 12 24 14 15 14 21 3 31 -10 9 -11 9 -6 -1z"/>
<path d="M5615 22650 c-3 -6 1 -7 9 -4 18 7 21 14 7 14 -6 0 -13 -4 -16 -10z"/>
<path d="M5654 22641 c0 -11 4 -17 8 -15 4 3 8 12 8 20 0 8 -4 14 -8 14 -4 0
-8 -9 -8 -19z"/>
<path d="M4250 22640 c-9 -6 -10 -10 -3 -10 6 0 15 5 18 10 8 12 4 12 -15 0z"/>
<path d="M4596 22631 c-17 -19 -17 -19 0 -17 9 2 18 10 20 19 3 21 1 21 -20
-2z"/>
<path d="M4610 22600 c-12 -7 -10 -9 7 -7 12 0 19 5 17 9 -6 10 -6 10 -24 -2z"/>
<path d="M5630 22600 c0 -5 5 -10 11 -10 5 0 7 5 4 10 -3 6 -8 10 -11 10 -2 0
-4 -4 -4 -10z"/>
<path d="M4590 22310 c-12 -8 -10 -10 8 -10 13 0 20 4 17 10 -7 12 -6 12 -25
0z"/>
<path d="M5623 22305 c0 -7 8 -10 19 -7 10 2 18 6 18 7 0 1 -8 5 -18 7 -11 3
-19 0 -19 -7z"/>
<path d="M4265 22280 c-4 -6 -11 -8 -16 -5 -5 3 -6 -1 -3 -9 8 -21 11 -20 24
4 11 20 6 29 -5 10z"/>
<path d="M5250 22286 c0 -2 8 -10 18 -17 15 -13 16 -12 3 4 -13 16 -21 21 -21
13z"/>
<path d="M5635 22270 c-17 -19 -17 -19 5 -15 26 5 40 15 21 15 -7 0 -9 5 -6
10 10 17 -1 11 -20 -10z"/>
<path d="M4620 22259 c0 -5 5 -7 10 -4 6 3 10 8 10 11 0 2 -4 4 -10 4 -5 0
-10 -5 -10 -11z"/>
<path d="M4578 21943 c232 -2 612 -2 845 0 232 1 42 2 -423 2 -465 0 -655 -1
-422 -2z"/>
<path d="M4587 21629 c7 -7 15 -10 18 -7 3 3 -2 9 -12 12 -14 6 -15 5 -6 -5z"/>
<path d="M5625 21630 c3 -5 8 -10 11 -10 2 0 4 5 4 10 0 6 -5 10 -11 10 -5 0
-7 -4 -4 -10z"/>
<path d="M4263 21605 c0 -8 4 -12 9 -9 5 3 6 10 3 15 -9 13 -12 11 -12 -6z"/>
<path d="M4626 21607 c3 -10 9 -15 12 -12 3 3 0 11 -7 18 -10 9 -11 8 -5 -6z"/>
<path d="M4279 21583 c-13 -16 -12 -17 4 -4 9 7 17 15 17 17 0 8 -8 3 -21 -13z"/>
<path d="M4580 21596 c0 -2 8 -10 18 -17 15 -13 16 -12 3 4 -13 16 -21 21 -21
13z"/>
<path d="M4284 21292 c8 -14 -11 -45 -23 -37 -4 2 -8 -2 -8 -9 0 -7 6 -13 14
-13 7 0 11 3 8 5 -3 3 3 14 12 24 14 15 14 21 3 31 -10 9 -11 9 -6 -1z"/>
<path d="M4582 21283 c-13 -24 -4 -43 15 -36 12 5 14 3 8 -7 -5 -9 -4 -11 4
-6 14 9 5 26 -15 26 -12 0 -12 4 -4 20 6 11 8 20 6 20 -3 0 -9 -8 -14 -17z"/>
<path d="M5615 21290 c-3 -6 1 -7 9 -4 18 7 21 14 7 14 -6 0 -13 -4 -16 -10z"/>
<path d="M5654 21281 c0 -11 4 -17 8 -15 4 3 8 12 8 20 0 8 -4 14 -8 14 -4 0
-8 -9 -8 -19z"/>
<path d="M4250 21280 c-9 -6 -10 -10 -3 -10 6 0 15 5 18 10 8 12 4 12 -15 0z"/>
<path d="M5630 21240 c0 -5 5 -10 11 -10 5 0 7 5 4 10 -3 6 -8 10 -11 10 -2 0
-4 -4 -4 -10z"/>
<path d="M5259 20603 c-13 -16 -12 -17 4 -4 9 7 17 15 17 17 0 8 -8 3 -21 -13z"/>
<path d="M5650 20601 c-8 -6 -17 -8 -21 -5 -4 2 -10 0 -14 -5 -3 -6 6 -8 21
-5 15 3 23 1 20 -5 -4 -5 -3 -12 2 -15 4 -2 8 6 8 20 0 13 0 24 0 24 -1 0 -8
-4 -16 -9z"/>
<path d="M4595 20580 c2 -8 4 -18 4 -22 1 -5 6 -8 12 -8 8 0 7 5 -1 15 -12 14
6 16 173 13 102 -2 183 0 179 4 -4 4 -89 8 -188 10 -157 3 -181 1 -179 -12z"/>
<path d="M4183 20583 c15 -2 37 -2 50 0 12 2 0 4 -28 4 -27 0 -38 -2 -22 -4z"/>
<path d="M5358 20583 c45 -2 119 -2 165 0 45 1 8 3 -83 3 -91 0 -128 -2 -82
-3z"/>
<path d="M4260 20560 c0 -5 5 -10 11 -10 5 0 7 5 4 10 -3 6 -8 10 -11 10 -2 0
-4 -4 -4 -10z"/>
<path d="M4588 20263 c6 -2 9 -10 6 -15 -4 -7 -2 -8 4 -4 18 11 14 26 -5 25
-11 0 -13 -3 -5 -6z"/>
<path d="M5605 20261 c-3 -5 -2 -12 3 -15 5 -3 9 1 9 9 0 17 -3 19 -12 6z"/>
<path d="M5640 20260 c-9 -6 -10 -10 -3 -10 6 0 15 5 18 10 8 12 4 12 -15 0z"/>
<path d="M4273 20215 c0 -8 4 -12 9 -9 5 3 6 10 3 15 -9 13 -12 11 -12 -6z"/>
<path d="M5607 20216 c-4 -10 -1 -13 8 -9 8 3 12 9 9 14 -7 12 -11 11 -17 -5z"/>
<path d="M4578 19893 c232 -2 612 -2 845 0 232 1 42 2 -423 2 -465 0 -655 -1
-422 -2z"/>
<path d="M4250 19579 c0 -5 5 -7 10 -4 6 3 10 8 10 11 0 2 -4 4 -10 4 -5 0
-10 -5 -10 -11z"/>
<path d="M4586 19582 c6 -4 10 -16 9 -28 -1 -11 4 -21 11 -21 9 0 10 6 5 16
-5 9 -6 22 -4 29 3 7 -3 12 -14 12 -11 0 -14 -3 -7 -8z"/>
<path d="M4627 19583 c-4 -3 -7 -11 -7 -17 0 -6 5 -5 12 2 6 6 9 14 7 17 -3 3
-9 2 -12 -2z"/>
<path d="M5613 19556 c-10 -11 -9 -15 3 -20 24 -9 31 -7 14 4 -10 6 -11 10 -2
10 6 0 12 5 12 10 0 14 -13 12 -27 -4z"/>
<path d="M4278 19541 c5 -14 3 -14 -11 -2 -9 7 -17 11 -17 8 0 -2 6 -10 14
-16 12 -10 17 -8 25 7 7 14 7 19 -4 19 -8 0 -11 -7 -7 -16z"/>
<path d="M4587 19229 c7 -7 15 -10 18 -7 3 3 -2 9 -12 12 -14 6 -15 5 -6 -5z"/>
<path d="M5625 19230 c3 -5 8 -10 11 -10 2 0 4 5 4 10 0 6 -5 10 -11 10 -5 0
-7 -4 -4 -10z"/>
<path d="M4263 19205 c0 -8 4 -12 9 -9 5 3 6 10 3 15 -9 13 -12 11 -12 -6z"/>
<path d="M4626 19207 c3 -10 9 -15 12 -12 3 3 0 11 -7 18 -10 9 -11 8 -5 -6z"/>
<path d="M4279 19183 c-13 -16 -12 -17 4 -4 16 13 21 21 13 21 -2 0 -10 -8
-17 -17z"/>
<path d="M4580 19196 c0 -2 8 -10 18 -17 15 -13 16 -12 3 4 -13 16 -21 21 -21
13z"/>
<path d="M5623 18545 c0 -7 8 -10 19 -7 10 2 18 6 18 7 0 1 -8 5 -18 7 -11 3
-19 0 -19 -7z"/>
<path d="M4265 18520 c-4 -6 -11 -8 -16 -5 -5 3 -6 -1 -3 -9 8 -21 11 -20 24
4 11 20 6 29 -5 10z"/>
<path d="M4586 18521 c-3 -5 1 -14 8 -20 10 -9 16 -9 21 -1 4 6 1 9 -7 8 -7
-2 -12 3 -10 10 2 14 -4 16 -12 3z"/>
<path d="M5250 18526 c0 -2 8 -10 18 -17 15 -13 16 -12 3 4 -13 16 -21 21 -21
13z"/>
<path d="M5635 18510 c-17 -19 -17 -19 5 -15 26 5 40 15 21 15 -7 0 -9 5 -6
10 10 17 -1 11 -20 -10z"/>
<path d="M5259 18203 c-13 -16 -12 -17 4 -4 16 13 21 21 13 21 -2 0 -10 -8
-17 -17z"/>
<path d="M5650 18201 c-8 -6 -17 -8 -21 -5 -4 2 -10 0 -14 -5 -3 -6 6 -8 21
-5 15 3 23 1 20 -5 -4 -5 -3 -12 2 -15 4 -2 8 6 8 20 0 13 0 24 0 24 -1 0 -8
-4 -16 -9z"/>
<path d="M4595 18180 c2 -8 4 -18 4 -22 1 -5 6 -8 12 -8 8 0 7 5 -1 15 -12 14
6 16 173 13 102 -2 183 0 179 4 -4 4 -89 8 -188 10 -157 3 -181 1 -179 -12z"/>
<path d="M4183 18183 c15 -2 37 -2 50 0 12 2 0 4 -28 4 -27 0 -38 -2 -22 -4z"/>
<path d="M5358 18183 c45 -2 119 -2 165 0 45 1 8 3 -83 3 -91 0 -128 -2 -82
-3z"/>
<path d="M4260 18160 c0 -5 5 -10 11 -10 5 0 7 5 4 10 -3 6 -8 10 -11 10 -2 0
-4 -4 -4 -10z"/>
<path d="M4284 17532 c8 -14 -11 -45 -23 -37 -4 2 -8 -2 -8 -9 0 -7 6 -13 14
-13 7 0 11 3 8 5 -3 3 3 14 12 24 14 15 14 21 3 31 -10 9 -11 9 -6 -1z"/>
<path d="M4582 17523 c-13 -24 -4 -43 15 -36 12 5 14 3 8 -7 -5 -9 -4 -11 4
-6 14 9 5 26 -15 26 -12 0 -12 4 -4 20 6 11 8 20 6 20 -3 0 -9 -8 -14 -17z"/>
<path d="M5615 17530 c-3 -6 1 -7 9 -4 18 7 21 14 7 14 -6 0 -13 -4 -16 -10z"/>
<path d="M5654 17521 c0 -11 4 -17 8 -15 4 3 8 12 8 20 0 8 -4 14 -8 14 -4 0
-8 -9 -8 -19z"/>
<path d="M4250 17520 c-9 -6 -10 -10 -3 -10 6 0 15 5 18 10 8 12 4 12 -15 0z"/>
<path d="M5630 17480 c0 -5 5 -10 11 -10 5 0 7 5 4 10 -3 6 -8 10 -11 10 -2 0
-4 -4 -4 -10z"/>
<path d="M5623 17185 c0 -7 8 -10 19 -7 10 2 18 6 18 7 0 1 -8 5 -18 7 -11 3
-19 0 -19 -7z"/>
<path d="M4265 17160 c-4 -6 -11 -8 -16 -5 -5 3 -6 -1 -3 -9 8 -21 11 -20 24
4 11 20 6 29 -5 10z"/>
<path d="M4586 17161 c-3 -5 1 -14 8 -20 10 -9 16 -9 21 -1 4 6 1 9 -7 8 -7
-2 -12 3 -10 10 2 14 -4 16 -12 3z"/>
<path d="M5250 17166 c0 -2 8 -10 18 -17 15 -13 16 -12 3 4 -13 16 -21 21 -21
13z"/>
<path d="M5635 17150 c-17 -19 -17 -19 5 -15 26 5 40 15 21 15 -7 0 -9 5 -6
10 10 17 -1 11 -20 -10z"/>
<path d="M4578 16823 c232 -2 612 -2 845 0 232 1 42 2 -423 2 -465 0 -655 -1
-422 -2z"/>
<path d="M4587 16509 c7 -7 15 -10 18 -7 3 3 -2 9 -12 12 -14 6 -15 5 -6 -5z"/>
<path d="M5625 16510 c3 -5 8 -10 11 -10 2 0 4 5 4 10 0 6 -5 10 -11 10 -5 0
-7 -4 -4 -10z"/>
<path d="M4263 16485 c0 -8 4 -12 9 -9 5 3 6 10 3 15 -9 13 -12 11 -12 -6z"/>
<path d="M4626 16487 c3 -10 9 -15 12 -12 3 3 0 11 -7 18 -10 9 -11 8 -5 -6z"/>
<path d="M4279 16463 c-13 -16 -12 -17 4 -4 9 7 17 15 17 17 0 8 -8 3 -21 -13z"/>
<path d="M4580 16476 c0 -2 8 -10 18 -17 15 -13 16 -12 3 4 -13 16 -21 21 -21
13z"/>
<path d="M4284 16172 c8 -14 -11 -45 -23 -37 -4 2 -8 -2 -8 -9 0 -7 6 -13 14
-13 7 0 11 3 8 5 -3 3 3 14 12 24 14 15 14 21 3 31 -10 9 -11 9 -6 -1z"/>
<path d="M4582 16163 c-13 -24 -4 -43 15 -36 12 5 14 3 8 -7 -5 -9 -4 -11 4
-6 14 9 5 26 -15 26 -12 0 -12 4 -4 20 6 11 8 20 6 20 -3 0 -9 -8 -14 -17z"/>
<path d="M5615 16170 c-3 -6 1 -7 9 -4 18 7 21 14 7 14 -6 0 -13 -4 -16 -10z"/>
<path d="M5654 16161 c0 -11 4 -17 8 -15 4 3 8 12 8 20 0 8 -4 14 -8 14 -4 0
-8 -9 -8 -19z"/>
<path d="M4250 16160 c-9 -6 -10 -10 -3 -10 6 0 15 5 18 10 8 12 4 12 -15 0z"/>
<path d="M5630 16120 c0 -5 5 -10 11 -10 5 0 7 5 4 10 -3 6 -8 10 -11 10 -2 0
-4 -4 -4 -10z"/>
<path d="M5630 15486 c0 -2 9 -6 20 -9 11 -3 18 -1 14 4 -5 9 -34 13 -34 5z"/>
<path d="M5613 15465 c0 -8 4 -12 9 -9 5 3 6 10 3 15 -9 13 -12 11 -12 -6z"/>
<path d="M4595 15459 c-11 -16 -1 -19 13 -3 7 8 8 14 3 14 -5 0 -13 -5 -16
-11z"/>
<path d="M4261 15444 c0 -11 3 -14 6 -6 3 7 2 16 -1 19 -3 4 -6 -2 -5 -13z"/>
<path d="M5634 15445 c-4 -8 -10 -13 -14 -10 -5 3 -11 1 -14 -4 -4 -5 1 -8 10
-7 8 1 19 8 24 15 4 8 13 10 20 6 9 -5 11 -4 6 3 -10 17 -26 15 -32 -3z"/>
<path d="M4588 15143 c6 -2 9 -10 6 -15 -4 -7 -2 -8 4 -4 18 11 14 26 -5 25
-11 0 -13 -3 -5 -6z"/>
<path d="M5605 15141 c-3 -5 -2 -12 3 -15 5 -3 9 1 9 9 0 17 -3 19 -12 6z"/>
<path d="M5640 15140 c-9 -6 -10 -10 -3 -10 6 0 15 5 18 10 8 12 4 12 -15 0z"/>
<path d="M4273 15095 c0 -8 4 -12 9 -9 5 3 6 10 3 15 -9 13 -12 11 -12 -6z"/>
<path d="M5607 15096 c-4 -10 -1 -13 8 -9 8 3 12 9 9 14 -7 12 -11 11 -17 -5z"/>
<path d="M4578 14773 c232 -2 612 -2 845 0 232 1 42 2 -423 2 -465 0 -655 -1
-422 -2z"/>
<path d="M4250 14459 c0 -5 5 -7 10 -4 6 3 10 8 10 11 0 2 -4 4 -10 4 -5 0
-10 -5 -10 -11z"/>
<path d="M4586 14462 c6 -4 10 -16 9 -28 -1 -11 4 -21 11 -21 9 0 10 6 5 16
-5 9 -6 22 -4 29 3 7 -3 12 -14 12 -11 0 -14 -3 -7 -8z"/>
<path d="M4627 14463 c-4 -3 -7 -11 -7 -17 0 -6 5 -5 12 2 6 6 9 14 7 17 -3 3
-9 2 -12 -2z"/>
<path d="M5613 14436 c-10 -11 -9 -15 3 -20 24 -9 31 -7 14 4 -10 6 -11 10 -2
10 6 0 12 5 12 10 0 14 -13 12 -27 -4z"/>
<path d="M4278 14421 c5 -14 3 -14 -11 -2 -9 7 -17 11 -17 8 0 -2 6 -10 14
-16 12 -10 17 -8 25 7 7 14 7 19 -4 19 -8 0 -11 -7 -7 -16z"/>
<path d="M5630 14126 c0 -2 9 -6 20 -9 11 -3 18 -1 14 4 -5 9 -34 13 -34 5z"/>
<path d="M5613 14105 c0 -8 4 -12 9 -9 5 3 6 10 3 15 -9 13 -12 11 -12 -6z"/>
<path d="M4595 14099 c-11 -16 -1 -19 13 -3 7 8 8 14 3 14 -5 0 -13 -5 -16
-11z"/>
<path d="M4261 14084 c0 -11 3 -14 6 -6 3 7 2 16 -1 19 -3 4 -6 -2 -5 -13z"/>
<path d="M5634 14085 c-4 -8 -10 -13 -14 -10 -5 3 -11 1 -14 -4 -4 -5 1 -8 10
-7 8 1 19 8 24 15 4 8 13 10 20 6 9 -5 11 -4 6 3 -10 17 -26 15 -32 -3z"/>
<path d="M5610 13441 c0 -6 4 -13 10 -16 6 -3 7 1 4 9 -7 18 -14 21 -14 7z"/>
<path d="M5646 13442 c-3 -5 1 -9 9 -9 8 0 12 4 9 9 -3 4 -7 8 -9 8 -2 0 -6
-4 -9 -8z"/>
<path d="M4278 13421 c-16 -18 -15 -20 1 -18 9 0 17 9 17 19 0 10 -1 18 -1 18
0 0 -8 -9 -17 -19z"/>
<path d="M4964 13430 c-5 -5 -84 -11 -174 -13 l-165 -3 166 -2 c138 -2 169 1
179 13 14 17 10 21 -6 5z"/>
<path d="M4178 13413 c12 -2 32 -2 45 0 12 2 2 4 -23 4 -25 0 -35 -2 -22 -4z"/>
<path d="M4588 13413 c6 -2 9 -10 6 -15 -4 -7 -2 -8 5 -4 13 9 5 26 -12 25 -9
0 -8 -2 1 -6z"/>
<path d="M5434 13413 c136 -3 161 -6 173 -21 13 -15 13 -15 3 6 -11 22 -14 22
-173 20 l-162 -2 159 -3z"/>
<path d="M5630 13410 c-7 -4 -5 -12 7 -21 10 -7 15 -9 11 -5 -4 5 0 14 8 21
15 11 15 12 1 12 -9 0 -21 -3 -27 -7z"/>
<path d="M4250 13099 c0 -5 5 -7 10 -4 6 3 10 8 10 11 0 2 -4 4 -10 4 -5 0
-10 -5 -10 -11z"/>
<path d="M4586 13102 c6 -4 10 -16 9 -28 -1 -11 4 -21 11 -21 9 0 10 6 5 16
-5 9 -6 22 -4 29 3 7 -3 12 -14 12 -11 0 -14 -3 -7 -8z"/>
<path d="M4627 13103 c-4 -3 -7 -11 -7 -17 0 -6 5 -5 12 2 6 6 9 14 7 17 -3 3
-9 2 -12 -2z"/>
<path d="M5613 13076 c-10 -11 -9 -15 3 -20 24 -9 31 -7 14 4 -10 6 -11 10 -2
10 6 0 12 5 12 10 0 14 -13 12 -27 -4z"/>
<path d="M4278 13061 c5 -14 3 -14 -11 -2 -9 7 -17 11 -17 8 0 -2 6 -10 14
-16 12 -10 17 -8 25 7 7 14 7 19 -4 19 -8 0 -11 -7 -7 -16z"/>
<path d="M4588 12423 c6 -2 9 -10 6 -15 -4 -7 -2 -8 4 -4 18 11 14 26 -5 25
-11 0 -13 -3 -5 -6z"/>
<path d="M5605 12421 c-3 -5 -2 -12 3 -15 5 -3 9 1 9 9 0 17 -3 19 -12 6z"/>
<path d="M5640 12420 c-9 -6 -10 -10 -3 -10 6 0 15 5 18 10 8 12 4 12 -15 0z"/>
<path d="M4273 12375 c0 -8 4 -12 9 -9 5 3 6 10 3 15 -9 13 -12 11 -12 -6z"/>
<path d="M5607 12376 c-4 -10 -1 -13 8 -9 8 3 12 9 9 14 -7 12 -11 11 -17 -5z"/>
<path d="M5610 12081 c0 -6 4 -13 10 -16 6 -3 7 1 4 9 -7 18 -14 21 -14 7z"/>
<path d="M5646 12082 c-3 -5 1 -9 9 -9 8 0 12 4 9 9 -3 4 -7 8 -9 8 -2 0 -6
-4 -9 -8z"/>
<path d="M4278 12061 c-16 -18 -15 -20 1 -18 9 0 17 9 17 19 0 10 -1 18 -1 18
0 0 -8 -9 -17 -19z"/>
<path d="M4964 12070 c-5 -5 -84 -11 -174 -13 l-165 -3 166 -2 c138 -2 169 1
179 13 14 17 10 21 -6 5z"/>
<path d="M4178 12053 c12 -2 32 -2 45 0 12 2 2 4 -23 4 -25 0 -35 -2 -22 -4z"/>
<path d="M4588 12053 c6 -2 9 -10 6 -15 -4 -7 -2 -8 5 -4 13 9 5 26 -12 25 -9
0 -8 -2 1 -6z"/>
<path d="M5434 12053 c136 -3 161 -6 173 -21 13 -15 13 -15 3 6 -11 22 -14 22
-173 20 l-162 -2 159 -3z"/>
<path d="M5630 12050 c-7 -4 -5 -12 7 -21 10 -7 15 -9 11 -5 -4 5 0 14 8 21
15 11 15 12 1 12 -9 0 -21 -3 -27 -7z"/>
<path d="M5630 11406 c0 -2 9 -6 20 -9 11 -3 18 -1 14 4 -5 9 -34 13 -34 5z"/>
<path d="M5613 11385 c0 -8 4 -12 9 -9 5 3 6 10 3 15 -9 13 -12 11 -12 -6z"/>
<path d="M4595 11379 c-11 -16 -1 -19 13 -3 7 8 8 14 3 14 -5 0 -13 -5 -16
-11z"/>
<path d="M4261 11364 c0 -11 3 -14 6 -6 3 7 2 16 -1 19 -3 4 -6 -2 -5 -13z"/>
<path d="M5634 11365 c-4 -8 -10 -13 -14 -10 -5 3 -11 1 -14 -4 -4 -5 1 -8 10
-7 8 1 19 8 24 15 4 8 13 10 20 6 9 -5 11 -4 6 3 -10 17 -26 15 -32 -3z"/>
<path d="M4588 11063 c6 -2 9 -10 6 -15 -4 -7 -2 -8 4 -4 18 11 14 26 -5 25
-11 0 -13 -3 -5 -6z"/>
<path d="M5605 11061 c-3 -5 -2 -12 3 -15 5 -3 9 1 9 9 0 17 -3 19 -12 6z"/>
<path d="M5640 11060 c-9 -6 -10 -10 -3 -10 6 0 15 5 18 10 8 12 4 12 -15 0z"/>
<path d="M4273 11015 c0 -8 4 -12 9 -9 5 3 6 10 3 15 -9 13 -12 11 -12 -6z"/>
<path d="M5607 11016 c-4 -10 -1 -13 8 -9 8 3 12 9 9 14 -7 12 -11 11 -17 -5z"/>
<path d="M4578 10693 c232 -2 612 -2 845 0 232 1 42 2 -423 2 -465 0 -655 -1
-422 -2z"/>
<path d="M5259 10363 c-13 -16 -12 -17 4 -4 16 13 21 21 13 21 -2 0 -10 -8
-17 -17z"/>
<path d="M5650 10361 c-8 -6 -17 -8 -21 -5 -4 2 -10 0 -14 -5 -3 -6 6 -8 21
-5 15 3 23 1 20 -5 -4 -5 -3 -12 2 -15 4 -2 8 6 8 20 0 13 0 24 0 24 -1 0 -8
-4 -16 -9z"/>
<path d="M4595 10340 c2 -8 4 -18 4 -22 1 -5 6 -8 12 -8 8 0 7 5 -1 15 -12 14
6 16 173 13 102 -2 183 0 179 4 -4 4 -89 8 -188 10 -157 3 -181 1 -179 -12z"/>
<path d="M4183 10343 c15 -2 37 -2 50 0 12 2 0 4 -28 4 -27 0 -38 -2 -22 -4z"/>
<path d="M5358 10343 c45 -2 119 -2 165 0 45 1 8 3 -83 3 -91 0 -128 -2 -82
-3z"/>
<path d="M4260 10320 c0 -5 5 -10 11 -10 5 0 7 5 4 10 -3 6 -8 10 -11 10 -2 0
-4 -4 -4 -10z"/>
<path d="M4587 10029 c7 -7 15 -10 18 -7 3 3 -2 9 -12 12 -14 6 -15 5 -6 -5z"/>
<path d="M5625 10030 c3 -5 8 -10 11 -10 2 0 4 5 4 10 0 6 -5 10 -11 10 -5 0
-7 -4 -4 -10z"/>
<path d="M4263 10005 c0 -8 4 -12 9 -9 5 3 6 10 3 15 -9 13 -12 11 -12 -6z"/>
<path d="M4626 10007 c3 -10 9 -15 12 -12 3 3 0 11 -7 18 -10 9 -11 8 -5 -6z"/>
<path d="M4279 9983 c-13 -16 -12 -17 4 -4 9 7 17 15 17 17 0 8 -8 3 -21 -13z"/>
<path d="M4580 9996 c0 -2 8 -10 18 -17 15 -13 16 -12 3 4 -13 16 -21 21 -21
13z"/>
<path d="M5623 9345 c0 -7 8 -10 19 -7 10 2 18 6 18 7 0 1 -8 5 -18 7 -11 3
-19 0 -19 -7z"/>
<path d="M4265 9320 c-4 -6 -11 -8 -16 -5 -5 3 -6 -1 -3 -9 8 -21 11 -20 24 4
11 20 6 29 -5 10z"/>
<path d="M4586 9321 c-3 -5 1 -14 8 -20 10 -9 16 -9 21 -1 4 6 1 9 -7 8 -7 -2
-12 3 -10 10 2 14 -4 16 -12 3z"/>
<path d="M5250 9326 c0 -2 8 -10 18 -17 15 -13 16 -12 3 4 -13 16 -21 21 -21
13z"/>
<path d="M5635 9310 c-17 -19 -17 -19 5 -15 26 5 40 15 21 15 -7 0 -9 5 -6 10
10 17 -1 11 -20 -10z"/>
<path d="M5259 9003 c-13 -16 -12 -17 4 -4 9 7 17 15 17 17 0 8 -8 3 -21 -13z"/>
<path d="M5650 9001 c-8 -6 -17 -8 -21 -5 -4 2 -10 0 -14 -5 -3 -6 6 -8 21 -5
15 3 23 1 20 -5 -4 -5 -3 -12 2 -15 4 -2 8 6 8 20 0 13 0 24 0 24 -1 0 -8 -4
-16 -9z"/>
<path d="M4595 8980 c2 -8 4 -18 4 -22 1 -5 6 -8 12 -8 8 0 7 5 -1 15 -12 14
6 16 173 13 102 -2 183 0 179 4 -4 4 -89 8 -188 10 -157 3 -181 1 -179 -12z"/>
<path d="M4183 8983 c15 -2 37 -2 50 0 12 2 0 4 -28 4 -27 0 -38 -2 -22 -4z"/>
<path d="M5358 8983 c45 -2 119 -2 165 0 45 1 8 3 -83 3 -91 0 -128 -2 -82 -3z"/>
<path d="M4260 8960 c0 -5 5 -10 11 -10 5 0 7 5 4 10 -3 6 -8 10 -11 10 -2 0
-4 -4 -4 -10z"/>
<path d="M4284 8332 c8 -14 -11 -45 -23 -37 -4 2 -8 -2 -8 -9 0 -7 6 -13 14
-13 7 0 11 3 8 5 -3 3 3 14 12 24 14 15 14 21 3 31 -10 9 -11 9 -6 -1z"/>
<path d="M4582 8323 c-13 -24 -4 -43 15 -36 12 5 14 3 8 -7 -5 -9 -4 -11 4 -6
14 9 5 26 -15 26 -12 0 -12 4 -4 20 6 11 8 20 6 20 -3 0 -9 -8 -14 -17z"/>
<path d="M5615 8330 c-3 -6 1 -7 9 -4 18 7 21 14 7 14 -6 0 -13 -4 -16 -10z"/>
<path d="M5654 8321 c0 -11 4 -17 8 -15 4 3 8 12 8 20 0 8 -4 14 -8 14 -4 0
-8 -9 -8 -19z"/>
<path d="M4250 8320 c-9 -6 -10 -10 -3 -10 6 0 15 5 18 10 8 12 4 12 -15 0z"/>
<path d="M5630 8280 c0 -5 5 -10 11 -10 5 0 7 5 4 10 -3 6 -8 10 -11 10 -2 0
-4 -4 -4 -10z"/>
<path d="M5623 7985 c0 -7 8 -10 19 -7 10 2 18 6 18 7 0 1 -8 5 -18 7 -11 3
-19 0 -19 -7z"/>
<path d="M4265 7960 c-4 -6 -11 -8 -16 -5 -5 3 -6 -1 -3 -9 8 -21 11 -20 24 4
11 20 6 29 -5 10z"/>
<path d="M4586 7961 c-3 -5 1 -14 8 -20 10 -9 16 -9 21 -1 4 6 1 9 -7 8 -7 -2
-12 3 -10 10 2 14 -4 16 -12 3z"/>
<path d="M5250 7966 c0 -2 8 -10 18 -17 15 -13 16 -12 3 4 -13 16 -21 21 -21
13z"/>
<path d="M5635 7950 c-17 -19 -17 -19 5 -15 26 5 40 15 21 15 -7 0 -9 5 -6 10
10 17 -1 11 -20 -10z"/>
<path d="M4578 7623 c232 -2 612 -2 845 0 232 1 42 2 -423 2 -465 0 -655 -1
-422 -2z"/>
<path d="M4587 7309 c7 -7 15 -10 18 -7 3 3 -2 9 -12 12 -14 6 -15 5 -6 -5z"/>
<path d="M5625 7310 c3 -5 8 -10 11 -10 2 0 4 5 4 10 0 6 -5 10 -11 10 -5 0
-7 -4 -4 -10z"/>
<path d="M4263 7285 c0 -8 4 -12 9 -9 5 3 6 10 3 15 -9 13 -12 11 -12 -6z"/>
<path d="M4626 7287 c3 -10 9 -15 12 -12 3 3 0 11 -7 18 -10 9 -11 8 -5 -6z"/>
<path d="M4279 7263 c-13 -16 -12 -17 4 -4 9 7 17 15 17 17 0 8 -8 3 -21 -13z"/>
<path d="M4580 7276 c0 -2 8 -10 18 -17 15 -13 16 -12 3 4 -13 16 -21 21 -21
13z"/>
<path d="M4284 6972 c8 -14 -11 -45 -23 -37 -4 2 -8 -2 -8 -9 0 -7 6 -13 14
-13 7 0 11 3 8 5 -3 3 3 14 12 24 14 15 14 21 3 31 -10 9 -11 9 -6 -1z"/>
<path d="M4582 6963 c-13 -24 -4 -43 15 -36 12 5 14 3 8 -7 -5 -9 -4 -11 4 -6
14 9 5 26 -15 26 -12 0 -12 4 -4 20 6 11 8 20 6 20 -3 0 -9 -8 -14 -17z"/>
<path d="M5615 6970 c-3 -6 1 -7 9 -4 18 7 21 14 7 14 -6 0 -13 -4 -16 -10z"/>
<path d="M5654 6961 c0 -11 4 -17 8 -15 4 3 8 12 8 20 0 8 -4 14 -8 14 -4 0
-8 -9 -8 -19z"/>
<path d="M4250 6960 c-9 -6 -10 -10 -3 -10 6 0 15 5 18 10 8 12 4 12 -15 0z"/>
<path d="M5630 6920 c0 -5 5 -10 11 -10 5 0 7 5 4 10 -3 6 -8 10 -11 10 -2 0
-4 -4 -4 -10z"/>
<path d="M4578 6613 c232 -2 612 -2 845 0 232 1 42 2 -423 2 -465 0 -655 -1
-422 -2z"/>
<path d="M5259 6283 c-13 -16 -12 -17 4 -4 16 13 21 21 13 21 -2 0 -10 -8 -17
-17z"/>
<path d="M5650 6281 c-8 -6 -17 -8 -21 -5 -4 2 -10 0 -14 -5 -3 -6 6 -8 21 -5
15 3 23 1 20 -5 -4 -5 -3 -12 2 -15 4 -2 8 6 8 20 0 13 0 24 0 24 -1 0 -8 -4
-16 -9z"/>
<path d="M4595 6260 c2 -8 4 -18 4 -22 1 -5 6 -8 12 -8 8 0 7 5 -1 15 -12 14
6 16 173 13 102 -2 183 0 179 4 -4 4 -89 8 -188 10 -157 3 -181 1 -179 -12z"/>
<path d="M4183 6263 c15 -2 37 -2 50 0 12 2 0 4 -28 4 -27 0 -38 -2 -22 -4z"/>
<path d="M5358 6263 c45 -2 119 -2 165 0 45 1 8 3 -83 3 -91 0 -128 -2 -82 -3z"/>
<path d="M4260 6240 c0 -5 5 -10 11 -10 5 0 7 5 4 10 -3 6 -8 10 -11 10 -2 0
-4 -4 -4 -10z"/>
<path d="M4587 5949 c7 -7 15 -10 18 -7 3 3 -2 9 -12 12 -14 6 -15 5 -6 -5z"/>
<path d="M5625 5950 c3 -5 8 -10 11 -10 2 0 4 5 4 10 0 6 -5 10 -11 10 -5 0
-7 -4 -4 -10z"/>
<path d="M4263 5925 c0 -8 4 -12 9 -9 5 3 6 10 3 15 -9 13 -12 11 -12 -6z"/>
<path d="M5617 5909 c7 -7 15 -10 18 -7 3 3 -2 9 -12 12 -14 6 -15 5 -6 -5z"/>
<path d="M5655 5910 c-3 -5 -1 -10 4 -10 6 0 11 5 11 10 0 6 -2 10 -4 10 -3 0
-8 -4 -11 -10z"/>
<path d="M4578 5573 c232 -2 612 -2 845 0 232 1 42 2 -423 2 -465 0 -655 -1
-422 -2z"/>
<path d="M4269 5266 c-5 -23 -2 -46 5 -48 12 -4 15 41 4 48 -4 3 -8 3 -9 0z"/>
<path d="M4599 5265 c-6 -26 -1 -49 11 -53 9 -2 11 0 5 5 -5 4 -10 15 -10 23
0 8 5 18 10 22 6 5 5 8 -2 8 -7 0 -13 -2 -14 -5z"/>
<path d="M5634 5249 c-3 -6 -2 -15 3 -20 5 -5 9 -1 9 11 0 23 -2 24 -12 9z"/>
<path d="M5630 4926 c0 -2 9 -6 20 -9 11 -3 18 -1 14 4 -5 9 -34 13 -34 5z"/>
<path d="M5613 4905 c0 -8 4 -12 9 -9 5 3 6 10 3 15 -9 13 -12 11 -12 -6z"/>
<path d="M4595 4899 c-11 -16 -1 -19 13 -3 7 8 8 14 3 14 -5 0 -13 -5 -16 -11z"/>
<path d="M4261 4884 c0 -11 3 -14 6 -6 3 7 2 16 -1 19 -3 4 -6 -2 -5 -13z"/>
<path d="M5634 4885 c-4 -8 -10 -13 -14 -10 -5 3 -11 1 -14 -4 -4 -5 1 -8 10
-7 8 1 19 8 24 15 4 8 13 10 20 6 9 -5 11 -4 6 3 -10 17 -26 15 -32 -3z"/>
<path d="M5610 4241 c0 -6 4 -13 10 -16 6 -3 7 1 4 9 -7 18 -14 21 -14 7z"/>
<path d="M5646 4242 c-3 -5 1 -9 9 -9 8 0 12 4 9 9 -3 4 -7 8 -9 8 -2 0 -6 -4
-9 -8z"/>
<path d="M4278 4221 c-16 -18 -15 -20 1 -18 9 0 17 9 17 19 0 10 -1 18 -1 18
0 0 -8 -9 -17 -19z"/>
<path d="M4964 4230 c-5 -5 -84 -11 -174 -13 l-165 -3 166 -2 c138 -2 169 1
179 13 14 17 10 21 -6 5z"/>
<path d="M4178 4213 c12 -2 32 -2 45 0 12 2 2 4 -23 4 -25 0 -35 -2 -22 -4z"/>
<path d="M4588 4213 c6 -2 9 -10 6 -15 -4 -7 -2 -8 5 -4 13 9 5 26 -12 25 -9
0 -8 -2 1 -6z"/>
<path d="M5434 4213 c136 -3 161 -6 173 -21 13 -15 13 -15 3 6 -11 22 -14 22
-173 20 l-162 -2 159 -3z"/>
<path d="M5630 4210 c-7 -4 -5 -12 7 -21 10 -7 15 -9 11 -5 -4 5 0 14 8 21 15
11 15 12 1 12 -9 0 -21 -3 -27 -7z"/>
<path d="M4250 3899 c0 -5 5 -7 10 -4 6 3 10 8 10 11 0 2 -4 4 -10 4 -5 0 -10
-5 -10 -11z"/>
<path d="M4586 3902 c6 -4 10 -16 9 -28 -1 -11 4 -21 11 -21 9 0 10 6 5 16 -5
9 -6 22 -4 29 3 7 -3 12 -14 12 -11 0 -14 -3 -7 -8z"/>
<path d="M4627 3903 c-4 -3 -7 -11 -7 -17 0 -6 5 -5 12 2 6 6 9 14 7 17 -3 3
-9 2 -12 -2z"/>
<path d="M5613 3876 c-10 -11 -9 -15 3 -20 24 -9 31 -7 14 4 -10 6 -11 10 -2
10 6 0 12 5 12 10 0 14 -13 12 -27 -4z"/>
<path d="M4278 3861 c5 -14 3 -14 -11 -2 -9 7 -17 11 -17 8 0 -2 6 -10 14 -16
12 -10 17 -8 25 7 7 14 7 19 -4 19 -8 0 -11 -7 -7 -16z"/>
<path d="M4588 3223 c6 -2 9 -10 6 -15 -4 -7 -2 -8 4 -4 18 11 14 26 -5 25
-11 0 -13 -3 -5 -6z"/>
<path d="M5605 3221 c-3 -5 -2 -12 3 -15 5 -3 9 1 9 9 0 17 -3 19 -12 6z"/>
<path d="M5640 3220 c-9 -6 -10 -10 -3 -10 6 0 15 5 18 10 8 12 4 12 -15 0z"/>
<path d="M4273 3175 c0 -8 4 -12 9 -9 5 3 6 10 3 15 -9 13 -12 11 -12 -6z"/>
<path d="M5607 3176 c-4 -10 -1 -13 8 -9 8 3 12 9 9 14 -7 12 -11 11 -17 -5z"/>
<path d="M4265 2879 c-4 -6 -5 -12 -2 -15 2 -3 7 2 10 11 7 17 1 20 -8 4z"/>
<path d="M4631 2874 c0 -11 3 -14 6 -6 3 7 2 16 -1 19 -3 4 -6 -2 -5 -13z"/>
<path d="M5655 2880 c6 -10 4 -12 -11 -6 -15 6 -17 5 -6 -5 9 -9 15 -10 23 -2
8 8 7 13 -2 18 -8 6 -10 4 -4 -5z"/>
<path d="M5613 2855 c0 -8 4 -12 9 -9 5 3 6 10 3 15 -9 13 -12 11 -12 -6z"/>
<path d="M5645 2840 c-16 -7 -17 -9 -3 -9 9 -1 20 4 23 9 7 11 7 11 -20 0z"/>
<path d="M9627 58560 c-14 -53 -182 -50 2559 -50 l2534 0 -5 -22 c-3 -13 -61
-365 -130 -783 -69 -418 -127 -770 -130 -782 -5 -23 -5 -23 115 -23 l120 0 0
-12449 c0 -11491 1 -12451 16 -12466 9 -9 23 -14 31 -11 8 3 17 6 19 6 2 0 4
5607 4 12460 l0 12460 120 0 c120 0 120 0 120 24 0 22 -243 1513 -255 1564
l-5 22 814 0 c448 0 821 3 830 6 10 4 16 18 16 35 l0 29 -3384 0 -3384 0 -5
-20z"/>
<path d="M12126 31184 c-221 -53 -366 -241 -422 -544 -21 -120 -29 -373 -15
-503 13 -121 48 -252 87 -330 32 -61 119 -155 184 -197 101 -65 260 -94 385
-71 287 53 468 364 400 686 -57 271 -305 439 -567 384 -90 -19 -158 -58 -232
-131 l-69 -69 7 96 c10 139 31 229 76 321 50 103 123 175 200 198 172 51 311
-31 360 -213 l11 -43 50 6 c27 3 72 9 99 12 28 3 50 9 50 13 0 24 -34 130 -56
173 -33 64 -115 147 -174 176 -108 51 -253 65 -374 36z m258 -778 c67 -33 118
-90 148 -165 18 -46 22 -76 22 -171 0 -149 -21 -209 -104 -292 -45 -45 -69
-60 -115 -74 -194 -56 -371 70 -415 294 -32 160 28 319 148 394 90 56 219 61
316 14z"/>
<path d="M14001 31189 c-129 -25 -246 -117 -314 -247 -142 -270 -143 -871 -3
-1150 83 -164 206 -246 391 -259 378 -26 575 261 575 838 0 413 -108 684 -312
779 -101 47 -223 62 -337 39z m234 -187 c57 -29 120 -98 149 -162 47 -104 60
-210 60 -480 0 -346 -28 -477 -127 -578 -66 -69 -108 -87 -202 -87 -94 0 -136
18 -202 87 -99 102 -128 233 -127 578 0 212 3 258 22 344 50 232 149 331 322
322 40 -2 80 -11 105 -24z"/>
<path d="M15281 31189 c-129 -25 -246 -117 -314 -247 -142 -270 -143 -871 -3
-1150 83 -164 206 -246 391 -259 378 -26 575 261 575 838 0 413 -108 684 -312
779 -101 47 -223 62 -337 39z m234 -187 c57 -29 120 -98 149 -162 47 -104 60
-210 60 -480 0 -346 -28 -477 -127 -578 -66 -69 -108 -87 -202 -87 -94 0 -136
18 -202 87 -99 102 -128 233 -127 578 0 212 3 258 22 344 50 232 149 331 322
322 40 -2 80 -11 105 -24z"/>
<path d="M20530 30140 l0 -910 675 0 675 0 0 105 0 105 -555 0 -555 0 0 310 0
310 500 0 500 0 0 105 0 105 -500 0 -500 0 0 285 0 285 535 0 535 0 0 105 0
105 -655 0 -655 0 0 -910z"/>
<path d="M26420 30920 l0 -130 110 0 110 0 0 130 0 130 -110 0 -110 0 0 -130z"/>
<path d="M33200 30140 l0 -910 110 0 110 0 0 910 0 910 -110 0 -110 0 0 -910z"/>
<path d="M33760 30140 l0 -910 110 0 110 0 0 910 0 910 -110 0 -110 0 0 -910z"/>
<path d="M23618 30942 l-108 -65 0 -163 0 -164 -85 0 -85 0 0 -85 0 -85 85 0
85 0 0 -447 c0 -247 5 -477 10 -512 13 -92 50 -148 125 -186 55 -28 65 -30
174 -30 64 0 129 4 144 8 24 7 28 12 23 35 -3 15 -10 59 -16 97 l-11 70 -84 0
c-79 0 -86 2 -112 28 l-28 27 -3 455 -3 455 116 0 115 0 0 85 0 85 -115 0
-115 0 -2 228 -3 228 -107 -64z"/>
<path d="M16610 30745 c-73 -21 -153 -70 -201 -124 l-39 -44 0 82 0 81 -90 0
-90 0 0 -590 0 -590 100 0 100 0 0 348 c0 360 7 442 42 524 71 165 326 214
415 80 39 -58 43 -114 43 -542 l0 -410 99 0 100 0 3 403 c3 352 6 408 21 448
25 63 70 115 131 147 43 22 64 27 133 27 74 0 85 -3 125 -30 84 -59 83 -50 86
-552 l3 -443 99 0 100 0 0 433 c0 270 -4 456 -11 492 -22 121 -99 216 -202
252 -72 25 -223 25 -295 0 -63 -22 -144 -82 -189 -138 l-32 -40 -20 39 c-27
53 -101 117 -159 137 -67 24 -204 29 -272 10z"/>
<path d="M24550 30564 c-215 -46 -381 -213 -441 -441 -26 -102 -35 -275 -20
-383 38 -258 171 -428 398 -507 70 -24 92 -27 218 -27 161 -1 236 16 340 79
75 45 97 66 150 137 41 55 104 192 93 203 -5 5 -41 11 -165 29 l-43 6 -35 -70
c-66 -131 -160 -197 -298 -207 -171 -13 -326 74 -393 222 -23 50 -53 168 -54
208 0 16 30 17 501 17 l502 0 -6 113 c-11 208 -69 358 -184 473 -137 137 -353
194 -563 148z m271 -184 c142 -45 228 -155 254 -327 l7 -43 -387 0 -387 0 7
47 c37 250 269 398 506 323z"/>
<path d="M25990 30571 c-74 -24 -123 -67 -184 -161 l-36 -55 0 98 0 97 -95 0
-95 0 0 -660 0 -660 110 0 110 0 0 384 c0 484 12 571 92 662 64 73 149 91 259
54 34 -12 62 -20 64 -18 1 2 18 46 38 98 42 109 44 104 -52 141 -60 23 -171
34 -211 20z"/>
<path d="M27385 30565 c-86 -19 -141 -42 -218 -93 -156 -102 -241 -276 -254
-523 -23 -444 192 -726 571 -746 129 -7 222 12 335 68 149 73 247 196 293 366
29 107 32 385 5 483 -63 236 -229 399 -449 444 -92 19 -200 19 -283 1z m256
-185 c191 -59 290 -250 276 -530 -12 -248 -104 -397 -278 -451 -198 -62 -394
37 -469 237 -51 139 -53 355 -3 502 67 200 273 305 474 242z"/>
<path d="M28810 30571 c-74 -24 -123 -67 -184 -161 l-36 -55 0 98 0 97 -95 0
-95 0 0 -660 0 -660 110 0 110 0 0 384 c0 484 12 571 92 662 64 73 149 91 259
54 34 -12 62 -20 64 -18 1 2 18 46 38 98 42 109 44 104 -52 141 -60 23 -171
34 -211 20z"/>
<path d="M32158 30564 c-181 -32 -301 -111 -366 -239 -20 -41 -54 -146 -49
-151 3 -3 198 -34 211 -34 2 0 12 22 21 49 49 149 146 211 330 211 219 0 325
-89 325 -271 l0 -58 -52 -16 c-63 -18 -235 -49 -368 -66 -122 -15 -225 -41
-290 -74 -70 -36 -145 -113 -178 -183 -23 -49 -27 -70 -27 -152 0 -84 3 -102
29 -157 67 -145 215 -223 420 -223 151 1 317 61 422 154 l52 46 11 -47 c7 -25
21 -63 32 -84 l19 -39 109 0 109 0 -25 61 c-35 87 -43 189 -43 580 0 205 -4
369 -11 404 -22 119 -80 197 -186 247 -116 55 -326 73 -495 42z m462 -874 c-6
-36 -20 -84 -30 -107 -42 -96 -154 -178 -278 -204 -81 -16 -193 -6 -251 23
-127 66 -148 239 -40 332 45 38 106 58 254 81 123 20 257 49 310 68 l40 14 3
-71 c2 -39 -2 -100 -8 -136z"/>
<path d="M34605 30564 c-151 -34 -248 -105 -303 -222 -23 -48 -27 -71 -27
-142 0 -73 4 -93 28 -142 60 -123 139 -167 467 -259 214 -60 255 -76 295 -119
26 -27 30 -39 30 -90 0 -48 -5 -66 -30 -102 -44 -63 -120 -99 -227 -105 -195
-12 -320 62 -364 216 -9 31 -17 57 -19 59 -3 4 -208 -28 -214 -33 -2 -3 8 -41
22 -85 75 -226 217 -324 487 -337 140 -6 233 11 337 62 90 44 152 106 195 193
30 61 33 74 33 162 0 112 -22 168 -92 236 -56 54 -138 88 -399 164 -256 74
-257 75 -294 116 -52 60 -52 128 1 188 40 46 98 67 200 73 163 10 264 -46 304
-168 10 -30 19 -55 20 -57 3 -3 208 27 212 32 6 6 -19 97 -38 143 -39 92 -137
167 -269 208 -79 24 -267 29 -355 9z"/>
<path d="M22123 30488 c25 -35 125 -178 224 -319 l179 -256 -208 -299 c-115
-164 -222 -318 -239 -341 l-30 -43 133 0 134 0 174 250 c96 138 175 250 176
250 2 0 78 -112 171 -250 l167 -250 134 0 133 0 -44 63 c-270 380 -435 623
-428 632 24 29 431 617 431 621 0 3 -59 3 -132 2 l-131 -3 -154 -220 c-84
-121 -157 -221 -161 -222 -4 -2 -25 28 -47 65 -22 37 -89 138 -150 225 l-109
157 -134 0 -133 0 44 -62z"/>
<path d="M26420 29890 l0 -660 110 0 110 0 0 660 0 660 -110 0 -110 0 0 -660z"/>
<path d="M29790 30542 c0 -4 92 -300 204 -658 l203 -649 114 0 114 0 137 510
c75 281 137 502 137 492 1 -14 220 -929 237 -989 5 -16 20 -18 134 -18 l129 0
35 113 c132 425 366 1191 366 1198 0 5 -51 9 -113 9 l-113 0 -37 -127 c-217
-743 -264 -895 -270 -862 -4 19 -59 249 -124 512 l-117 477 -117 0 c-103 0
-118 -2 -123 -17 -10 -35 -235 -870 -254 -943 -11 -41 -22 -68 -25 -60 -3 8
-20 69 -37 135 -17 66 -81 292 -143 502 l-112 383 -112 0 c-62 0 -113 -4 -113
-8z"/>
<path d="M13070 29670 l0 -110 110 0 110 0 0 110 0 110 -110 0 -110 0 0 -110z"/>
<path d="M14696 28724 c-3 -9 -6 -5613 -6 -12455 l0 -12438 -118 -3 -119 -3
128 -770 c70 -423 130 -787 133 -807 l6 -38 -2544 0 c-2310 0 -2544 -1 -2550
-16 -8 -21 -8 -20 10 -38 14 -15 334 -16 3374 -16 1847 0 3365 3 3374 6 10 4
16 18 16 35 l0 29 -830 0 -831 0 6 33 c36 200 255 1545 255 1563 l0 24 -120 0
-120 0 0 12455 0 12455 -29 0 c-17 0 -31 -6 -35 -16z"/>
</g>
</svg>
