<?xml version="1.0" standalone="no"?>
<!DOCTYPE svg PUBLIC "-//W3C//DTD SVG 20010904//EN"
 "http://www.w3.org/TR/2001/REC-SVG-20010904/DTD/svg10.dtd">
<svg version="1.0" xmlns="http://www.w3.org/2000/svg"
 width="3724.000000pt" height="7016.000000pt" viewBox="0 0 3724.000000 7016.000000"
 preserveAspectRatio="xMidYMid meet">

<g transform="translate(0.000000,7016.000000) scale(0.100000,-0.100000)"
fill="#000000" stroke="none">
<path d="M15136 67048 c-3 -13 -6 -508 -6 -1101 l0 -1077 -22 5 c-51 12 -2082
345 -2104 345 l-24 0 0 -165 0 -165 -1099 0 c-1093 0 -1099 0 -1104 -20 -14
-52 -61 -50 1114 -50 l1089 0 0 -171 c0 -158 1 -170 18 -165 9 3 485 84 1057
181 572 96 1048 177 1058 179 16 4 17 -158 17 -3300 l0 -3304 -964 0 c-958 0
-964 0 -969 -20 -13 -52 -50 -50 979 -50 l954 0 0 -2669 c0 -2454 1 -2671 16
-2686 9 -9 23 -14 31 -11 8 3 17 6 19 6 2 0 4 1206 4 2680 l0 2680 105 0 105
0 0 -165 0 -165 23 5 c12 3 486 82 1052 175 567 93 1040 172 1053 175 l22 5 0
-2684 c0 -2467 1 -2686 16 -2701 9 -9 23 -14 31 -11 8 3 17 6 19 6 2 0 4 2709
4 6020 0 3311 1 6020 3 6020 1 -1 485 -83 1075 -183 l1072 -183 0 168 0 168
1094 0 c602 0 1101 3 1110 6 10 4 16 18 16 35 l0 29 -1110 0 -1110 0 0 165 c0
155 -1 165 -19 165 -17 0 -2041 -333 -2103 -346 l-28 -6 0 1101 0 1101 -30 0
c-16 0 -31 -1 -32 -2 -2 -2 -5 -1992 -8 -4424 l-5 -4420 -1045 177 c-575 98
-1057 178 -1072 179 l-28 0 0 -170 0 -170 -105 0 -105 0 0 4415 0 4415 -29 0
c-21 0 -30 -6 -35 -22z"/>
<path d="M23625 65964 c-233 -46 -405 -229 -490 -521 -46 -157 -59 -286 -59
-568 -1 -282 11 -393 59 -575 73 -272 226 -448 451 -516 91 -28 305 -26 399 3
263 83 421 314 482 705 25 163 25 608 -1 763 -54 330 -193 566 -386 658 -134
63 -299 82 -455 51z m302 -238 c80 -36 164 -122 202 -208 66 -147 86 -299 86
-648 0 -276 -9 -384 -42 -520 -39 -160 -121 -273 -242 -333 -58 -28 -75 -32
-151 -32 -76 0 -93 4 -151 32 -155 77 -231 214 -271 488 -17 120 -17 599 0
720 45 314 135 462 315 521 67 22 180 13 254 -20z"/>
<path d="M26165 65971 c-255 -41 -436 -181 -515 -399 -27 -75 -56 -210 -46
-219 4 -4 260 -44 261 -40 1 1 6 36 12 77 33 242 217 385 471 367 284 -20 448
-257 352 -509 -12 -32 -40 -86 -63 -120 -59 -91 -271 -297 -512 -499 -300
-252 -415 -377 -498 -544 -47 -94 -67 -157 -74 -232 l-6 -63 727 0 726 0 0
135 0 135 -541 0 -541 0 27 38 c16 20 49 59 74 85 46 48 79 77 406 359 189
163 352 322 420 413 211 278 205 615 -16 836 -72 73 -185 136 -294 165 -69 18
-294 27 -370 15z"/>
<path d="M27865 65964 c-233 -46 -405 -229 -490 -521 -46 -157 -59 -286 -59
-568 -1 -282 11 -393 59 -575 73 -272 226 -448 451 -516 91 -28 305 -26 399 3
263 83 421 314 482 705 25 163 25 608 -1 763 -54 330 -193 566 -386 658 -134
63 -299 82 -455 51z m302 -238 c80 -36 164 -122 202 -208 66 -147 86 -299 86
-648 0 -276 -9 -384 -42 -520 -39 -160 -121 -273 -242 -333 -58 -28 -75 -32
-151 -32 -76 0 -93 4 -151 32 -155 77 -231 214 -271 488 -17 120 -17 599 0
720 45 314 135 462 315 521 67 22 180 13 254 -20z"/>
<path d="M29646 65398 c-112 -21 -238 -98 -318 -195 l-38 -45 0 111 0 111
-120 0 -120 0 0 -795 0 -795 134 0 134 0 5 513 c4 553 7 578 61 685 54 105
168 178 294 189 143 12 237 -40 284 -155 23 -57 23 -59 26 -644 l3 -588 134 0
135 0 0 493 c0 505 4 574 41 672 46 122 170 211 311 222 107 8 176 -14 237
-75 77 -78 75 -53 78 -719 l4 -593 134 0 135 0 0 590 c0 644 -3 684 -58 800
-74 156 -252 242 -472 227 -167 -11 -305 -85 -410 -219 l-38 -48 -31 55 c-60
106 -155 174 -278 200 -76 16 -192 18 -267 3z"/>
<path d="M24910 63945 l0 -155 155 0 155 0 0 155 0 155 -155 0 -155 0 0 -155z"/>
<path d="M18776 60414 c-3 -9 -6 -1718 -6 -3799 0 -3483 1 -3785 16 -3800 9
-9 23 -14 31 -11 8 3 17 6 19 6 2 0 4 1213 4 2695 l0 2696 33 -6 c17 -4 503
-84 1080 -179 l1047 -172 0 163 0 163 1089 0 c599 0 1096 3 1105 6 10 4 16 18
16 35 l0 29 -1105 0 -1105 0 0 170 c0 153 -2 170 -17 170 -16 0 -2074 -345
-2120 -355 l-23 -5 0 1105 0 1105 -29 0 c-17 0 -31 -6 -35 -16z"/>
<path d="M24835 59314 c-233 -46 -405 -229 -490 -521 -46 -157 -59 -286 -59
-568 -1 -282 11 -393 59 -575 73 -272 226 -448 451 -516 91 -28 305 -26 399 3
263 83 421 314 482 705 25 163 25 608 -1 763 -54 330 -193 566 -386 658 -134
63 -299 82 -455 51z m302 -238 c80 -36 164 -122 202 -208 66 -147 86 -299 86
-648 0 -276 -9 -384 -42 -520 -39 -160 -121 -273 -242 -333 -58 -28 -75 -32
-151 -32 -76 0 -93 4 -151 32 -155 77 -231 214 -271 488 -17 120 -17 599 0
720 45 314 135 462 315 521 67 22 180 13 254 -20z"/>
<path d="M27608 59282 c-82 -147 -294 -333 -522 -457 l-86 -47 0 -124 c0 -95
3 -124 13 -124 47 0 383 194 495 286 l32 27 0 -852 0 -851 135 0 135 0 0 1095
0 1095 -87 0 -88 0 -27 -48z"/>
<path d="M29075 59314 c-233 -46 -405 -229 -490 -521 -46 -157 -59 -286 -59
-568 -1 -282 11 -393 59 -575 73 -272 226 -448 451 -516 91 -28 305 -26 399 3
263 83 421 314 482 705 25 163 25 608 -1 763 -54 330 -193 566 -386 658 -134
63 -299 82 -455 51z m302 -238 c80 -36 164 -122 202 -208 66 -147 86 -299 86
-648 0 -276 -9 -384 -42 -520 -39 -160 -121 -273 -242 -333 -58 -28 -75 -32
-151 -32 -76 0 -93 4 -151 32 -155 77 -231 214 -271 488 -17 120 -17 599 0
720 45 314 135 462 315 521 67 22 180 13 254 -20z"/>
<path d="M30856 58748 c-112 -21 -238 -98 -318 -195 l-38 -45 0 111 0 111
-120 0 -120 0 0 -795 0 -795 134 0 134 0 5 513 c4 553 7 578 61 685 54 105
168 178 294 189 143 12 237 -40 284 -155 23 -57 23 -59 26 -644 l3 -588 134 0
135 0 0 493 c0 505 4 574 41 672 46 122 170 211 311 222 107 8 176 -14 237
-75 77 -78 75 -53 78 -719 l4 -593 134 0 135 0 0 590 c0 644 -3 684 -58 800
-74 156 -252 242 -472 227 -167 -11 -305 -85 -410 -219 l-38 -48 -31 55 c-60
106 -155 174 -278 200 -76 16 -192 18 -267 3z"/>
<path d="M26120 57295 l0 -155 155 0 155 0 0 155 0 155 -155 0 -155 0 0 -155z"/>
<path d="M4647 52091 c-12 -48 -59 -46 1111 -51 l1098 -5 -181 -1070 -181
-1070 168 -3 168 -2 0 -10090 c0 -9309 1 -10090 16 -10105 9 -9 23 -14 31 -11
8 3 17 6 19 6 2 0 4 4545 4 10100 l0 10100 165 0 165 0 0 24 c0 22 -333 2053
-345 2104 l-5 22 3764 0 c2070 0 3771 3 3780 6 10 4 16 18 16 35 l0 29 -4894
0 c-4790 0 -4894 0 -4899 -19z"/>
<path d="M15136 52094 c-8 -21 -8 -49147 0 -49168 6 -15 178 -16 1855 -16
l1849 0 0 24600 0 24600 -1849 0 c-1677 0 -1849 -1 -1855 -16z m1611 -70 c5
-15 7 -15 15 -1 7 14 56 16 403 17 l395 0 0 -275 c0 -213 -3 -275 -12 -276
-10 0 -10 -2 0 -6 19 -8 15 -33 -5 -27 -17 5 -17 5 0 -6 16 -10 17 -42 17
-471 -1 -352 -4 -459 -13 -460 -9 0 -9 -2 1 -6 19 -7 18 -846 -1 -862 -8 -6
-18 -7 -22 -3 -5 4 -5 1 -1 -6 6 -10 11 -10 22 -1 12 10 14 -52 14 -434 0
-286 -4 -448 -10 -452 -5 -3 -10 -12 -10 -18 0 -7 4 -6 10 3 6 10 10 -141 10
-436 0 -366 -3 -454 -13 -463 -8 -6 -16 -9 -18 -6 -3 2 -5 -6 -5 -19 0 -16 5
-22 14 -19 7 3 11 12 8 19 -3 7 -1 16 4 19 6 4 9 -359 10 -932 0 -609 -4 -933
-10 -923 -6 9 -10 10 -10 3 0 -6 5 -15 10 -18 6 -4 10 -166 10 -452 0 -382 -2
-444 -14 -434 -11 9 -16 9 -22 -1 -4 -7 -4 -10 1 -6 4 4 14 3 22 -3 19 -16 20
-859 1 -860 -10 0 -10 -2 0 -6 19 -8 15 -33 -5 -27 -17 5 -17 5 0 -6 16 -10
17 -42 17 -471 -1 -352 -4 -459 -13 -460 -9 0 -9 -2 1 -6 9 -4 12 -102 12
-445 0 -378 -2 -439 -14 -429 -11 9 -16 9 -22 -1 -4 -7 -4 -10 1 -6 4 4 14 3
22 -3 19 -16 20 -859 1 -860 -10 0 -10 -2 0 -6 19 -8 15 -33 -5 -27 -17 5 -17
5 0 -6 16 -10 17 -42 17 -471 -1 -352 -4 -459 -13 -460 -9 0 -9 -2 1 -6 19 -7
18 -846 -1 -862 -8 -6 -18 -7 -22 -3 -5 4 -5 1 -1 -6 6 -10 11 -10 22 -1 12
10 14 -52 14 -434 0 -286 -4 -448 -10 -452 -5 -3 -10 -12 -10 -18 0 -7 4 -6
10 3 6 10 10 -141 10 -436 0 -366 -3 -454 -13 -463 -8 -6 -16 -9 -18 -6 -3 2
-5 -6 -5 -19 0 -16 5 -22 14 -19 7 3 11 12 8 19 -3 7 -1 16 4 19 6 4 9 -359
10 -932 0 -609 -4 -933 -10 -923 -6 9 -10 10 -10 3 0 -6 5 -15 10 -18 6 -4 10
-166 10 -452 0 -382 -2 -444 -14 -434 -11 9 -16 9 -22 -1 -4 -7 -4 -10 1 -6 4
4 14 3 22 -3 19 -16 20 -859 1 -860 -10 0 -10 -2 0 -6 19 -8 15 -33 -5 -27
-17 5 -17 5 0 -6 16 -10 17 -42 17 -471 -1 -352 -4 -459 -13 -460 -9 0 -9 -2
1 -6 19 -7 18 -846 -1 -862 -8 -6 -18 -7 -22 -3 -5 4 -5 1 -1 -6 6 -10 11 -10
22 -1 12 10 14 -52 14 -434 0 -286 -4 -448 -10 -452 -5 -3 -10 -12 -10 -18 0
-7 4 -6 10 3 6 10 10 -141 10 -436 0 -366 -3 -454 -13 -463 -8 -6 -16 -9 -18
-6 -3 2 -5 -6 -5 -19 0 -16 5 -22 14 -19 7 3 11 12 8 19 -3 7 -1 16 4 19 6 4
9 -359 10 -932 0 -609 -4 -933 -10 -923 -6 9 -10 10 -10 3 0 -6 5 -15 10 -18
6 -4 10 -166 10 -452 0 -382 -2 -444 -14 -434 -11 9 -16 9 -22 -1 -4 -7 -4
-10 1 -6 4 4 14 3 22 -3 19 -16 20 -859 1 -860 -10 0 -10 -2 0 -6 19 -8 15
-33 -5 -27 -17 5 -17 5 0 -6 16 -10 17 -42 17 -471 -1 -352 -4 -459 -13 -460
-9 0 -9 -2 1 -6 19 -7 18 -846 -1 -862 -8 -6 -18 -7 -22 -3 -5 4 -5 1 -1 -6 6
-10 11 -10 22 -1 12 10 14 -52 14 -434 0 -286 -4 -448 -10 -452 -5 -3 -10 -12
-10 -18 0 -7 4 -6 10 3 6 10 10 -141 10 -436 0 -366 -3 -454 -13 -463 -8 -6
-16 -9 -18 -6 -3 2 -5 -6 -5 -19 0 -16 5 -22 14 -19 7 3 11 12 8 19 -3 7 -1
16 4 19 6 4 9 -359 10 -932 0 -609 -4 -933 -10 -923 -6 9 -10 10 -10 3 0 -6 5
-15 10 -18 6 -4 10 -166 10 -452 0 -382 -2 -444 -14 -434 -11 9 -16 9 -22 -1
-4 -7 -4 -10 1 -6 4 4 14 3 22 -3 19 -16 20 -859 1 -860 -10 0 -10 -2 0 -6 19
-8 15 -33 -5 -27 -17 5 -17 5 0 -6 16 -10 17 -43 17 -444 0 -351 -3 -436 -13
-445 -8 -6 -16 -9 -18 -6 -3 2 -5 -6 -5 -19 0 -16 5 -22 14 -19 7 3 11 12 8
19 -3 7 -1 16 4 19 6 4 9 -359 10 -932 0 -609 -4 -933 -10 -923 -6 9 -10 10
-10 3 0 -6 5 -15 10 -18 6 -4 10 -166 10 -452 0 -382 -2 -444 -14 -434 -11 9
-16 9 -22 -1 -4 -7 -4 -10 1 -6 4 4 14 3 22 -3 19 -16 20 -859 1 -860 -10 0
-10 -2 0 -6 19 -8 15 -33 -5 -27 -17 5 -17 5 0 -6 16 -10 17 -42 17 -471 -1
-352 -4 -459 -13 -460 -9 0 -9 -2 1 -6 19 -7 18 -846 -1 -862 -8 -6 -18 -7
-22 -3 -5 4 -5 1 -1 -6 6 -10 11 -10 22 -1 12 10 14 -52 14 -434 0 -286 -4
-448 -10 -452 -5 -3 -10 -12 -10 -18 0 -7 4 -6 10 3 6 10 10 -141 10 -436 0
-366 -3 -454 -13 -463 -8 -6 -16 -9 -18 -6 -3 2 -5 -6 -5 -19 0 -16 5 -22 14
-19 7 3 11 12 8 19 -3 7 -1 16 4 19 6 4 9 -359 10 -932 0 -609 -4 -933 -10
-923 -6 9 -10 10 -10 3 0 -6 5 -15 10 -18 6 -4 10 -166 10 -452 0 -382 -2
-444 -14 -434 -11 9 -16 9 -22 -1 -4 -7 -4 -10 1 -6 4 4 14 3 22 -3 19 -16 20
-859 1 -860 -10 0 -10 -2 0 -6 19 -8 15 -33 -5 -27 -17 5 -17 5 0 -6 16 -10
17 -42 17 -471 -1 -352 -4 -459 -13 -460 -9 0 -9 -2 1 -6 19 -7 18 -846 -1
-862 -8 -6 -18 -7 -22 -3 -5 4 -5 1 -1 -6 6 -10 11 -10 22 -1 12 10 14 -52 14
-434 0 -286 -4 -448 -10 -452 -6 -3 -10 -12 -10 -18 0 -7 4 -6 10 3 6 10 10
-141 10 -436 0 -366 -3 -454 -13 -463 -8 -6 -16 -9 -18 -6 -3 2 -5 -6 -5 -19
0 -16 5 -22 14 -19 7 3 11 12 8 19 -3 7 -1 16 4 19 5 3 9 -114 10 -285 l0
-290 -842 0 c-645 1 -845 4 -857 13 -12 9 -13 9 -7 0 6 -10 -62 -13 -323 -13
l-331 0 0 745 0 745 283 2 282 3 -282 2 -283 3 0 3635 0 3635 283 2 282 3
-282 2 -283 3 0 5915 0 5915 763 2 762 3 -762 2 -763 3 0 3635 0 3635 763 2
762 3 -762 2 -763 3 0 3635 0 3635 763 2 762 3 -762 2 -763 3 0 4995 0 4995
283 2 282 3 -282 2 -283 3 0 1640 0 1640 770 0 c699 0 771 -1 777 -16z m2023
-39 c0 -32 -4 -55 -11 -55 -5 0 -8 4 -5 8 2 4 -4 8 -14 8 -10 0 -16 -6 -13
-13 3 -7 8 -12 11 -11 21 2 32 -4 32 -17 0 -15 -20 -17 -31 -2 -3 5 -9 2 -12
-7 -4 -9 -3 -15 1 -15 43 7 42 10 42 -217 0 -141 -3 -213 -10 -209 -5 3 -10 1
-10 -5 0 -6 -4 -8 -10 -5 -5 3 -10 2 -10 -3 0 -6 7 -13 16 -16 8 -3 12 -2 9 4
-3 6 -2 10 4 10 7 0 11 -142 11 -440 0 -297 -4 -440 -11 -440 -6 0 -7 4 -4 10
3 6 -1 7 -9 4 -28 -11 -15 -30 17 -25 4 0 7 -103 7 -230 0 -151 -3 -228 -10
-224 -5 3 -10 1 -10 -5 0 -6 -4 -8 -10 -5 -5 3 -10 2 -10 -3 0 -6 7 -13 16
-16 8 -3 12 -2 9 4 -3 6 -2 10 4 10 7 0 11 -143 11 -440 0 -298 -4 -440 -11
-440 -6 0 -7 4 -4 10 3 6 -1 7 -9 4 -28 -11 -15 -30 17 -25 4 0 7 -96 7 -214
0 -241 9 -218 -81 -215 -26 1 -50 -3 -54 -9 -4 -8 -13 -8 -28 0 -21 9 -21 9
-4 -5 12 -9 17 -22 13 -34 -4 -12 -2 -19 7 -19 7 0 12 12 12 26 0 24 4 26 44
29 28 2 47 -1 52 -10 5 -7 9 -8 9 -2 0 6 7 11 15 11 8 0 15 -6 15 -14 0 -11
-12 -17 -32 -15 -3 1 -8 -4 -11 -11 -3 -7 3 -13 13 -13 10 0 16 4 14 8 -3 4
-1 8 5 8 7 0 11 -150 11 -460 0 -313 -4 -460 -11 -460 -5 0 -7 5 -3 12 5 7 3
8 -6 3 -10 -6 -10 -11 3 -20 15 -11 17 -37 17 -199 0 -209 8 -189 -81 -186
-26 1 -50 -3 -54 -9 -4 -8 -13 -8 -28 0 -21 9 -21 9 -4 -5 12 -9 17 -22 13
-34 -4 -12 -2 -19 7 -19 7 0 12 12 12 26 0 24 4 26 44 29 28 2 47 -1 52 -10 5
-7 9 -8 9 -2 0 6 7 11 15 11 8 0 15 -6 15 -14 0 -11 -12 -17 -32 -15 -3 1 -8
-4 -11 -11 -3 -7 3 -13 13 -13 10 0 16 4 14 8 -3 4 0 8 5 8 8 0 11 -66 11
-201 0 -176 -2 -203 -17 -214 -13 -9 -13 -14 -3 -20 9 -5 11 -4 6 3 -4 7 -2
12 3 12 8 0 11 -81 11 -250 0 -169 -3 -250 -11 -250 -5 0 -7 5 -3 12 5 7 3 8
-6 3 -10 -6 -10 -11 3 -20 15 -11 17 -38 17 -214 0 -135 -3 -201 -11 -201 -5
0 -8 4 -5 8 2 4 -4 8 -14 8 -10 0 -16 -6 -13 -13 3 -7 8 -12 11 -11 21 2 32
-4 32 -17 0 -15 -20 -17 -31 -2 -3 5 -9 2 -12 -7 -4 -9 -3 -15 1 -15 42 7 42
8 42 -187 0 -162 -2 -188 -17 -199 -13 -9 -13 -14 -3 -20 9 -5 11 -4 6 3 -4 7
-2 12 3 12 7 0 11 -147 11 -460 0 -310 -4 -460 -11 -460 -6 0 -8 4 -5 8 2 4
-4 8 -14 8 -10 0 -16 -6 -13 -13 3 -7 8 -12 11 -11 21 2 32 -4 32 -17 0 -15
-20 -17 -31 -2 -3 5 -9 2 -12 -7 -4 -9 -3 -15 1 -15 43 7 42 10 42 -217 0
-141 -3 -213 -10 -209 -5 3 -10 1 -10 -5 0 -6 -4 -8 -10 -5 -5 3 -10 2 -10 -3
0 -6 7 -13 16 -16 8 -3 12 -2 9 4 -3 6 -2 10 4 10 7 0 11 -142 11 -440 0 -297
-4 -440 -11 -440 -6 0 -7 4 -4 10 3 6 -1 7 -9 4 -28 -11 -15 -30 17 -25 4 0 7
-103 7 -230 0 -151 -3 -228 -10 -224 -5 3 -10 1 -10 -5 0 -6 -4 -8 -10 -5 -5
3 -10 2 -10 -3 0 -6 7 -13 16 -16 8 -3 12 -2 9 4 -3 6 -2 10 4 10 7 0 11 -142
11 -440 0 -297 -4 -440 -11 -440 -6 0 -7 4 -4 10 3 6 -1 7 -9 4 -28 -11 -15
-30 17 -25 4 0 7 -103 7 -230 0 -151 -3 -228 -10 -224 -5 3 -10 1 -10 -5 0 -6
-4 -8 -10 -5 -5 3 -10 2 -10 -3 0 -6 7 -13 16 -16 8 -3 12 -2 9 4 -3 6 -2 10
4 10 7 0 11 -143 11 -440 0 -298 -4 -440 -11 -440 -6 0 -7 4 -4 10 3 6 -1 7
-9 4 -28 -11 -15 -30 17 -25 4 0 7 -96 7 -214 0 -184 -2 -215 -15 -215 -8 0
-258 0 -555 0 -297 0 -547 0 -555 0 -13 0 -15 80 -15 660 0 458 3 660 11 660
5 0 7 -4 4 -10 -3 -6 1 -7 9 -4 9 3 16 10 16 16 0 5 -4 6 -10 3 -5 -3 -10 -1
-10 5 0 6 -4 8 -10 5 -7 -4 -10 222 -10 669 0 469 3 676 11 676 5 0 7 -4 4
-10 -3 -6 1 -7 9 -4 9 3 16 10 16 16 0 5 -4 6 -10 3 -5 -3 -10 -1 -10 5 0 6
-4 8 -10 5 -7 -4 -10 222 -10 669 0 469 3 676 11 676 5 0 7 -4 4 -10 -3 -6 1
-7 9 -4 9 3 16 10 16 16 0 5 -4 6 -10 3 -5 -3 -10 -1 -10 5 0 6 -4 8 -10 5 -7
-4 -10 230 -10 694 0 487 3 701 11 701 5 0 7 -5 3 -12 -5 -7 -3 -8 6 -3 10 6
10 11 -3 20 -16 11 -17 71 -17 684 0 465 3 671 11 671 5 0 7 -5 3 -12 -5 -7
-3 -8 6 -3 10 6 10 11 -3 20 -16 11 -17 209 -17 2559 l0 2546 570 0 570 0 0
-55z m-1108 -11890 c5 -6 8 -5 8 3 0 9 113 12 530 12 417 0 530 -3 530 -12 0
-8 3 -9 8 -3 12 16 32 16 32 0 0 -13 -11 -19 -32 -17 -3 1 -8 -4 -11 -11 -3
-7 3 -13 13 -13 10 0 16 4 14 8 -3 4 -1 8 5 8 7 0 11 -150 11 -460 0 -313 -4
-460 -11 -460 -5 0 -7 5 -3 12 5 7 3 8 -6 3 -10 -6 -10 -11 3 -20 15 -11 17
-37 17 -199 0 -159 -2 -186 -15 -186 -8 0 -258 0 -555 0 -297 0 -547 0 -555 0
-13 0 -15 79 -15 655 0 454 3 655 11 655 5 0 8 -4 5 -8 -2 -4 4 -8 14 -8 10 0
16 6 13 13 -3 7 -8 12 -11 11 -21 -2 -32 4 -32 17 0 16 20 16 32 0z m0 -1360
c5 -6 8 -5 8 3 0 9 113 12 530 12 417 0 530 -3 530 -12 0 -8 3 -9 8 -3 12 16
32 16 32 0 0 -13 -11 -19 -32 -17 -3 1 -8 -4 -11 -11 -3 -7 3 -13 13 -13 10 0
16 4 14 8 -3 4 0 8 5 8 8 0 11 -66 11 -201 0 -176 -2 -203 -17 -214 -13 -9
-13 -14 -3 -20 9 -5 11 -4 6 3 -4 7 -2 12 3 12 8 0 11 -81 11 -250 0 -169 -3
-250 -11 -250 -5 0 -7 5 -3 12 5 7 3 8 -6 3 -10 -6 -10 -11 3 -20 15 -11 17
-38 17 -214 0 -135 -3 -201 -11 -201 -5 0 -8 4 -5 8 2 4 -4 8 -14 8 -10 0 -16
-6 -13 -13 3 -7 8 -12 11 -11 21 2 32 -4 32 -17 0 -15 -20 -17 -31 -2 -3 5 -9
2 -12 -7 -4 -9 -3 -15 1 -15 42 7 42 8 42 -187 0 -162 -2 -188 -17 -199 -13
-9 -13 -14 -3 -20 9 -5 11 -4 6 3 -4 7 -2 12 3 12 7 0 11 -147 11 -460 0 -310
-4 -460 -11 -460 -6 0 -8 4 -5 8 2 4 -4 8 -14 8 -10 0 -16 -6 -13 -13 3 -7 8
-12 11 -11 21 2 32 -4 32 -17 0 -15 -20 -17 -31 -2 -3 5 -9 2 -12 -7 -4 -9 -3
-15 1 -15 43 7 42 10 42 -217 0 -141 -3 -213 -10 -209 -5 3 -10 1 -10 -5 0 -6
-4 -8 -10 -5 -5 3 -10 2 -10 -3 0 -6 7 -13 16 -16 8 -3 12 -2 9 4 -3 6 -2 10
4 10 7 0 11 -142 11 -440 0 -297 -4 -440 -11 -440 -6 0 -7 4 -4 10 3 6 -1 7
-9 4 -28 -11 -15 -30 17 -25 4 0 7 -103 7 -230 0 -151 -3 -228 -10 -224 -5 3
-10 1 -10 -5 0 -6 -4 -8 -10 -5 -5 3 -10 2 -10 -3 0 -6 7 -13 16 -16 8 -3 12
-2 9 4 -3 6 -2 10 4 10 7 0 11 -143 11 -440 0 -298 -4 -440 -11 -440 -6 0 -7
4 -4 10 3 6 -1 7 -9 4 -28 -11 -15 -30 17 -25 4 0 7 -96 7 -214 0 -241 9 -218
-81 -215 -26 1 -50 -3 -54 -9 -4 -8 -13 -8 -28 0 -21 9 -21 9 -4 -5 12 -9 17
-22 13 -34 -4 -12 -2 -19 7 -19 7 0 12 12 12 26 0 24 4 26 44 29 28 2 47 -1
52 -10 5 -7 9 -8 9 -2 0 6 7 11 15 11 8 0 15 -6 15 -14 0 -11 -12 -17 -32 -15
-3 1 -8 -4 -11 -11 -3 -7 3 -13 13 -13 10 0 16 4 14 8 -3 4 -1 8 5 8 7 0 11
-150 11 -460 0 -313 -4 -460 -11 -460 -5 0 -7 5 -3 12 5 7 3 8 -6 3 -10 -6
-10 -11 3 -20 15 -11 17 -37 17 -199 0 -209 8 -189 -81 -186 -26 1 -50 -3 -54
-9 -4 -8 -13 -8 -28 0 -21 9 -21 9 -4 -5 12 -9 17 -22 13 -34 -4 -12 -2 -19 7
-19 7 0 12 12 12 26 0 24 4 26 44 29 28 2 47 -1 52 -10 5 -7 9 -8 9 -2 0 6 7
11 15 11 8 0 15 -6 15 -14 0 -11 -12 -17 -32 -15 -3 1 -8 -4 -11 -11 -3 -7 3
-13 13 -13 10 0 16 4 14 8 -3 4 0 8 5 8 8 0 11 -66 11 -201 0 -176 -2 -203
-17 -214 -13 -9 -13 -14 -3 -20 9 -5 11 -4 6 3 -4 7 -2 12 3 12 8 0 11 -81 11
-250 0 -169 -3 -250 -11 -250 -5 0 -7 5 -3 12 5 7 3 8 -6 3 -10 -6 -10 -11 3
-20 15 -11 17 -38 17 -214 0 -135 -3 -201 -11 -201 -5 0 -8 4 -5 8 2 4 -4 8
-14 8 -10 0 -16 -6 -13 -13 3 -7 8 -12 11 -11 21 2 32 -4 32 -17 0 -15 -20
-17 -31 -2 -3 5 -9 2 -12 -7 -4 -9 -3 -15 1 -15 42 7 42 8 42 -187 0 -162 -2
-188 -17 -199 -13 -9 -13 -14 -3 -20 9 -5 11 -4 6 3 -4 7 -2 12 3 12 7 0 11
-147 11 -460 0 -310 -4 -460 -11 -460 -6 0 -8 4 -5 8 2 4 -4 8 -14 8 -10 0
-16 -6 -13 -13 3 -7 8 -12 11 -11 21 2 32 -4 32 -17 0 -15 -20 -17 -31 -2 -3
5 -9 2 -12 -7 -4 -9 -3 -15 1 -15 43 7 42 10 42 -217 0 -141 -3 -213 -10 -209
-5 3 -10 1 -10 -5 0 -6 -4 -8 -10 -5 -5 3 -10 2 -10 -3 0 -6 7 -13 16 -16 8
-3 12 -2 9 4 -3 6 -2 10 4 10 7 0 11 -142 11 -440 0 -297 -4 -440 -11 -440 -6
0 -7 4 -4 10 3 6 -1 7 -9 4 -28 -11 -15 -30 17 -25 4 0 7 -103 7 -230 0 -151
-3 -228 -10 -224 -5 3 -10 1 -10 -5 0 -6 -4 -8 -10 -5 -5 3 -10 2 -10 -3 0 -6
7 -13 16 -16 8 -3 12 -2 9 4 -3 6 -2 10 4 10 7 0 11 -143 11 -440 0 -298 -4
-440 -11 -440 -6 0 -7 4 -4 10 3 6 -1 7 -9 4 -28 -11 -15 -30 17 -25 4 0 7
-96 7 -214 0 -241 9 -218 -81 -215 -26 1 -50 -3 -54 -9 -4 -8 -13 -8 -28 0
-21 9 -21 9 -4 -5 12 -9 17 -22 13 -34 -4 -12 -2 -19 7 -19 7 0 12 12 12 26 0
24 4 26 44 29 28 2 47 -1 52 -10 5 -7 9 -8 9 -2 0 6 7 11 15 11 8 0 15 -6 15
-14 0 -11 -12 -17 -32 -15 -3 1 -8 -4 -11 -11 -3 -7 3 -13 13 -13 10 0 16 4
14 8 -3 4 -1 8 5 8 7 0 11 -150 11 -460 0 -313 -4 -460 -11 -460 -5 0 -7 5 -3
12 5 7 3 8 -6 3 -10 -6 -10 -11 3 -20 15 -11 17 -37 17 -199 0 -209 8 -189
-81 -186 -26 1 -50 -3 -54 -9 -4 -8 -13 -8 -28 0 -21 9 -21 9 -4 -5 12 -9 17
-22 13 -34 -4 -12 -2 -19 7 -19 7 0 12 12 12 26 0 24 4 26 44 29 28 2 47 -1
52 -10 5 -7 9 -8 9 -2 0 6 7 11 15 11 8 0 15 -6 15 -14 0 -11 -12 -17 -32 -15
-3 1 -8 -4 -11 -11 -3 -7 3 -13 13 -13 10 0 16 4 14 8 -3 4 0 8 5 8 8 0 11
-66 11 -201 0 -176 -2 -203 -17 -214 -13 -9 -13 -14 -3 -20 9 -5 11 -4 6 3 -4
7 -2 12 3 12 8 0 11 -81 11 -250 0 -169 -3 -250 -11 -250 -5 0 -7 5 -3 12 5 7
3 8 -6 3 -10 -6 -10 -11 3 -20 15 -11 17 -38 17 -214 0 -135 -3 -201 -11 -201
-5 0 -8 4 -5 8 2 4 -4 8 -14 8 -10 0 -16 -6 -13 -13 3 -7 8 -12 11 -11 21 2
32 -4 32 -17 0 -15 -20 -17 -31 -2 -3 5 -9 2 -12 -7 -4 -9 -3 -15 1 -15 42 7
42 8 42 -187 0 -162 -2 -188 -17 -199 -13 -9 -13 -14 -3 -20 9 -5 11 -4 6 3
-4 7 -2 12 3 12 7 0 11 -147 11 -460 0 -310 -4 -460 -11 -460 -6 0 -8 4 -5 8
2 4 -4 8 -14 8 -10 0 -16 -6 -13 -13 3 -7 8 -12 11 -11 21 2 32 -4 32 -17 0
-15 -20 -17 -31 -2 -3 5 -9 2 -12 -7 -4 -9 -3 -15 1 -15 43 7 42 10 42 -217 0
-141 -3 -213 -10 -209 -5 3 -10 1 -10 -5 0 -6 -4 -8 -10 -5 -5 3 -10 2 -10 -3
0 -6 7 -13 16 -16 8 -3 12 -2 9 4 -3 6 -2 10 4 10 7 0 11 -142 11 -440 0 -297
-4 -440 -11 -440 -6 0 -7 4 -4 10 3 6 -1 7 -9 4 -28 -11 -15 -30 17 -25 4 0 7
-103 7 -230 0 -151 -3 -228 -10 -224 -5 3 -10 1 -10 -5 0 -6 -4 -8 -10 -5 -5
3 -10 2 -10 -3 0 -6 7 -13 16 -16 8 -3 12 -2 9 4 -3 6 -1 10 4 10 8 0 11 -68
11 -206 0 -181 -2 -208 -17 -219 -13 -9 -13 -14 -3 -20 9 -5 11 -4 6 3 -4 7
-2 12 3 12 8 0 11 -81 11 -250 0 -169 -3 -250 -11 -250 -5 0 -7 5 -3 12 5 7 3
8 -6 3 -10 -6 -10 -11 3 -20 15 -11 17 -37 17 -199 0 -159 -2 -186 -15 -186
-8 0 -258 0 -555 0 -297 0 -547 0 -555 0 -13 0 -15 80 -15 660 0 458 3 660 11
660 5 0 7 -4 4 -10 -3 -6 1 -7 9 -4 9 3 16 10 16 16 0 5 -4 6 -10 3 -5 -3 -10
-1 -10 5 0 6 -5 8 -10 5 -7 -4 -10 222 -10 669 0 469 3 676 11 676 5 0 7 -4 4
-10 -3 -6 1 -7 9 -4 9 3 16 10 16 16 0 5 -5 6 -10 3 -5 -3 -10 -1 -10 5 0 6
-5 8 -10 5 -7 -4 -10 230 -10 694 0 487 3 701 11 701 5 0 7 -5 3 -12 -5 -7 -3
-8 6 -3 10 6 10 11 -3 20 -16 11 -17 71 -17 684 0 465 3 671 11 671 5 0 7 -5
3 -12 -5 -7 -3 -8 6 -3 10 6 10 11 -3 20 -16 11 -17 270 -17 3385 0 3115 1
3374 17 3385 13 9 13 14 3 20 -9 5 -11 4 -6 -3 4 -7 2 -12 -3 -12 -8 0 -11
206 -11 671 0 613 1 673 17 684 13 9 13 14 3 20 -9 5 -11 4 -6 -3 4 -7 2 -12
-3 -12 -8 0 -11 214 -11 700 0 385 3 699 8 699 31 -5 44 14 16 25 -8 3 -12 2
-9 -4 3 -6 1 -10 -4 -10 -8 0 -11 207 -11 675 0 371 3 674 8 674 31 -5 44 14
16 25 -8 3 -12 2 -9 -4 3 -6 1 -10 -4 -10 -8 0 -11 202 -11 660 0 621 1 660
18 661 9 1 20 1 24 0 4 0 5 6 1 15 -3 9 -9 12 -12 7 -11 -15 -31 -13 -31 2 0
13 11 19 32 17 3 -1 8 4 11 11 3 7 -3 13 -13 13 -10 0 -16 -4 -14 -8 3 -4 0
-8 -5 -8 -8 0 -11 201 -11 655 0 617 1 655 18 656 9 1 20 1 24 0 4 0 5 6 1 15
-3 9 -9 12 -12 7 -11 -15 -31 -13 -31 2 0 13 11 19 32 17 3 -1 8 4 11 11 3 7
-3 13 -13 13 -10 0 -16 -4 -14 -8 3 -4 0 -8 -5 -8 -8 0 -11 205 -11 670 0 465
3 670 11 670 5 0 8 -4 5 -8 -2 -4 4 -8 14 -8 10 0 16 6 13 13 -3 7 -8 12 -11
11 -21 -2 -32 4 -32 17 0 16 20 16 32 0z m0 -20480 c5 -6 8 -5 8 3 0 9 113 12
530 12 417 0 530 -3 530 -12 0 -8 3 -9 8 -3 12 16 32 16 32 0 0 -13 -11 -19
-32 -17 -3 1 -8 -4 -11 -11 -3 -7 3 -13 13 -13 10 0 16 4 14 8 -3 4 0 8 5 8 8
0 11 -66 11 -201 0 -176 -2 -203 -17 -214 -13 -9 -13 -14 -3 -20 9 -5 11 -4 6
3 -4 7 -2 12 3 12 8 0 11 -81 11 -250 0 -169 -3 -250 -11 -250 -5 0 -7 5 -3
12 5 7 3 8 -6 3 -10 -6 -10 -11 3 -20 15 -11 17 -38 17 -214 0 -135 -3 -201
-11 -201 -5 0 -8 4 -5 8 2 4 -4 8 -14 8 -10 0 -16 -6 -13 -13 3 -7 8 -12 11
-11 21 2 32 -4 32 -17 0 -15 -20 -17 -31 -2 -3 5 -9 2 -12 -7 -4 -9 -3 -15 1
-15 42 7 42 8 42 -187 0 -162 -2 -188 -17 -199 -13 -9 -13 -14 -3 -20 9 -5 11
-4 6 3 -4 7 -2 12 3 12 7 0 11 -147 11 -460 0 -310 -4 -460 -11 -460 -6 0 -8
4 -5 8 2 4 -4 8 -14 8 -10 0 -16 -6 -13 -13 3 -7 8 -12 11 -11 21 2 32 -4 32
-17 0 -15 -20 -17 -31 -2 -3 5 -9 2 -12 -7 -4 -9 -3 -15 1 -15 43 7 42 10 42
-217 0 -141 -3 -213 -10 -209 -5 3 -10 1 -10 -5 0 -6 -4 -8 -10 -5 -5 3 -10 2
-10 -3 0 -6 7 -13 16 -16 8 -3 12 -2 9 4 -3 6 -2 10 4 10 7 0 11 -142 11 -440
0 -297 -4 -440 -11 -440 -6 0 -7 4 -4 10 3 6 -1 7 -9 4 -28 -11 -15 -30 17
-25 4 0 7 -103 7 -230 0 -151 -3 -228 -10 -224 -5 3 -10 1 -10 -5 0 -6 -4 -8
-10 -5 -5 3 -10 2 -10 -3 0 -6 7 -13 16 -16 8 -3 12 -2 9 4 -3 6 -2 10 4 10 7
0 11 -143 11 -440 0 -298 -4 -440 -11 -440 -6 0 -7 4 -4 10 3 6 -1 7 -9 4 -28
-11 -15 -30 17 -25 4 0 7 -96 7 -214 0 -241 9 -218 -81 -215 -26 1 -50 -3 -54
-9 -4 -8 -13 -8 -28 0 -21 9 -21 9 -4 -5 12 -9 17 -22 13 -34 -4 -12 -2 -19 7
-19 7 0 12 12 12 26 0 24 4 26 44 29 28 2 47 -1 52 -10 5 -7 9 -8 9 -2 0 6 7
11 15 11 8 0 15 -6 15 -14 0 -11 -12 -17 -32 -15 -3 1 -8 -4 -11 -11 -3 -7 3
-13 13 -13 10 0 16 4 14 8 -3 4 -1 8 5 8 7 0 11 -150 11 -460 0 -313 -4 -460
-11 -460 -5 0 -7 5 -3 12 5 7 3 8 -6 3 -10 -6 -10 -11 3 -20 15 -11 17 -37 17
-199 0 -209 8 -189 -81 -186 -26 1 -50 -3 -54 -9 -4 -8 -13 -8 -28 0 -21 9
-21 9 -4 -5 12 -9 17 -22 13 -34 -4 -12 -2 -19 7 -19 7 0 12 12 12 26 0 24 4
26 44 29 28 2 47 -1 52 -10 5 -7 9 -8 9 -2 0 6 7 11 15 11 8 0 15 -6 15 -14 0
-11 -12 -17 -32 -15 -3 1 -8 -4 -11 -11 -3 -7 3 -13 13 -13 10 0 16 4 14 8 -3
4 0 8 5 8 8 0 11 -66 11 -201 0 -176 -2 -203 -17 -214 -13 -9 -13 -14 -3 -20
9 -5 11 -4 6 3 -4 7 -2 12 3 12 8 0 11 -81 11 -250 0 -169 -3 -250 -11 -250
-5 0 -7 5 -3 12 5 7 3 8 -6 3 -10 -6 -10 -11 3 -20 15 -11 17 -38 17 -214 0
-135 -3 -201 -11 -201 -5 0 -8 4 -5 8 2 4 -4 8 -14 8 -10 0 -16 -6 -13 -13 3
-7 8 -12 11 -11 21 2 32 -4 32 -17 0 -15 -20 -17 -31 -2 -3 5 -9 2 -12 -7 -4
-9 -3 -15 1 -15 42 7 42 8 42 -187 0 -162 -2 -188 -17 -199 -13 -9 -13 -14 -3
-20 9 -5 11 -4 6 3 -4 7 -2 12 3 12 7 0 11 -147 11 -460 0 -310 -4 -460 -11
-460 -6 0 -8 4 -5 8 2 4 -4 8 -14 8 -10 0 -16 -6 -13 -13 3 -7 8 -12 11 -11
21 2 32 -4 32 -17 0 -15 -20 -17 -31 -2 -3 5 -9 2 -12 -7 -4 -9 -3 -15 1 -15
43 7 42 10 42 -217 0 -141 -3 -213 -10 -209 -5 3 -10 1 -10 -5 0 -6 -4 -8 -10
-5 -5 3 -10 2 -10 -3 0 -6 7 -13 16 -16 8 -3 12 -2 9 4 -3 6 -2 10 4 10 7 0
11 -142 11 -440 0 -297 -4 -440 -11 -440 -6 0 -7 4 -4 10 3 6 -1 7 -9 4 -28
-11 -15 -30 17 -25 4 0 7 -103 7 -230 0 -151 -3 -228 -10 -224 -5 3 -10 1 -10
-5 0 -6 -4 -8 -10 -5 -5 3 -10 2 -10 -3 0 -6 7 -13 16 -16 8 -3 12 -2 9 4 -3
6 -2 10 4 10 7 0 11 -143 11 -440 0 -298 -4 -440 -11 -440 -6 0 -7 4 -4 10 3
6 -1 7 -9 4 -28 -11 -15 -30 17 -25 4 0 7 -96 7 -214 0 -241 9 -218 -81 -215
-26 1 -50 -3 -54 -9 -4 -8 -13 -8 -28 0 -21 9 -21 9 -4 -5 12 -9 17 -22 13
-34 -4 -12 -2 -19 7 -19 7 0 12 12 12 26 0 24 4 26 44 29 28 2 47 -1 52 -10 5
-7 9 -8 9 -2 0 6 7 11 15 11 8 0 15 -6 15 -14 0 -11 -12 -17 -32 -15 -3 1 -8
-4 -11 -11 -3 -7 3 -13 13 -13 10 0 16 4 14 8 -3 4 -1 8 5 8 7 0 11 -150 11
-460 0 -313 -4 -460 -11 -460 -5 0 -7 5 -3 12 5 7 3 8 -6 3 -10 -6 -10 -11 3
-20 15 -11 17 -37 17 -199 0 -209 8 -189 -81 -186 -26 1 -50 -3 -54 -9 -4 -8
-13 -8 -28 0 -21 9 -21 9 -4 -5 12 -9 17 -22 13 -34 -4 -12 -2 -19 7 -19 7 0
12 12 12 26 0 24 4 26 44 29 28 2 47 -1 52 -10 5 -7 9 -8 9 -2 0 6 7 11 15 11
8 0 15 -6 15 -14 0 -11 -12 -17 -32 -15 -3 1 -8 -4 -11 -11 -3 -7 3 -13 13
-13 10 0 16 4 14 8 -3 4 0 8 5 8 6 0 11 -20 11 -45 l0 -45 -570 0 -570 0 0
3216 c0 2971 1 3218 17 3229 13 9 13 14 3 20 -9 5 -11 4 -6 -3 4 -7 2 -12 -3
-12 -8 0 -11 206 -11 671 0 613 1 673 17 684 13 9 13 14 3 20 -9 5 -11 4 -6
-3 4 -7 2 -12 -3 -12 -8 0 -11 214 -11 700 0 385 3 699 8 699 31 -5 44 14 16
25 -8 3 -12 2 -9 -4 3 -6 1 -10 -4 -10 -8 0 -11 207 -11 675 0 371 3 674 8
674 31 -5 44 14 16 25 -8 3 -12 2 -9 -4 3 -6 1 -10 -4 -10 -8 0 -11 202 -11
660 0 621 1 660 18 661 9 1 20 1 24 0 4 0 5 6 1 15 -3 9 -9 12 -12 7 -11 -15
-31 -13 -31 2 0 13 11 19 32 17 3 -1 8 4 11 11 3 7 -3 13 -13 13 -10 0 -16 -4
-14 -8 3 -4 0 -8 -5 -8 -8 0 -11 201 -11 655 0 617 1 655 18 656 9 1 20 1 24
0 4 0 5 6 1 15 -3 9 -9 12 -12 7 -11 -15 -31 -13 -31 2 0 13 11 19 32 17 3 -1
8 4 11 11 3 7 -3 13 -13 13 -10 0 -16 -4 -14 -8 3 -4 0 -8 -5 -8 -8 0 -11 205
-11 670 0 465 3 670 11 670 5 0 8 -4 5 -8 -2 -4 4 -8 14 -8 10 0 16 6 13 13
-3 7 -8 12 -11 11 -21 -2 -32 4 -32 17 0 16 20 16 32 0z m1108 -15010 l0 -275
-1785 0 -1785 0 0 275 0 275 1785 0 1785 0 0 -275z"/>
<path d="M16746 51497 c-16 -12 -16 -13 3 -13 11 0 18 3 15 7 -2 4 2 10 8 12
7 3 8 6 2 6 -5 1 -18 -5 -28 -12z"/>
<path d="M16825 51480 c-16 -7 -17 -9 -3 -9 9 -1 20 4 23 9 7 11 7 11 -20 0z"/>
<path d="M16855 51471 c-3 -5 -1 -12 5 -16 5 -3 10 1 10 9 0 18 -6 21 -15 7z"/>
<path d="M16726 51448 c3 -5 10 -6 15 -3 13 9 11 12 -6 12 -8 0 -12 -4 -9 -9z"/>
<path d="M16815 51450 c-3 -6 1 -7 9 -4 18 7 21 14 7 14 -6 0 -13 -4 -16 -10z"/>
<path d="M15790 51430 c-12 -7 -10 -9 7 -7 12 0 19 5 17 9 -6 10 -6 10 -24 -2z"/>
<path d="M15844 51431 c4 -5 0 -11 -6 -14 -7 -3 -3 -4 9 -4 17 1 19 4 11 14
-12 15 -22 18 -14 4z"/>
<path d="M15838 50583 c6 -3 10 -9 6 -14 -8 -14 2 -11 14 4 8 10 6 13 -11 14
-12 0 -16 -1 -9 -4z"/>
<path d="M15780 50575 c0 -7 30 -13 34 -7 3 4 -4 9 -15 9 -10 1 -19 0 -19 -2z"/>
<path d="M16726 50552 c-3 -5 1 -9 9 -9 8 0 12 4 9 9 -3 4 -7 8 -9 8 -2 0 -6
-4 -9 -8z"/>
<path d="M16820 50546 c7 -7 13 -7 20 0 6 6 3 10 -10 10 -13 0 -16 -4 -10 -10z"/>
<path d="M16855 50541 c-3 -5 -1 -12 5 -16 5 -3 10 1 10 9 0 18 -6 21 -15 7z"/>
<path d="M16810 50526 c0 -2 9 -6 20 -9 11 -3 18 -1 14 4 -5 9 -34 13 -34 5z"/>
<path d="M16746 50503 c10 -7 23 -13 28 -12 6 0 5 3 -2 6 -6 2 -10 8 -8 12 3
4 -4 7 -15 7 -19 0 -19 -1 -3 -13z"/>
<path d="M16769 49657 c6 -8 7 -18 3 -23 -4 -4 0 -3 9 4 9 6 18 10 21 7 3 -3
11 1 18 10 8 10 9 15 1 15 -6 0 -11 -6 -11 -12 0 -10 -3 -9 -9 1 -7 11 -9 11
-14 0 -4 -10 -6 -10 -6 -1 -1 6 -6 12 -12 12 -8 0 -9 -4 0 -13z"/>
<path d="M16839 49653 c-13 -16 -12 -17 4 -4 9 7 17 15 17 17 0 8 -8 3 -21
-13z"/>
<path d="M16845 49634 c-10 -8 -14 -14 -8 -14 7 0 15 5 19 11 4 8 9 7 15 -2 6
-10 9 -10 9 -2 0 19 -14 22 -35 7z"/>
<path d="M16734 49618 c-4 -7 -4 -10 1 -6 4 4 15 4 24 -1 9 -4 26 -2 41 5 18
10 20 14 8 14 -9 0 -20 -5 -23 -10 -4 -7 -12 -7 -25 0 -13 7 -21 7 -26 -2z"/>
<path d="M15821 48761 c-10 -6 -9 -10 3 -14 8 -3 18 -2 21 3 8 13 -9 20 -24
11z"/>
<path d="M15893 48755 c0 -8 4 -12 9 -9 5 3 6 10 3 15 -9 13 -12 11 -12 -6z"/>
<path d="M15775 48749 c-11 -16 -1 -19 13 -3 7 8 8 14 3 14 -5 0 -13 -5 -16
-11z"/>
<path d="M16318 48753 c221 -2 583 -2 805 0 221 1 40 2 -403 2 -443 0 -624 -1
-402 -2z"/>
<path d="M16734 48703 c1 -7 6 -16 11 -20 4 -5 5 -2 0 6 -6 10 -4 13 7 9 8 -4
15 -1 15 6 0 6 -8 12 -17 12 -10 0 -17 -6 -16 -13z"/>
<path d="M16794 48704 c-18 -14 -18 -15 4 -4 12 6 22 13 22 15 0 8 -5 6 -26
-11z"/>
<path d="M16825 48700 c-3 -5 -2 -10 4 -10 5 0 13 5 16 10 3 6 2 10 -4 10 -5
0 -13 -4 -16 -10z"/>
<path d="M17530 48700 c0 -5 5 -10 11 -10 5 0 7 5 4 10 -3 6 -8 10 -11 10 -2
0 -4 -4 -4 -10z"/>
<path d="M16749 48657 c-9 -20 -9 -20 4 -4 14 17 33 25 23 9 -2 -4 5 -8 17 -9
12 0 16 1 9 4 -6 3 -10 8 -8 12 3 4 -4 8 -15 8 -11 1 -24 -8 -30 -20z"/>
<path d="M16795 47910 c-3 -5 -1 -10 4 -10 6 0 11 5 11 10 0 6 -2 10 -4 10 -3
0 -8 -4 -11 -10z"/>
<path d="M16765 47900 c-3 -5 -1 -10 4 -10 6 0 11 5 11 10 0 6 -2 10 -4 10 -3
0 -8 -4 -11 -10z"/>
<path d="M15764 47824 c2 -10 8 -20 14 -22 17 -5 15 13 -2 27 -12 10 -14 9
-12 -5z"/>
<path d="M15797 47829 c7 -7 15 -10 18 -7 3 3 -2 9 -12 12 -14 6 -15 5 -6 -5z"/>
<path d="M15880 47817 c0 -2 6 -10 14 -16 11 -9 16 -9 22 1 4 7 4 10 -1 6 -4
-4 -14 -3 -22 3 -7 6 -13 9 -13 6z"/>
<path d="M15822 47792 c-9 -6 -6 -12 12 -20 15 -7 28 -7 31 -2 3 5 13 7 23 4
13 -5 14 -4 3 4 -8 6 -25 8 -38 6 -15 -3 -22 -1 -18 6 7 12 4 12 -13 2z"/>
<path d="M15831 46946 c-20 -11 -21 -14 -7 -19 10 -4 15 -3 11 3 -4 7 3 9 18
6 13 -2 30 0 38 6 11 8 11 9 -2 5 -9 -3 -20 -2 -25 3 -5 5 -20 3 -33 -4z"/>
<path d="M15889 46913 c-12 -16 -12 -17 2 -6 9 7 20 9 24 5 5 -4 5 -1 1 6 -9
16 -11 15 -27 -5z"/>
<path d="M17533 46915 c0 -8 4 -12 9 -9 5 3 6 10 3 15 -9 13 -12 11 -12 -6z"/>
<path d="M15769 46918 c0 -2 -2 -11 -4 -21 -3 -15 -1 -16 11 -6 16 13 19 29 4
29 -5 0 -10 -1 -11 -2z"/>
<path d="M15795 46890 c-3 -6 1 -7 9 -4 18 7 21 14 7 14 -6 0 -13 -4 -16 -10z"/>
<path d="M16766 46872 c-3 -5 1 -9 9 -9 8 0 12 4 9 9 -3 4 -7 8 -9 8 -2 0 -6
-4 -9 -8z"/>
<path d="M16774 46842 c4 -7 2 -12 -5 -12 -10 0 -10 -3 -1 -12 15 -15 42 -19
42 -6 0 6 -7 7 -16 4 -12 -4 -15 -2 -11 9 4 8 1 17 -5 21 -7 4 -8 3 -4 -4z"/>
<path d="M16740 46810 c0 -5 5 -10 11 -10 5 0 7 5 4 10 -3 6 -8 10 -11 10 -2
0 -4 -4 -4 -10z"/>
<path d="M16749 46063 c6 -12 19 -21 30 -20 11 0 18 4 15 8 -2 4 2 9 8 12 7 3
3 4 -9 4 -12 -1 -19 -5 -17 -9 10 -16 -9 -8 -23 10 -13 15 -13 15 -4 -5z"/>
<path d="M16739 46038 c-7 -24 -4 -34 11 -34 9 0 17 6 17 12 0 7 -7 10 -15 6
-10 -3 -13 -1 -8 6 4 7 5 12 2 12 -3 0 -6 -1 -7 -2z"/>
<path d="M16780 46026 c0 -3 9 -10 20 -16 11 -6 20 -8 20 -6 0 3 -9 10 -20 16
-11 6 -20 8 -20 6z"/>
<path d="M16825 46020 c3 -5 11 -10 16 -10 6 0 7 5 4 10 -3 6 -11 10 -16 10
-6 0 -7 -4 -4 -10z"/>
<path d="M17530 46021 c0 -6 4 -12 8 -15 5 -3 9 1 9 9 0 8 -4 15 -9 15 -4 0
-8 -4 -8 -9z"/>
<path d="M15770 45981 c0 -10 19 -25 25 -20 1 2 -3 10 -11 17 -8 7 -14 8 -14
3z"/>
<path d="M15821 45970 c-10 -5 -9 -8 2 -13 7 -3 19 -2 26 3 10 5 9 8 -2 13 -7
3 -19 2 -26 -3z"/>
<path d="M15874 45953 c1 -7 4 -14 7 -15 2 -2 3 -1 2 1 -2 2 4 9 13 15 13 10
13 12 -4 12 -11 0 -19 -6 -18 -13z"/>
<path d="M16759 45109 c-7 -4 -17 -5 -23 -2 -5 3 -6 1 -2 -5 5 -8 13 -9 25 -2
12 6 22 5 29 -2 5 -5 15 -9 21 -7 6 2 0 9 -13 15 -14 6 -30 8 -37 3z"/>
<path d="M16845 45086 c21 -15 35 -12 35 7 0 8 -3 8 -9 -2 -6 -9 -11 -10 -15
-2 -4 6 -12 11 -19 11 -6 0 -2 -6 8 -14z"/>
<path d="M16772 45086 c4 -5 3 -15 -3 -23 -9 -9 -8 -13 0 -13 6 0 11 6 11 13
0 9 3 8 9 -2 7 -11 9 -11 14 0 4 10 6 10 6 2 1 -7 6 -13 12 -13 8 0 7 5 -1 15
-7 9 -15 13 -18 10 -3 -3 -12 1 -21 7 -9 7 -13 8 -9 4z"/>
<path d="M16830 45076 c0 -2 8 -10 18 -17 15 -13 16 -12 3 4 -13 16 -21 21
-21 13z"/>
<path d="M16746 44217 c-16 -12 -16 -13 3 -13 11 0 18 3 15 7 -2 4 2 10 8 12
7 3 8 6 2 6 -5 1 -18 -5 -28 -12z"/>
<path d="M16825 44200 c-16 -7 -17 -9 -3 -9 9 -1 20 4 23 9 7 11 7 11 -20 0z"/>
<path d="M16855 44191 c-3 -5 -1 -12 5 -16 5 -3 10 1 10 9 0 18 -6 21 -15 7z"/>
<path d="M16726 44168 c3 -5 10 -6 15 -3 13 9 11 12 -6 12 -8 0 -12 -4 -9 -9z"/>
<path d="M16815 44170 c-3 -6 1 -7 9 -4 18 7 21 14 7 14 -6 0 -13 -4 -16 -10z"/>
<path d="M15790 44150 c-12 -7 -10 -9 7 -7 12 0 19 5 17 9 -6 10 -6 10 -24 -2z"/>
<path d="M15844 44151 c4 -5 0 -11 -6 -14 -7 -3 -3 -4 9 -4 17 1 19 4 11 14
-12 15 -22 18 -14 4z"/>
<path d="M15838 43303 c6 -3 10 -9 6 -14 -8 -14 2 -11 14 4 8 10 6 13 -11 14
-12 0 -16 -1 -9 -4z"/>
<path d="M15780 43295 c0 -7 30 -13 34 -7 3 4 -4 9 -15 9 -10 1 -19 0 -19 -2z"/>
<path d="M16726 43272 c-3 -5 1 -9 9 -9 8 0 12 4 9 9 -3 4 -7 8 -9 8 -2 0 -6
-4 -9 -8z"/>
<path d="M16820 43266 c7 -7 13 -7 20 0 6 6 3 10 -10 10 -13 0 -16 -4 -10 -10z"/>
<path d="M16855 43261 c-3 -5 -1 -12 5 -16 5 -3 10 1 10 9 0 18 -6 21 -15 7z"/>
<path d="M16810 43246 c0 -2 9 -6 20 -9 11 -3 18 -1 14 4 -5 9 -34 13 -34 5z"/>
<path d="M16746 43223 c10 -7 23 -13 28 -12 6 0 5 3 -2 6 -6 2 -10 8 -8 12 3
4 -4 7 -15 7 -19 0 -19 -1 -3 -13z"/>
<path d="M15840 42384 c-18 -10 -20 -14 -8 -14 9 0 20 5 23 10 4 7 12 7 25 0
13 -7 21 -7 26 2 4 7 4 10 -1 6 -4 -4 -15 -4 -24 1 -9 4 -26 2 -41 -5z"/>
<path d="M15760 42373 c0 -19 14 -22 35 -7 10 8 14 14 8 14 -7 0 -15 -5 -19
-11 -4 -8 -9 -7 -15 2 -6 10 -9 10 -9 2z"/>
<path d="M15855 42360 c-4 -6 -10 -8 -15 -5 -4 3 -13 -2 -20 -10 -9 -10 -9
-15 -1 -15 6 0 11 6 11 13 0 9 3 8 9 -2 7 -11 9 -11 14 0 4 10 6 10 6 2 1 -7
6 -13 12 -13 8 0 9 4 0 13 -6 8 -8 17 -4 20 3 4 4 7 0 7 -3 0 -9 -5 -12 -10z"/>
<path d="M15789 42343 c-13 -16 -12 -17 4 -4 9 7 17 15 17 17 0 8 -8 3 -21
-13z"/>
<path d="M15868 41503 c6 -2 10 -8 8 -12 -3 -4 4 -7 15 -7 19 0 19 1 3 13 -10
7 -23 13 -28 12 -6 0 -5 -3 2 -6z"/>
<path d="M15798 41478 c5 -5 16 -8 23 -6 8 3 3 7 -10 11 -17 4 -21 3 -13 -5z"/>
<path d="M15770 41464 c0 -8 5 -12 10 -9 6 4 8 11 5 16 -9 14 -15 11 -15 -7z"/>
<path d="M15800 41456 c0 -2 7 -7 16 -10 8 -3 12 -2 9 4 -6 10 -25 14 -25 6z"/>
<path d="M15896 41448 c3 -5 10 -6 15 -3 13 9 11 12 -6 12 -8 0 -12 -4 -9 -9z"/>
<path d="M16782 41427 c-8 -10 -6 -13 11 -14 12 0 16 1 9 4 -6 3 -10 9 -6 14
8 14 -2 11 -14 -4z"/>
<path d="M16826 41432 c-3 -4 4 -9 15 -9 23 -2 25 3 4 10 -8 4 -16 3 -19 -1z"/>
<path d="M16770 40584 c0 -1 8 -8 17 -15 9 -8 14 -9 10 -2 -4 6 -1 13 5 16 7
3 3 4 -9 4 -13 -1 -23 -2 -23 -3z"/>
<path d="M16826 40568 c3 -4 11 -5 19 -1 21 7 19 12 -4 10 -11 0 -18 -5 -15
-9z"/>
<path d="M15800 40546 c7 -7 13 -7 20 0 6 6 3 10 -10 10 -13 0 -16 -4 -10 -10z"/>
<path d="M15896 40552 c-3 -5 1 -9 9 -9 8 0 12 4 9 9 -3 4 -7 8 -9 8 -2 0 -6
-4 -9 -8z"/>
<path d="M15770 40534 c0 -8 5 -12 10 -9 6 4 8 11 5 16 -9 14 -15 11 -15 -7z"/>
<path d="M15796 40521 c-4 -5 3 -7 14 -4 23 6 26 13 6 13 -8 0 -17 -4 -20 -9z"/>
<path d="M15876 40509 c2 -4 -2 -10 -8 -12 -7 -3 -8 -6 -2 -6 5 -1 18 5 28 12
16 12 16 13 -3 13 -11 0 -18 -3 -15 -7z"/>
<path d="M15780 39666 c0 -2 8 -10 18 -17 15 -13 16 -12 3 4 -13 16 -21 21
-21 13z"/>
<path d="M15820 39655 c7 -9 15 -13 18 -10 3 3 12 -1 21 -7 9 -7 13 -8 9 -4
-4 5 -3 15 3 23 9 9 8 13 0 13 -6 0 -11 -6 -11 -12 0 -10 -3 -9 -9 1 -7 11 -9
11 -14 0 -4 -10 -6 -10 -6 -1 -1 6 -6 12 -12 12 -8 0 -7 -5 1 -15z"/>
<path d="M15764 39639 c-3 -6 -3 -13 0 -16 3 -4 6 -1 6 7 0 10 3 10 15 0 9 -7
17 -11 20 -9 2 3 -4 10 -15 17 -13 8 -21 8 -26 1z"/>
<path d="M15840 39616 c15 -7 32 -9 41 -5 9 5 20 5 24 1 5 -4 5 -1 1 6 -5 9
-13 9 -26 2 -13 -7 -21 -7 -25 0 -3 5 -14 10 -23 10 -12 0 -10 -4 8 -14z"/>
<path d="M16755 38783 c3 -3 -2 -11 -11 -17 -13 -10 -13 -12 4 -12 19 0 24 19
9 31 -4 3 -5 2 -2 -2z"/>
<path d="M16791 38760 c-10 -5 -9 -8 2 -13 7 -3 19 -2 26 3 10 5 9 8 -2 13 -7
3 -19 2 -26 -3z"/>
<path d="M16852 38746 c7 -8 15 -12 17 -11 5 6 -10 25 -20 25 -5 0 -4 -6 3
-14z"/>
<path d="M17038 38753 c89 -2 235 -2 325 0 89 1 16 3 -163 3 -179 0 -252 -2
-162 -3z"/>
<path d="M15820 38716 c0 -3 9 -10 20 -16 11 -6 20 -8 20 -6 0 3 -9 10 -20 16
-11 6 -20 8 -20 6z"/>
<path d="M15873 38704 c0 -7 7 -10 15 -6 11 4 13 1 7 -9 -5 -8 -4 -11 0 -6 16
14 13 33 -5 33 -9 0 -17 -6 -17 -12z"/>
<path d="M15795 38700 c3 -5 11 -10 16 -10 6 0 7 5 4 10 -3 6 -11 10 -16 10
-6 0 -7 -4 -4 -10z"/>
<path d="M17530 38700 c0 -5 5 -10 11 -10 5 0 7 5 4 10 -3 6 -8 10 -11 10 -2
0 -4 -4 -4 -10z"/>
<path d="M15846 38669 c2 -4 -2 -9 -8 -12 -7 -3 -3 -4 9 -4 12 1 19 5 17 9
-10 16 9 8 23 -9 13 -16 13 -16 4 4 -6 12 -19 21 -30 20 -11 0 -18 -4 -15 -8z"/>
<path d="M15830 37910 c0 -5 5 -10 11 -10 5 0 7 5 4 10 -3 6 -8 10 -11 10 -2
0 -4 -4 -4 -10z"/>
<path d="M15860 37900 c0 -5 5 -10 11 -10 5 0 7 5 4 10 -3 6 -8 10 -11 10 -2
0 -4 -4 -4 -10z"/>
<path d="M16830 37830 c-9 -6 -10 -10 -3 -10 6 0 15 5 18 10 8 12 4 12 -15 0z"/>
<path d="M16862 37828 c-15 -15 -16 -31 0 -26 6 2 12 12 14 21 3 20 2 21 -14
5z"/>
<path d="M16745 37810 c-4 -6 -11 -7 -17 -4 -7 4 -8 2 -4 -5 6 -9 11 -9 22 0
14 11 18 19 10 19 -3 0 -8 -5 -11 -10z"/>
<path d="M16805 37790 c4 -7 -3 -9 -18 -6 -13 2 -30 0 -38 -6 -11 -8 -11 -9 2
-5 9 3 20 2 25 -3 5 -5 20 -3 33 4 20 11 21 14 7 19 -10 4 -15 3 -11 -3z"/>
<path d="M16775 36950 c-3 -5 -13 -7 -23 -4 -13 5 -14 4 -3 -4 8 -6 25 -8 38
-6 15 3 22 1 18 -6 -3 -6 0 -7 10 -4 18 7 18 7 -12 23 -14 7 -24 7 -28 1z"/>
<path d="M16724 36918 c-4 -7 -4 -10 1 -6 4 4 15 2 24 -5 14 -11 14 -10 2 6
-16 20 -18 21 -27 5z"/>
<path d="M17533 36915 c0 -8 4 -12 9 -9 5 3 6 10 3 15 -9 13 -12 11 -12 -6z"/>
<path d="M16850 36912 c0 -5 6 -15 14 -21 12 -10 14 -9 12 5 -3 19 -26 33 -26
16z"/>
<path d="M16820 36896 c0 -2 7 -7 16 -10 8 -3 12 -2 9 4 -6 10 -25 14 -25 6z"/>
<path d="M15856 36872 c-3 -5 1 -9 9 -9 8 0 12 4 9 9 -3 4 -7 8 -9 8 -2 0 -6
-4 -9 -8z"/>
<path d="M15857 36844 c-3 -3 -3 -12 0 -20 4 -10 0 -12 -11 -8 -9 3 -16 2 -16
-4 0 -13 27 -9 42 6 9 9 9 12 -1 12 -7 0 -9 5 -6 10 7 11 2 14 -8 4z"/>
<path d="M15885 36810 c-3 -5 -1 -10 4 -10 6 0 11 5 11 10 0 6 -2 10 -4 10 -3
0 -8 -4 -11 -10z"/>
<path d="M15884 36065 c-4 -8 -10 -15 -16 -15 -5 0 -7 4 -4 8 2 4 -5 8 -17 9
-12 0 -16 -1 -9 -4 6 -3 10 -8 8 -12 -3 -4 4 -8 15 -8 10 -1 24 7 29 18 6 10
8 19 5 19 -3 0 -8 -7 -11 -15z"/>
<path d="M15895 36031 c6 -10 4 -13 -7 -9 -8 4 -15 1 -15 -6 0 -6 8 -12 17
-12 18 0 21 19 5 33 -4 5 -5 2 0 -6z"/>
<path d="M15795 36020 c-3 -5 -2 -10 4 -10 5 0 13 5 16 10 3 6 2 10 -4 10 -5
0 -13 -4 -16 -10z"/>
<path d="M15834 36014 c-18 -14 -18 -15 4 -4 12 6 22 13 22 15 0 8 -5 6 -26
-11z"/>
<path d="M17530 36021 c0 -6 4 -12 8 -15 5 -3 9 1 9 9 0 8 -4 15 -9 15 -4 0
-8 -4 -8 -9z"/>
<path d="M16852 35974 c-7 -8 -8 -14 -3 -14 10 0 25 19 20 25 -2 1 -10 -3 -17
-11z"/>
<path d="M16735 35971 c-3 -5 -2 -12 3 -15 5 -3 9 1 9 9 0 17 -3 19 -12 6z"/>
<path d="M16795 35970 c-8 -13 9 -20 24 -11 10 6 9 10 -3 14 -8 3 -18 2 -21
-3z"/>
<path d="M15840 35104 c-18 -10 -20 -14 -8 -14 9 0 20 5 23 10 4 7 12 7 25 0
13 -7 21 -7 26 2 4 7 4 10 -1 6 -4 -4 -15 -4 -24 1 -9 4 -26 2 -41 -5z"/>
<path d="M15760 35093 c0 -19 14 -22 35 -7 10 8 14 14 8 14 -7 0 -15 -5 -19
-11 -4 -8 -9 -7 -15 2 -6 10 -9 10 -9 2z"/>
<path d="M15855 35080 c-4 -6 -10 -8 -15 -5 -4 3 -13 -2 -20 -10 -9 -10 -9
-15 -1 -15 6 0 11 6 11 13 0 9 3 8 9 -2 7 -11 9 -11 14 0 4 10 6 10 6 2 1 -7
6 -13 12 -13 8 0 9 4 0 13 -6 8 -8 17 -4 20 3 4 4 7 0 7 -3 0 -9 -5 -12 -10z"/>
<path d="M15789 35063 c-13 -16 -12 -17 4 -4 16 13 21 21 13 21 -2 0 -10 -8
-17 -17z"/>
<path d="M15868 34223 c6 -2 10 -8 8 -12 -3 -4 4 -7 15 -7 19 0 19 1 3 13 -10
7 -23 13 -28 12 -6 0 -5 -3 2 -6z"/>
<path d="M15798 34198 c5 -5 16 -8 23 -6 8 3 3 7 -10 11 -17 4 -21 3 -13 -5z"/>
<path d="M15770 34184 c0 -8 5 -12 10 -9 6 4 8 11 5 16 -9 14 -15 11 -15 -7z"/>
<path d="M15800 34176 c0 -2 7 -7 16 -10 8 -3 12 -2 9 4 -6 10 -25 14 -25 6z"/>
<path d="M15896 34168 c3 -5 10 -6 15 -3 13 9 11 12 -6 12 -8 0 -12 -4 -9 -9z"/>
<path d="M16782 34147 c-8 -10 -6 -13 11 -14 12 0 16 1 9 4 -6 3 -10 9 -6 14
8 14 -2 11 -14 -4z"/>
<path d="M16826 34152 c-3 -4 4 -9 15 -9 23 -2 25 3 4 10 -8 4 -16 3 -19 -1z"/>
<path d="M16770 33304 c0 -1 8 -8 17 -15 9 -8 14 -9 10 -2 -4 6 -1 13 5 16 7
3 3 4 -9 4 -13 -1 -23 -2 -23 -3z"/>
<path d="M16826 33288 c3 -4 11 -5 19 -1 21 7 19 12 -4 10 -11 0 -18 -5 -15
-9z"/>
<path d="M15800 33266 c7 -7 13 -7 20 0 6 6 3 10 -10 10 -13 0 -16 -4 -10 -10z"/>
<path d="M15896 33272 c-3 -5 1 -9 9 -9 8 0 12 4 9 9 -3 4 -7 8 -9 8 -2 0 -6
-4 -9 -8z"/>
<path d="M15770 33254 c0 -8 5 -12 10 -9 6 4 8 11 5 16 -9 14 -15 11 -15 -7z"/>
<path d="M15796 33241 c-4 -5 3 -7 14 -4 23 6 26 13 6 13 -8 0 -17 -4 -20 -9z"/>
<path d="M15876 33229 c2 -4 -2 -10 -8 -12 -7 -3 -8 -6 -2 -6 5 -1 18 5 28 12
16 12 16 13 -3 13 -11 0 -18 -3 -15 -7z"/>
<path d="M15780 32386 c0 -2 8 -10 18 -17 15 -13 16 -12 3 4 -13 16 -21 21
-21 13z"/>
<path d="M15820 32375 c7 -9 15 -13 18 -10 3 3 12 -1 21 -7 9 -7 13 -8 9 -4
-4 5 -3 15 3 23 9 9 8 13 0 13 -6 0 -11 -6 -11 -12 0 -10 -3 -9 -9 1 -7 11 -9
11 -14 0 -4 -10 -6 -10 -6 -1 -1 6 -6 12 -12 12 -8 0 -7 -5 1 -15z"/>
<path d="M15764 32359 c-3 -6 -3 -13 0 -16 3 -4 6 -1 6 7 0 10 3 10 15 0 9 -7
17 -11 20 -9 2 3 -4 10 -15 17 -13 8 -21 8 -26 1z"/>
<path d="M15840 32336 c15 -7 32 -9 41 -5 9 5 20 5 24 1 5 -4 5 -1 1 6 -5 9
-13 9 -26 2 -13 -7 -21 -7 -25 0 -3 5 -14 10 -23 10 -12 0 -10 -4 8 -14z"/>
<path d="M16755 31503 c3 -3 -2 -11 -11 -17 -13 -10 -13 -12 4 -12 19 0 24 19
9 31 -4 3 -5 2 -2 -2z"/>
<path d="M16791 31480 c-10 -5 -9 -8 2 -13 7 -3 19 -2 26 3 10 5 9 8 -2 13 -7
3 -19 2 -26 -3z"/>
<path d="M16852 31466 c7 -8 15 -12 17 -11 5 6 -10 25 -20 25 -5 0 -4 -6 3
-14z"/>
<path d="M17038 31473 c89 -2 235 -2 325 0 89 1 16 3 -163 3 -179 0 -252 -2
-162 -3z"/>
<path d="M15820 31436 c0 -3 9 -10 20 -16 11 -6 20 -8 20 -6 0 3 -9 10 -20 16
-11 6 -20 8 -20 6z"/>
<path d="M15873 31424 c0 -7 7 -10 15 -6 11 4 13 1 7 -9 -5 -8 -4 -11 0 -6 16
14 13 33 -5 33 -9 0 -17 -6 -17 -12z"/>
<path d="M15795 31420 c3 -5 11 -10 16 -10 6 0 7 5 4 10 -3 6 -11 10 -16 10
-6 0 -7 -4 -4 -10z"/>
<path d="M17530 31420 c0 -5 5 -10 11 -10 5 0 7 5 4 10 -3 6 -8 10 -11 10 -2
0 -4 -4 -4 -10z"/>
<path d="M15846 31389 c2 -4 -2 -9 -8 -12 -7 -3 -3 -4 9 -4 12 1 19 5 17 9
-10 16 9 8 23 -9 13 -16 13 -16 4 4 -6 12 -19 21 -30 20 -11 0 -18 -4 -15 -8z"/>
<path d="M15830 30630 c0 -5 5 -10 11 -10 5 0 7 5 4 10 -3 6 -8 10 -11 10 -2
0 -4 -4 -4 -10z"/>
<path d="M15860 30620 c0 -5 5 -10 11 -10 5 0 7 5 4 10 -3 6 -8 10 -11 10 -2
0 -4 -4 -4 -10z"/>
<path d="M16830 30550 c-9 -6 -10 -10 -3 -10 6 0 15 5 18 10 8 12 4 12 -15 0z"/>
<path d="M16862 30548 c-15 -15 -16 -31 0 -26 6 2 12 12 14 21 3 20 2 21 -14
5z"/>
<path d="M16745 30530 c-4 -6 -11 -7 -17 -4 -7 4 -8 2 -4 -5 6 -9 11 -9 22 0
14 11 18 19 10 19 -3 0 -8 -5 -11 -10z"/>
<path d="M16805 30510 c4 -7 -3 -9 -18 -6 -13 2 -30 0 -38 -6 -11 -8 -11 -9 2
-5 9 3 20 2 25 -3 5 -5 20 -3 33 4 20 11 21 14 7 19 -10 4 -15 3 -11 -3z"/>
<path d="M16775 29670 c-3 -5 -13 -7 -23 -4 -13 5 -14 4 -3 -4 8 -6 25 -8 38
-6 15 3 22 1 18 -6 -3 -6 0 -7 10 -4 18 7 18 7 -12 23 -14 7 -24 7 -28 1z"/>
<path d="M16724 29638 c-4 -7 -4 -10 1 -6 4 4 15 2 24 -5 14 -11 14 -10 2 6
-16 20 -18 21 -27 5z"/>
<path d="M17533 29635 c0 -8 4 -12 9 -9 5 3 6 10 3 15 -9 13 -12 11 -12 -6z"/>
<path d="M16850 29632 c0 -5 6 -15 14 -21 12 -10 14 -9 12 5 -3 19 -26 33 -26
16z"/>
<path d="M16820 29616 c0 -2 7 -7 16 -10 8 -3 12 -2 9 4 -6 10 -25 14 -25 6z"/>
<path d="M15856 29592 c-3 -5 1 -9 9 -9 8 0 12 4 9 9 -3 4 -7 8 -9 8 -2 0 -6
-4 -9 -8z"/>
<path d="M15857 29564 c-3 -3 -3 -12 0 -20 4 -10 0 -12 -11 -8 -9 3 -16 2 -16
-4 0 -13 27 -9 42 6 9 9 9 12 -1 12 -7 0 -9 5 -6 10 7 11 2 14 -8 4z"/>
<path d="M15885 29530 c-3 -5 -1 -10 4 -10 6 0 11 5 11 10 0 6 -2 10 -4 10 -3
0 -8 -4 -11 -10z"/>
<path d="M15884 28785 c-4 -8 -10 -15 -16 -15 -5 0 -7 4 -4 8 2 4 -5 8 -17 9
-12 0 -16 -1 -9 -4 6 -3 10 -8 8 -12 -3 -4 4 -8 15 -8 10 -1 24 7 29 18 6 10
8 19 5 19 -3 0 -8 -7 -11 -15z"/>
<path d="M15895 28751 c6 -10 4 -13 -7 -9 -8 4 -15 1 -15 -6 0 -6 8 -12 17
-12 18 0 21 19 5 33 -4 5 -5 2 0 -6z"/>
<path d="M15795 28740 c-3 -5 -2 -10 4 -10 5 0 13 5 16 10 3 6 2 10 -4 10 -5
0 -13 -4 -16 -10z"/>
<path d="M15834 28734 c-18 -14 -18 -15 4 -4 12 6 22 13 22 15 0 8 -5 6 -26
-11z"/>
<path d="M17530 28741 c0 -6 4 -12 8 -15 5 -3 9 1 9 9 0 8 -4 15 -9 15 -4 0
-8 -4 -8 -9z"/>
<path d="M16852 28694 c-7 -8 -8 -14 -3 -14 10 0 25 19 20 25 -2 1 -10 -3 -17
-11z"/>
<path d="M16735 28691 c-3 -5 -2 -12 3 -15 5 -3 9 1 9 9 0 17 -3 19 -12 6z"/>
<path d="M16795 28690 c-8 -13 9 -20 24 -11 10 6 9 10 -3 14 -8 3 -18 2 -21
-3z"/>
<path d="M15840 27824 c-18 -10 -20 -14 -8 -14 9 0 20 5 23 10 4 7 12 7 25 0
13 -7 21 -7 26 2 4 7 4 10 -1 6 -4 -4 -15 -4 -24 1 -9 4 -26 2 -41 -5z"/>
<path d="M15760 27813 c0 -19 14 -22 35 -7 10 8 14 14 8 14 -7 0 -15 -5 -19
-11 -4 -8 -9 -7 -15 2 -6 10 -9 10 -9 2z"/>
<path d="M15855 27800 c-4 -6 -10 -8 -15 -5 -4 3 -13 -2 -20 -10 -9 -10 -9
-15 -1 -15 6 0 11 6 11 13 0 9 3 8 9 -2 7 -11 9 -11 14 0 4 10 6 10 6 2 1 -7
6 -13 12 -13 8 0 9 4 0 13 -6 8 -8 17 -4 20 3 4 4 7 0 7 -3 0 -9 -5 -12 -10z"/>
<path d="M15789 27783 c-13 -16 -12 -17 4 -4 16 13 21 21 13 21 -2 0 -10 -8
-17 -17z"/>
<path d="M15868 26943 c6 -2 10 -8 8 -12 -3 -4 4 -7 15 -7 19 0 19 1 3 13 -10
7 -23 13 -28 12 -6 0 -5 -3 2 -6z"/>
<path d="M15798 26918 c5 -5 16 -8 23 -6 8 3 3 7 -10 11 -17 4 -21 3 -13 -5z"/>
<path d="M15770 26904 c0 -8 5 -12 10 -9 6 4 8 11 5 16 -9 14 -15 11 -15 -7z"/>
<path d="M15800 26896 c0 -2 7 -7 16 -10 8 -3 12 -2 9 4 -6 10 -25 14 -25 6z"/>
<path d="M15896 26888 c3 -5 10 -6 15 -3 13 9 11 12 -6 12 -8 0 -12 -4 -9 -9z"/>
<path d="M16782 26867 c-8 -10 -6 -13 11 -14 12 0 16 1 9 4 -6 3 -10 9 -6 14
8 14 -2 11 -14 -4z"/>
<path d="M16826 26872 c-3 -4 4 -9 15 -9 23 -2 25 3 4 10 -8 4 -16 3 -19 -1z"/>
<path d="M16770 26024 c0 -1 8 -8 17 -15 9 -8 14 -9 10 -2 -4 6 -1 13 5 16 7
3 3 4 -9 4 -13 -1 -23 -2 -23 -3z"/>
<path d="M16826 26008 c3 -4 11 -5 19 -1 21 7 19 12 -4 10 -11 0 -18 -5 -15
-9z"/>
<path d="M15800 25986 c7 -7 13 -7 20 0 6 6 3 10 -10 10 -13 0 -16 -4 -10 -10z"/>
<path d="M15896 25992 c-3 -5 1 -9 9 -9 8 0 12 4 9 9 -3 4 -7 8 -9 8 -2 0 -6
-4 -9 -8z"/>
<path d="M15770 25974 c0 -8 5 -12 10 -9 6 4 8 11 5 16 -9 14 -15 11 -15 -7z"/>
<path d="M15796 25961 c-4 -5 3 -7 14 -4 23 6 26 13 6 13 -8 0 -17 -4 -20 -9z"/>
<path d="M15876 25949 c2 -4 -2 -10 -8 -12 -7 -3 -8 -6 -2 -6 5 -1 18 5 28 12
16 12 16 13 -3 13 -11 0 -18 -3 -15 -7z"/>
<path d="M15780 25106 c0 -2 8 -10 18 -17 15 -13 16 -12 3 4 -13 16 -21 21
-21 13z"/>
<path d="M15820 25095 c7 -9 15 -13 18 -10 3 3 12 -1 21 -7 9 -7 13 -8 9 -4
-4 5 -3 15 3 23 9 9 8 13 0 13 -6 0 -11 -6 -11 -12 0 -10 -3 -9 -9 1 -7 11 -9
11 -14 0 -4 -10 -6 -10 -6 -1 -1 6 -6 12 -12 12 -8 0 -7 -5 1 -15z"/>
<path d="M15764 25079 c-3 -6 -3 -13 0 -16 3 -4 6 -1 6 7 0 10 3 10 15 0 9 -7
17 -11 20 -9 2 3 -4 10 -15 17 -13 8 -21 8 -26 1z"/>
<path d="M15840 25056 c15 -7 32 -9 41 -5 9 5 20 5 24 1 5 -4 5 -1 1 6 -5 9
-13 9 -26 2 -13 -7 -21 -7 -25 0 -3 5 -14 10 -23 10 -12 0 -10 -4 8 -14z"/>
<path d="M16755 24223 c3 -3 -2 -11 -11 -17 -13 -10 -13 -12 4 -12 19 0 24 19
9 31 -4 3 -5 2 -2 -2z"/>
<path d="M16791 24200 c-10 -5 -9 -8 2 -13 7 -3 19 -2 26 3 10 5 9 8 -2 13 -7
3 -19 2 -26 -3z"/>
<path d="M16852 24186 c7 -8 15 -12 17 -11 5 6 -10 25 -20 25 -5 0 -4 -6 3
-14z"/>
<path d="M17038 24193 c89 -2 235 -2 325 0 89 1 16 3 -163 3 -179 0 -252 -2
-162 -3z"/>
<path d="M15820 24156 c0 -3 9 -10 20 -16 11 -6 20 -8 20 -6 0 3 -9 10 -20 16
-11 6 -20 8 -20 6z"/>
<path d="M15873 24144 c0 -7 7 -10 15 -6 11 4 13 1 7 -9 -5 -8 -4 -11 0 -6 16
14 13 33 -5 33 -9 0 -17 -6 -17 -12z"/>
<path d="M15795 24140 c3 -5 11 -10 16 -10 6 0 7 5 4 10 -3 6 -11 10 -16 10
-6 0 -7 -4 -4 -10z"/>
<path d="M17530 24140 c0 -5 5 -10 11 -10 5 0 7 5 4 10 -3 6 -8 10 -11 10 -2
0 -4 -4 -4 -10z"/>
<path d="M15846 24109 c2 -4 -2 -9 -8 -12 -7 -3 -3 -4 9 -4 12 1 19 5 17 9
-10 16 9 8 23 -9 13 -16 13 -16 4 4 -6 12 -19 21 -30 20 -11 0 -18 -4 -15 -8z"/>
<path d="M15830 23350 c0 -5 5 -10 11 -10 5 0 7 5 4 10 -3 6 -8 10 -11 10 -2
0 -4 -4 -4 -10z"/>
<path d="M15860 23340 c0 -5 5 -10 11 -10 5 0 7 5 4 10 -3 6 -8 10 -11 10 -2
0 -4 -4 -4 -10z"/>
<path d="M16830 23270 c-9 -6 -10 -10 -3 -10 6 0 15 5 18 10 8 12 4 12 -15 0z"/>
<path d="M16862 23268 c-15 -15 -16 -31 0 -26 6 2 12 12 14 21 3 20 2 21 -14
5z"/>
<path d="M16745 23250 c-4 -6 -11 -7 -17 -4 -7 4 -8 2 -4 -5 6 -9 11 -9 22 0
14 11 18 19 10 19 -3 0 -8 -5 -11 -10z"/>
<path d="M16805 23230 c4 -7 -3 -9 -18 -6 -13 2 -30 0 -38 -6 -11 -8 -11 -9 2
-5 9 3 20 2 25 -3 5 -5 20 -3 33 4 20 11 21 14 7 19 -10 4 -15 3 -11 -3z"/>
<path d="M16775 22390 c-3 -5 -13 -7 -23 -4 -13 5 -14 4 -3 -4 8 -6 25 -8 38
-6 15 3 22 1 18 -6 -3 -6 0 -7 10 -4 18 7 18 7 -12 23 -14 7 -24 7 -28 1z"/>
<path d="M16724 22358 c-4 -7 -4 -10 1 -6 4 4 15 2 24 -5 14 -11 14 -10 2 6
-16 20 -18 21 -27 5z"/>
<path d="M17533 22355 c0 -8 4 -12 9 -9 5 3 6 10 3 15 -9 13 -12 11 -12 -6z"/>
<path d="M16850 22352 c0 -5 6 -15 14 -21 12 -10 14 -9 12 5 -3 19 -26 33 -26
16z"/>
<path d="M16820 22336 c0 -2 7 -7 16 -10 8 -3 12 -2 9 4 -6 10 -25 14 -25 6z"/>
<path d="M15856 22312 c-3 -5 1 -9 9 -9 8 0 12 4 9 9 -3 4 -7 8 -9 8 -2 0 -6
-4 -9 -8z"/>
<path d="M15857 22284 c-3 -3 -3 -12 0 -20 4 -10 0 -12 -11 -8 -9 3 -16 2 -16
-4 0 -13 27 -9 42 6 9 9 9 12 -1 12 -7 0 -9 5 -6 10 7 11 2 14 -8 4z"/>
<path d="M15885 22250 c-3 -5 -1 -10 4 -10 6 0 11 5 11 10 0 6 -2 10 -4 10 -3
0 -8 -4 -11 -10z"/>
<path d="M15884 21505 c-4 -8 -10 -15 -16 -15 -5 0 -7 4 -4 8 2 4 -5 8 -17 9
-12 0 -16 -1 -9 -4 6 -3 10 -8 8 -12 -3 -4 4 -8 15 -8 10 -1 24 7 29 18 6 10
8 19 5 19 -3 0 -8 -7 -11 -15z"/>
<path d="M15895 21471 c6 -10 4 -13 -7 -9 -8 4 -15 1 -15 -6 0 -6 8 -12 17
-12 18 0 21 19 5 33 -4 5 -5 2 0 -6z"/>
<path d="M15795 21460 c-3 -5 -2 -10 4 -10 5 0 13 5 16 10 3 6 2 10 -4 10 -5
0 -13 -4 -16 -10z"/>
<path d="M15834 21454 c-18 -14 -18 -15 4 -4 12 6 22 13 22 15 0 8 -5 6 -26
-11z"/>
<path d="M17530 21461 c0 -6 4 -12 8 -15 5 -3 9 1 9 9 0 8 -4 15 -9 15 -4 0
-8 -4 -8 -9z"/>
<path d="M16852 21414 c-7 -8 -8 -14 -3 -14 10 0 25 19 20 25 -2 1 -10 -3 -17
-11z"/>
<path d="M16735 21411 c-3 -5 -2 -12 3 -15 5 -3 9 1 9 9 0 17 -3 19 -12 6z"/>
<path d="M16795 21410 c-8 -13 9 -20 24 -11 10 6 9 10 -3 14 -8 3 -18 2 -21
-3z"/>
<path d="M15840 20544 c-18 -10 -20 -14 -8 -14 9 0 20 5 23 10 4 7 12 7 25 0
13 -7 21 -7 26 2 4 7 4 10 -1 6 -4 -4 -15 -4 -24 1 -9 4 -26 2 -41 -5z"/>
<path d="M15760 20533 c0 -19 14 -22 35 -7 10 8 14 14 8 14 -7 0 -15 -5 -19
-11 -4 -8 -9 -7 -15 2 -6 10 -9 10 -9 2z"/>
<path d="M15855 20520 c-4 -6 -10 -8 -15 -5 -4 3 -13 -2 -20 -10 -9 -10 -9
-15 -1 -15 6 0 11 6 11 13 0 9 3 8 9 -2 7 -11 9 -11 14 0 4 10 6 10 6 2 1 -7
6 -13 12 -13 8 0 9 4 0 13 -6 8 -8 17 -4 20 3 4 4 7 0 7 -3 0 -9 -5 -12 -10z"/>
<path d="M15789 20503 c-13 -16 -12 -17 4 -4 9 7 17 15 17 17 0 8 -8 3 -21
-13z"/>
<path d="M15868 19663 c6 -2 10 -8 8 -12 -3 -4 4 -7 15 -7 19 0 19 1 3 13 -10
7 -23 13 -28 12 -6 0 -5 -3 2 -6z"/>
<path d="M15798 19638 c5 -5 16 -8 23 -6 8 3 3 7 -10 11 -17 4 -21 3 -13 -5z"/>
<path d="M15770 19624 c0 -8 5 -12 10 -9 6 4 8 11 5 16 -9 14 -15 11 -15 -7z"/>
<path d="M15800 19616 c0 -2 7 -7 16 -10 8 -3 12 -2 9 4 -6 10 -25 14 -25 6z"/>
<path d="M15896 19608 c3 -5 10 -6 15 -3 13 9 11 12 -6 12 -8 0 -12 -4 -9 -9z"/>
<path d="M16782 19587 c-8 -10 -6 -13 11 -14 12 0 16 1 9 4 -6 3 -10 9 -6 14
8 14 -2 11 -14 -4z"/>
<path d="M16826 19592 c-3 -4 4 -9 15 -9 23 -2 25 3 4 10 -8 4 -16 3 -19 -1z"/>
<path d="M16795 18790 c-3 -5 -1 -10 4 -10 6 0 11 5 11 10 0 6 -2 10 -4 10 -3
0 -8 -4 -11 -10z"/>
<path d="M16765 18780 c-3 -5 -1 -10 4 -10 6 0 11 5 11 10 0 6 -2 10 -4 10 -3
0 -8 -4 -11 -10z"/>
<path d="M15764 18704 c2 -10 8 -20 14 -22 17 -5 15 13 -2 27 -12 10 -14 9
-12 -5z"/>
<path d="M15797 18709 c7 -7 15 -10 18 -7 3 3 -2 9 -12 12 -14 6 -15 5 -6 -5z"/>
<path d="M15880 18697 c0 -2 6 -10 14 -16 11 -9 16 -9 22 1 4 7 4 10 -1 6 -4
-4 -14 -3 -22 3 -7 6 -13 9 -13 6z"/>
<path d="M15822 18672 c-9 -6 -6 -12 12 -20 15 -7 28 -7 31 -2 3 5 13 7 23 4
13 -5 14 -4 3 4 -8 6 -25 8 -38 6 -15 -3 -22 -1 -18 6 7 12 4 12 -13 2z"/>
<path d="M15831 17826 c-20 -11 -21 -14 -7 -19 10 -4 15 -3 11 3 -4 7 3 9 18
6 13 -2 30 0 38 6 11 8 11 9 -2 5 -9 -3 -20 -2 -25 3 -5 5 -20 3 -33 -4z"/>
<path d="M15889 17793 c-12 -16 -12 -17 2 -6 9 7 20 9 24 5 5 -4 5 -1 1 6 -9
16 -11 15 -27 -5z"/>
<path d="M17533 17795 c0 -8 4 -12 9 -9 5 3 6 10 3 15 -9 13 -12 11 -12 -6z"/>
<path d="M15769 17798 c0 -2 -2 -11 -4 -21 -3 -15 -1 -16 11 -6 16 13 19 29 4
29 -5 0 -10 -1 -11 -2z"/>
<path d="M15795 17770 c-3 -6 1 -7 9 -4 18 7 21 14 7 14 -6 0 -13 -4 -16 -10z"/>
<path d="M16766 17752 c-3 -5 1 -9 9 -9 8 0 12 4 9 9 -3 4 -7 8 -9 8 -2 0 -6
-4 -9 -8z"/>
<path d="M16774 17722 c4 -7 2 -12 -5 -12 -10 0 -10 -3 -1 -12 15 -15 42 -19
42 -6 0 6 -7 7 -16 4 -12 -4 -15 -2 -11 9 4 8 1 17 -5 21 -7 4 -8 3 -4 -4z"/>
<path d="M16740 17690 c0 -5 5 -10 11 -10 5 0 7 5 4 10 -3 6 -8 10 -11 10 -2
0 -4 -4 -4 -10z"/>
<path d="M16749 16943 c6 -12 19 -21 30 -20 11 0 18 4 15 8 -2 4 2 9 8 12 7 3
3 4 -9 4 -12 -1 -19 -5 -17 -9 10 -16 -9 -8 -23 10 -13 15 -13 15 -4 -5z"/>
<path d="M16739 16918 c-7 -24 -4 -34 11 -34 9 0 17 6 17 12 0 7 -7 10 -15 6
-10 -3 -13 -1 -8 6 4 7 5 12 2 12 -3 0 -6 -1 -7 -2z"/>
<path d="M16780 16906 c0 -3 9 -10 20 -16 11 -6 20 -8 20 -6 0 3 -9 10 -20 16
-11 6 -20 8 -20 6z"/>
<path d="M16825 16900 c3 -5 11 -10 16 -10 6 0 7 5 4 10 -3 6 -11 10 -16 10
-6 0 -7 -4 -4 -10z"/>
<path d="M17530 16901 c0 -6 4 -12 8 -15 5 -3 9 1 9 9 0 8 -4 15 -9 15 -4 0
-8 -4 -8 -9z"/>
<path d="M15770 16861 c0 -10 19 -25 25 -20 1 2 -3 10 -11 17 -8 7 -14 8 -14
3z"/>
<path d="M15821 16850 c-10 -5 -9 -8 2 -13 7 -3 19 -2 26 3 10 5 9 8 -2 13 -7
3 -19 2 -26 -3z"/>
<path d="M15874 16833 c1 -7 4 -14 7 -15 2 -2 3 -1 2 1 -2 2 4 9 13 15 13 10
13 12 -4 12 -11 0 -19 -6 -18 -13z"/>
<path d="M16759 15989 c-7 -4 -17 -5 -23 -2 -5 3 -6 1 -2 -5 5 -8 13 -9 25 -2
12 6 22 5 29 -2 5 -5 15 -9 21 -7 6 2 0 9 -13 15 -14 6 -30 8 -37 3z"/>
<path d="M16845 15966 c21 -15 35 -12 35 7 0 8 -3 8 -9 -2 -6 -9 -11 -10 -15
-2 -4 6 -12 11 -19 11 -6 0 -2 -6 8 -14z"/>
<path d="M16772 15966 c4 -5 3 -15 -3 -23 -9 -9 -8 -13 0 -13 6 0 11 6 11 13
0 9 3 8 9 -2 7 -11 9 -11 14 0 4 10 6 10 6 2 1 -7 6 -13 12 -13 8 0 7 5 -1 15
-7 9 -15 13 -18 10 -3 -3 -12 1 -21 7 -9 7 -13 8 -9 4z"/>
<path d="M16830 15956 c0 -2 8 -10 18 -17 15 -13 16 -12 3 4 -13 16 -21 21
-21 13z"/>
<path d="M16746 15097 c-16 -12 -16 -13 3 -13 11 0 18 3 15 7 -2 4 2 10 8 12
7 3 8 6 2 6 -5 1 -18 -5 -28 -12z"/>
<path d="M16825 15080 c-16 -7 -17 -9 -3 -9 9 -1 20 4 23 9 7 11 7 11 -20 0z"/>
<path d="M16855 15071 c-3 -5 -1 -12 5 -16 5 -3 10 1 10 9 0 18 -6 21 -15 7z"/>
<path d="M16726 15048 c3 -5 10 -6 15 -3 13 9 11 12 -6 12 -8 0 -12 -4 -9 -9z"/>
<path d="M16815 15050 c-3 -6 1 -7 9 -4 18 7 21 14 7 14 -6 0 -13 -4 -16 -10z"/>
<path d="M15790 15030 c-12 -7 -10 -9 7 -7 12 0 19 5 17 9 -6 10 -6 10 -24 -2z"/>
<path d="M15844 15031 c4 -5 0 -11 -6 -14 -7 -3 -3 -4 9 -4 17 1 19 4 11 14
-12 15 -22 18 -14 4z"/>
<path d="M15838 14183 c6 -3 10 -9 6 -14 -8 -14 2 -11 14 4 8 10 6 13 -11 14
-12 0 -16 -1 -9 -4z"/>
<path d="M15780 14175 c0 -7 30 -13 34 -7 3 4 -4 9 -15 9 -10 1 -19 0 -19 -2z"/>
<path d="M16726 14152 c-3 -5 1 -9 9 -9 8 0 12 4 9 9 -3 4 -7 8 -9 8 -2 0 -6
-4 -9 -8z"/>
<path d="M16820 14146 c7 -7 13 -7 20 0 6 6 3 10 -10 10 -13 0 -16 -4 -10 -10z"/>
<path d="M16855 14141 c-3 -5 -1 -12 5 -16 5 -3 10 1 10 9 0 18 -6 21 -15 7z"/>
<path d="M16810 14126 c0 -2 9 -6 20 -9 11 -3 18 -1 14 4 -5 9 -34 13 -34 5z"/>
<path d="M16746 14103 c10 -7 23 -13 28 -12 6 0 5 3 -2 6 -6 2 -10 8 -8 12 3
4 -4 7 -15 7 -19 0 -19 -1 -3 -13z"/>
<path d="M16769 13257 c6 -8 7 -18 3 -23 -4 -4 0 -3 9 4 9 6 18 10 21 7 3 -3
11 1 18 10 8 10 9 15 1 15 -6 0 -11 -6 -11 -12 0 -10 -3 -9 -9 1 -7 11 -9 11
-14 0 -4 -10 -6 -10 -6 -1 -1 6 -6 12 -12 12 -8 0 -9 -4 0 -13z"/>
<path d="M16839 13253 c-13 -16 -12 -17 4 -4 16 13 21 21 13 21 -2 0 -10 -8
-17 -17z"/>
<path d="M16845 13234 c-10 -8 -14 -14 -8 -14 7 0 15 5 19 11 4 8 9 7 15 -2 6
-10 9 -10 9 -2 0 19 -14 22 -35 7z"/>
<path d="M16734 13218 c-4 -7 -4 -10 1 -6 4 4 15 4 24 -1 9 -4 26 -2 41 5 18
10 20 14 8 14 -9 0 -20 -5 -23 -10 -4 -7 -12 -7 -25 0 -13 7 -21 7 -26 -2z"/>
<path d="M15821 12361 c-10 -6 -9 -10 3 -14 8 -3 18 -2 21 3 8 13 -9 20 -24
11z"/>
<path d="M15893 12355 c0 -8 4 -12 9 -9 5 3 6 10 3 15 -9 13 -12 11 -12 -6z"/>
<path d="M15775 12349 c-11 -16 -1 -19 13 -3 7 8 8 14 3 14 -5 0 -13 -5 -16
-11z"/>
<path d="M16318 12353 c221 -2 583 -2 805 0 221 1 40 2 -403 2 -443 0 -624 -1
-402 -2z"/>
<path d="M16734 12303 c1 -7 6 -16 11 -20 4 -5 5 -2 0 6 -6 10 -4 13 7 9 8 -4
15 -1 15 6 0 6 -8 12 -17 12 -10 0 -17 -6 -16 -13z"/>
<path d="M16794 12304 c-18 -14 -18 -15 4 -4 12 6 22 13 22 15 0 8 -5 6 -26
-11z"/>
<path d="M16825 12300 c-3 -5 -2 -10 4 -10 5 0 13 5 16 10 3 6 2 10 -4 10 -5
0 -13 -4 -16 -10z"/>
<path d="M17530 12300 c0 -5 5 -10 11 -10 5 0 7 5 4 10 -3 6 -8 10 -11 10 -2
0 -4 -4 -4 -10z"/>
<path d="M16749 12257 c-9 -20 -9 -20 4 -4 14 17 33 25 23 9 -2 -4 5 -8 17 -9
12 0 16 1 9 4 -6 3 -10 8 -8 12 3 4 -4 8 -15 8 -11 1 -24 -8 -30 -20z"/>
<path d="M16795 11510 c-3 -5 -1 -10 4 -10 6 0 11 5 11 10 0 6 -2 10 -4 10 -3
0 -8 -4 -11 -10z"/>
<path d="M16765 11500 c-3 -5 -1 -10 4 -10 6 0 11 5 11 10 0 6 -2 10 -4 10 -3
0 -8 -4 -11 -10z"/>
<path d="M15764 11424 c2 -10 8 -20 14 -22 17 -5 15 13 -2 27 -12 10 -14 9
-12 -5z"/>
<path d="M15797 11429 c7 -7 15 -10 18 -7 3 3 -2 9 -12 12 -14 6 -15 5 -6 -5z"/>
<path d="M15880 11417 c0 -2 6 -10 14 -16 11 -9 16 -9 22 1 4 7 4 10 -1 6 -4
-4 -14 -3 -22 3 -7 6 -13 9 -13 6z"/>
<path d="M15822 11392 c-9 -6 -6 -12 12 -20 15 -7 28 -7 31 -2 3 5 13 7 23 4
13 -5 14 -4 3 4 -8 6 -25 8 -38 6 -15 -3 -22 -1 -18 6 7 12 4 12 -13 2z"/>
<path d="M15831 10546 c-20 -11 -21 -14 -7 -19 10 -4 15 -3 11 3 -4 7 3 9 18
6 13 -2 30 0 38 6 11 8 11 9 -2 5 -9 -3 -20 -2 -25 3 -5 5 -20 3 -33 -4z"/>
<path d="M15889 10513 c-12 -16 -12 -17 2 -6 9 7 20 9 24 5 5 -4 5 -1 1 6 -9
16 -11 15 -27 -5z"/>
<path d="M17533 10515 c0 -8 4 -12 9 -9 5 3 6 10 3 15 -9 13 -12 11 -12 -6z"/>
<path d="M15769 10518 c0 -2 -2 -11 -4 -21 -3 -15 -1 -16 11 -6 16 13 19 29 4
29 -5 0 -10 -1 -11 -2z"/>
<path d="M15795 10490 c-3 -6 1 -7 9 -4 18 7 21 14 7 14 -6 0 -13 -4 -16 -10z"/>
<path d="M16766 10472 c-3 -5 1 -9 9 -9 8 0 12 4 9 9 -3 4 -7 8 -9 8 -2 0 -6
-4 -9 -8z"/>
<path d="M16774 10442 c4 -7 2 -12 -5 -12 -10 0 -10 -3 -1 -12 15 -15 42 -19
42 -6 0 6 -7 7 -16 4 -12 -4 -15 -2 -11 9 4 8 1 17 -5 21 -7 4 -8 3 -4 -4z"/>
<path d="M16740 10410 c0 -5 5 -10 11 -10 5 0 7 5 4 10 -3 6 -8 10 -11 10 -2
0 -4 -4 -4 -10z"/>
<path d="M16749 9663 c6 -12 19 -21 30 -20 11 0 18 4 15 8 -2 4 2 9 8 12 7 3
3 4 -9 4 -12 -1 -19 -5 -17 -9 10 -16 -9 -8 -23 10 -13 15 -13 15 -4 -5z"/>
<path d="M16739 9638 c-7 -24 -4 -34 11 -34 9 0 17 6 17 12 0 7 -7 10 -15 6
-10 -3 -13 -1 -8 6 4 7 5 12 2 12 -3 0 -6 -1 -7 -2z"/>
<path d="M16780 9626 c0 -3 9 -10 20 -16 11 -6 20 -8 20 -6 0 3 -9 10 -20 16
-11 6 -20 8 -20 6z"/>
<path d="M16825 9620 c3 -5 11 -10 16 -10 6 0 7 5 4 10 -3 6 -11 10 -16 10 -6
0 -7 -4 -4 -10z"/>
<path d="M17530 9621 c0 -6 4 -12 8 -15 5 -3 9 1 9 9 0 8 -4 15 -9 15 -4 0 -8
-4 -8 -9z"/>
<path d="M15770 9581 c0 -10 19 -25 25 -20 1 2 -3 10 -11 17 -8 7 -14 8 -14 3z"/>
<path d="M15821 9570 c-10 -5 -9 -8 2 -13 7 -3 19 -2 26 3 10 5 9 8 -2 13 -7
3 -19 2 -26 -3z"/>
<path d="M15874 9553 c1 -7 4 -14 7 -15 2 -2 3 -1 2 1 -2 2 4 9 13 15 13 10
13 12 -4 12 -11 0 -19 -6 -18 -13z"/>
<path d="M16759 8709 c-7 -4 -17 -5 -23 -2 -5 3 -6 1 -2 -5 5 -8 13 -9 25 -2
12 6 22 5 29 -2 5 -5 15 -9 21 -7 6 2 0 9 -13 15 -14 6 -30 8 -37 3z"/>
<path d="M16845 8686 c21 -15 35 -12 35 7 0 8 -3 8 -9 -2 -6 -9 -11 -10 -15
-2 -4 6 -12 11 -19 11 -6 0 -2 -6 8 -14z"/>
<path d="M16772 8686 c4 -5 3 -15 -3 -23 -9 -9 -8 -13 0 -13 6 0 11 6 11 13 0
9 3 8 9 -2 7 -11 9 -11 14 0 4 10 6 10 6 2 1 -7 6 -13 12 -13 8 0 7 5 -1 15
-7 9 -15 13 -18 10 -3 -3 -12 1 -21 7 -9 7 -13 8 -9 4z"/>
<path d="M16830 8676 c0 -2 8 -10 18 -17 15 -13 16 -12 3 4 -13 16 -21 21 -21
13z"/>
<path d="M16746 7817 c-16 -12 -16 -13 3 -13 11 0 18 3 15 7 -2 4 2 10 8 12 7
3 8 6 2 6 -5 1 -18 -5 -28 -12z"/>
<path d="M16825 7800 c-16 -7 -17 -9 -3 -9 9 -1 20 4 23 9 7 11 7 11 -20 0z"/>
<path d="M16855 7791 c-3 -5 -1 -12 5 -16 5 -3 10 1 10 9 0 18 -6 21 -15 7z"/>
<path d="M16726 7768 c3 -5 10 -6 15 -3 13 9 11 12 -6 12 -8 0 -12 -4 -9 -9z"/>
<path d="M16815 7770 c-3 -6 1 -7 9 -4 18 7 21 14 7 14 -6 0 -13 -4 -16 -10z"/>
<path d="M15790 7750 c-12 -7 -10 -9 7 -7 12 0 19 5 17 9 -6 10 -6 10 -24 -2z"/>
<path d="M15844 7751 c4 -5 0 -11 -6 -14 -7 -3 -3 -4 9 -4 17 1 19 4 11 14
-12 15 -22 18 -14 4z"/>
<path d="M15838 6903 c6 -3 10 -9 6 -14 -8 -14 2 -11 14 4 8 10 6 13 -11 14
-12 0 -16 -1 -9 -4z"/>
<path d="M15780 6895 c0 -7 30 -13 34 -7 3 4 -4 9 -15 9 -10 1 -19 0 -19 -2z"/>
<path d="M16726 6872 c-3 -5 1 -9 9 -9 8 0 12 4 9 9 -3 4 -7 8 -9 8 -2 0 -6
-4 -9 -8z"/>
<path d="M16820 6866 c7 -7 13 -7 20 0 6 6 3 10 -10 10 -13 0 -16 -4 -10 -10z"/>
<path d="M16855 6861 c-3 -5 -1 -12 5 -16 5 -3 10 1 10 9 0 18 -6 21 -15 7z"/>
<path d="M16810 6846 c0 -2 9 -6 20 -9 11 -3 18 -1 14 4 -5 9 -34 13 -34 5z"/>
<path d="M16746 6823 c10 -7 23 -13 28 -12 6 0 5 3 -2 6 -6 2 -10 8 -8 12 3 4
-4 7 -15 7 -19 0 -19 -1 -3 -13z"/>
<path d="M16769 5977 c6 -8 7 -18 3 -23 -4 -4 0 -3 9 4 9 6 18 10 21 7 3 -3
11 1 18 10 8 10 9 15 1 15 -6 0 -11 -6 -11 -12 0 -10 -3 -9 -9 1 -7 11 -9 11
-14 0 -4 -10 -6 -10 -6 -1 -1 6 -6 12 -12 12 -8 0 -9 -4 0 -13z"/>
<path d="M16839 5973 c-13 -16 -12 -17 4 -4 9 7 17 15 17 17 0 8 -8 3 -21 -13z"/>
<path d="M16845 5954 c-10 -8 -14 -14 -8 -14 7 0 15 5 19 11 4 8 9 7 15 -2 6
-10 9 -10 9 -2 0 19 -14 22 -35 7z"/>
<path d="M16734 5938 c-4 -7 -4 -10 1 -6 4 4 15 4 24 -1 9 -4 26 -2 41 5 18
10 20 14 8 14 -9 0 -20 -5 -23 -10 -4 -7 -12 -7 -25 0 -13 7 -21 7 -26 -2z"/>
<path d="M15821 5081 c-10 -6 -9 -10 3 -14 8 -3 18 -2 21 3 8 13 -9 20 -24 11z"/>
<path d="M15893 5075 c0 -8 4 -12 9 -9 5 3 6 10 3 15 -9 13 -12 11 -12 -6z"/>
<path d="M15775 5069 c-11 -16 -1 -19 13 -3 7 8 8 14 3 14 -5 0 -13 -5 -16
-11z"/>
<path d="M16318 5073 c221 -2 583 -2 805 0 221 1 40 2 -403 2 -443 0 -624 -1
-402 -2z"/>
<path d="M16734 5023 c1 -7 6 -16 11 -20 4 -5 5 -2 0 6 -6 10 -4 13 7 9 8 -4
15 -1 15 6 0 6 -8 12 -17 12 -10 0 -17 -6 -16 -13z"/>
<path d="M16794 5024 c-18 -14 -18 -15 4 -4 12 6 22 13 22 15 0 8 -5 6 -26
-11z"/>
<path d="M16825 5020 c-3 -5 -2 -10 4 -10 5 0 13 5 16 10 3 6 2 10 -4 10 -5 0
-13 -4 -16 -10z"/>
<path d="M17530 5020 c0 -5 5 -10 11 -10 5 0 7 5 4 10 -3 6 -8 10 -11 10 -2 0
-4 -4 -4 -10z"/>
<path d="M16749 4977 c-9 -20 -9 -20 4 -4 14 17 33 25 23 9 -2 -4 5 -8 17 -9
12 0 16 1 9 4 -6 3 -10 8 -8 12 3 4 -4 8 -15 8 -11 1 -24 -8 -30 -20z"/>
<path d="M16795 4230 c-3 -5 -1 -10 4 -10 6 0 11 5 11 10 0 6 -2 10 -4 10 -3
0 -8 -4 -11 -10z"/>
<path d="M16765 4220 c-3 -5 -1 -10 4 -10 6 0 11 5 11 10 0 6 -2 10 -4 10 -3
0 -8 -4 -11 -10z"/>
<path d="M15764 4144 c2 -10 8 -20 14 -22 17 -5 15 13 -2 27 -12 10 -14 9 -12
-5z"/>
<path d="M15797 4149 c7 -7 15 -10 18 -7 3 3 -2 9 -12 12 -14 6 -15 5 -6 -5z"/>
<path d="M15880 4137 c0 -2 6 -10 14 -16 11 -9 16 -9 22 1 4 7 4 10 -1 6 -4
-4 -14 -3 -22 3 -7 6 -13 9 -13 6z"/>
<path d="M15822 4112 c-9 -6 -6 -12 12 -20 15 -7 28 -7 31 -2 3 5 13 7 23 4
13 -5 14 -4 3 4 -8 6 -25 8 -38 6 -15 -3 -22 -1 -18 6 7 12 4 12 -13 2z"/>
<path d="M18165 51920 c0 -15 3 -26 8 -23 4 2 7 13 7 23 0 10 -3 21 -7 23 -5
3 -8 -8 -8 -23z"/>
<path d="M18615 51920 c-15 -16 -21 -18 -34 -7 -14 11 -14 10 -2 -6 11 -14 16
-15 29 -5 13 11 15 10 9 -4 -3 -10 -2 -18 3 -18 14 0 21 18 10 25 -8 5 -7 11
1 21 18 22 4 17 -16 -6z"/>
<path d="M18580 51479 c0 -5 5 -7 10 -4 6 3 10 8 10 11 0 2 -4 4 -10 4 -5 0
-10 -5 -10 -11z"/>
<path d="M18626 51477 c3 -10 9 -15 12 -12 3 3 0 11 -7 18 -10 9 -11 8 -5 -6z"/>
<path d="M18736 51482 c-3 -5 1 -9 9 -9 8 0 12 4 9 9 -3 4 -7 8 -9 8 -2 0 -6
-4 -9 -8z"/>
<path d="M18584 51456 c-10 -8 -16 -18 -11 -22 4 -4 7 -2 7 4 0 7 5 12 11 12
6 0 8 -7 5 -16 -6 -15 -4 -15 10 -3 10 8 12 15 5 17 -6 2 -9 8 -5 13 8 13 1
11 -22 -5z"/>
<path d="M17666 51443 c-6 -14 -5 -15 5 -6 7 7 10 15 7 18 -3 3 -9 -2 -12 -12z"/>
<path d="M17647 51019 c7 -7 15 -10 18 -7 3 3 -2 9 -12 12 -14 6 -15 5 -6 -5z"/>
<path d="M18740 51020 c-9 -6 -10 -10 -3 -10 6 0 15 5 18 10 8 12 4 12 -15 0z"/>
<path d="M17646 50988 c3 -5 10 -6 15 -3 13 9 11 12 -6 12 -8 0 -12 -4 -9 -9z"/>
<path d="M18736 50988 c3 -5 10 -6 15 -3 13 9 11 12 -6 12 -8 0 -12 -4 -9 -9z"/>
<path d="M18570 50575 c0 -8 29 -12 39 -5 9 5 4 8 -13 8 -14 0 -26 -2 -26 -3z"/>
<path d="M18616 50547 c3 -10 9 -15 12 -12 3 3 0 11 -7 18 -10 9 -11 8 -5 -6z"/>
<path d="M17650 50546 c0 -2 8 -10 18 -17 15 -13 16 -12 3 4 -13 16 -21 21
-21 13z"/>
<path d="M18160 50541 c0 -5 5 -13 10 -16 6 -3 10 -2 10 4 0 5 -4 13 -10 16
-5 3 -10 2 -10 -4z"/>
<path d="M18736 50518 c3 -5 10 -6 15 -3 13 9 11 12 -6 12 -8 0 -12 -4 -9 -9z"/>
<path d="M18580 50119 c0 -5 5 -7 10 -4 6 3 10 8 10 11 0 2 -4 4 -10 4 -5 0
-10 -5 -10 -11z"/>
<path d="M18626 50117 c3 -10 9 -15 12 -12 3 3 0 11 -7 18 -10 9 -11 8 -5 -6z"/>
<path d="M18736 50122 c-3 -5 1 -9 9 -9 8 0 12 4 9 9 -3 4 -7 8 -9 8 -2 0 -6
-4 -9 -8z"/>
<path d="M18584 50096 c-10 -8 -16 -18 -11 -22 4 -4 7 -2 7 4 0 7 5 12 11 12
6 0 8 -7 5 -16 -6 -15 -4 -15 10 -3 10 8 12 15 5 17 -6 2 -9 8 -5 13 8 13 1
11 -22 -5z"/>
<path d="M17666 50083 c-6 -14 -5 -15 5 -6 7 7 10 15 7 18 -3 3 -9 -2 -12 -12z"/>
<path d="M17646 49652 c-3 -5 1 -9 9 -9 8 0 12 4 9 9 -3 4 -7 8 -9 8 -2 0 -6
-4 -9 -8z"/>
<path d="M18736 49652 c-3 -5 1 -9 9 -9 8 0 12 4 9 9 -3 4 -7 8 -9 8 -2 0 -6
-4 -9 -8z"/>
<path d="M17645 49620 c-3 -6 1 -7 9 -4 18 7 21 14 7 14 -6 0 -13 -4 -16 -10z"/>
<path d="M18730 49626 c0 -2 7 -7 16 -10 8 -3 12 -2 9 4 -6 10 -25 14 -25 6z"/>
<path d="M18570 49215 c0 -8 29 -12 39 -5 9 5 4 8 -13 8 -14 0 -26 -2 -26 -3z"/>
<path d="M18616 49187 c3 -10 9 -15 12 -12 3 3 0 11 -7 18 -10 9 -11 8 -5 -6z"/>
<path d="M17650 49186 c0 -2 8 -10 18 -17 15 -13 16 -12 3 4 -13 16 -21 21
-21 13z"/>
<path d="M18160 49181 c0 -5 5 -13 10 -16 6 -3 10 -2 10 4 0 5 -4 13 -10 16
-5 3 -10 2 -10 -4z"/>
<path d="M18736 49158 c3 -5 10 -6 15 -3 13 9 11 12 -6 12 -8 0 -12 -4 -9 -9z"/>
<path d="M17659 48743 c-12 -16 -12 -17 2 -6 11 9 85 13 260 16 l244 2 -246 3
c-225 2 -248 0 -260 -15z"/>
<path d="M18565 48741 c-3 -5 -2 -12 3 -15 5 -3 9 1 9 9 0 17 -3 19 -12 6z"/>
<path d="M17646 48292 c-3 -5 1 -9 9 -9 8 0 12 4 9 9 -3 4 -7 8 -9 8 -2 0 -6
-4 -9 -8z"/>
<path d="M18736 48292 c-3 -5 1 -9 9 -9 8 0 12 4 9 9 -3 4 -7 8 -9 8 -2 0 -6
-4 -9 -8z"/>
<path d="M17645 48260 c-3 -6 1 -7 9 -4 18 7 21 14 7 14 -6 0 -13 -4 -16 -10z"/>
<path d="M18730 48266 c0 -2 7 -7 16 -10 8 -3 12 -2 9 4 -6 10 -25 14 -25 6z"/>
<path d="M17666 47837 c3 -10 9 -15 12 -12 3 3 0 11 -7 18 -10 9 -11 8 -5 -6z"/>
<path d="M18575 47840 c-3 -5 -1 -10 4 -10 6 0 11 5 11 10 0 6 -2 10 -4 10 -3
0 -8 -4 -11 -10z"/>
<path d="M18596 47792 c-3 -5 1 -9 9 -9 8 0 12 4 9 9 -3 4 -7 8 -9 8 -2 0 -6
-4 -9 -8z"/>
<path d="M17659 47383 c-12 -16 -12 -17 2 -6 11 9 85 13 260 16 l244 2 -246 3
c-225 2 -248 0 -260 -15z"/>
<path d="M18565 47381 c-3 -5 -2 -12 3 -15 5 -3 9 1 9 9 0 17 -3 19 -12 6z"/>
<path d="M17666 46477 c3 -10 9 -15 12 -12 3 3 0 11 -7 18 -10 9 -11 8 -5 -6z"/>
<path d="M18575 46480 c-3 -5 -1 -10 4 -10 6 0 11 5 11 10 0 6 -2 10 -4 10 -3
0 -8 -4 -11 -10z"/>
<path d="M18596 46432 c-3 -5 1 -9 9 -9 8 0 12 4 9 9 -3 4 -7 8 -9 8 -2 0 -6
-4 -9 -8z"/>
<path d="M18165 46000 c0 -15 3 -26 8 -23 4 2 7 13 7 23 0 10 -3 21 -7 23 -5
3 -8 -8 -8 -23z"/>
<path d="M18615 46000 c-15 -16 -21 -18 -34 -7 -14 11 -14 10 -2 -6 11 -14 16
-15 29 -5 13 11 15 10 9 -4 -3 -10 -2 -18 3 -18 14 0 21 18 10 25 -8 5 -7 11
1 21 18 22 4 17 -16 -6z"/>
<path d="M18165 45110 c-3 -5 -1 -10 4 -10 6 0 11 5 11 10 0 6 -2 10 -4 10 -3
0 -8 -4 -11 -10z"/>
<path d="M18574 45106 c-3 -8 4 -24 16 -36 16 -16 25 -18 38 -11 10 6 12 11 4
11 -10 0 -10 5 -1 21 8 15 8 19 0 15 -6 -4 -11 -2 -11 5 0 7 -8 5 -22 -7 -19
-17 -21 -17 -15 -1 4 9 4 17 1 17 -2 0 -7 -6 -10 -14z m43 -25 c-1 -15 -4 -17
-14 -9 -7 5 -10 14 -7 19 10 16 23 9 21 -10z"/>
<path d="M18740 45100 c-9 -6 -10 -10 -3 -10 6 0 15 5 18 10 8 12 4 12 -15 0z"/>
<path d="M17650 45086 c0 -2 8 -10 18 -17 15 -13 16 -12 3 4 -13 16 -21 21
-21 13z"/>
<path d="M18736 45068 c3 -5 10 -6 15 -3 13 9 11 12 -6 12 -8 0 -12 -4 -9 -9z"/>
<path d="M18165 44640 c0 -15 3 -26 8 -23 4 2 7 13 7 23 0 10 -3 21 -7 23 -5
3 -8 -8 -8 -23z"/>
<path d="M18615 44640 c-15 -16 -21 -18 -34 -7 -14 11 -14 10 -2 -6 11 -14 16
-15 29 -5 13 11 15 10 9 -4 -3 -10 -2 -18 3 -18 14 0 21 18 10 25 -8 5 -7 11
1 21 18 22 4 17 -16 -6z"/>
<path d="M17646 44202 c-3 -5 1 -9 9 -9 8 0 12 4 9 9 -3 4 -7 8 -9 8 -2 0 -6
-4 -9 -8z"/>
<path d="M18736 44202 c-3 -5 1 -9 9 -9 8 0 12 4 9 9 -3 4 -7 8 -9 8 -2 0 -6
-4 -9 -8z"/>
<path d="M18165 43750 c-3 -5 -1 -10 4 -10 6 0 11 5 11 10 0 6 -2 10 -4 10 -3
0 -8 -4 -11 -10z"/>
<path d="M18574 43746 c-3 -8 4 -24 16 -36 16 -16 25 -18 38 -11 10 6 12 11 4
11 -10 0 -10 5 -1 21 8 15 8 19 0 15 -6 -4 -11 -2 -11 5 0 7 -8 5 -22 -7 -19
-17 -21 -17 -15 -1 4 9 4 17 1 17 -2 0 -7 -6 -10 -14z m43 -25 c-1 -15 -4 -17
-14 -9 -7 5 -10 14 -7 19 10 16 23 9 21 -10z"/>
<path d="M18740 43740 c-9 -6 -10 -10 -3 -10 6 0 15 5 18 10 8 12 4 12 -15 0z"/>
<path d="M17650 43726 c0 -2 8 -10 18 -17 15 -13 16 -12 3 4 -13 16 -21 21
-21 13z"/>
<path d="M18736 43708 c3 -5 10 -6 15 -3 13 9 11 12 -6 12 -8 0 -12 -4 -9 -9z"/>
<path d="M18570 43295 c0 -8 29 -12 39 -5 9 5 4 8 -13 8 -14 0 -26 -2 -26 -3z"/>
<path d="M18616 43267 c3 -10 9 -15 12 -12 3 3 0 11 -7 18 -10 9 -11 8 -5 -6z"/>
<path d="M17650 43266 c0 -2 8 -10 18 -17 15 -13 16 -12 3 4 -13 16 -21 21
-21 13z"/>
<path d="M18160 43261 c0 -5 5 -13 10 -16 6 -3 10 -2 10 4 0 5 -4 13 -10 16
-5 3 -10 2 -10 -4z"/>
<path d="M18736 43238 c3 -5 10 -6 15 -3 13 9 11 12 -6 12 -8 0 -12 -4 -9 -9z"/>
<path d="M17646 42842 c-3 -5 1 -9 9 -9 8 0 12 4 9 9 -3 4 -7 8 -9 8 -2 0 -6
-4 -9 -8z"/>
<path d="M18736 42842 c-3 -5 1 -9 9 -9 8 0 12 4 9 9 -3 4 -7 8 -9 8 -2 0 -6
-4 -9 -8z"/>
<path d="M18165 42390 c-3 -5 -1 -10 4 -10 6 0 11 5 11 10 0 6 -2 10 -4 10 -3
0 -8 -4 -11 -10z"/>
<path d="M18574 42386 c-3 -8 4 -24 16 -36 16 -16 25 -18 38 -11 10 6 12 11 4
11 -10 0 -10 5 -1 21 8 15 8 19 0 15 -6 -4 -11 -2 -11 5 0 7 -8 5 -22 -7 -19
-17 -21 -17 -15 -1 4 9 4 17 1 17 -2 0 -7 -6 -10 -14z m43 -25 c-1 -15 -4 -17
-14 -9 -7 5 -10 14 -7 19 10 16 23 9 21 -10z"/>
<path d="M18740 42380 c-9 -6 -10 -10 -3 -10 6 0 15 5 18 10 8 12 4 12 -15 0z"/>
<path d="M17650 42366 c0 -2 8 -10 18 -17 15 -13 16 -12 3 4 -13 16 -21 21
-21 13z"/>
<path d="M18736 42348 c3 -5 10 -6 15 -3 13 9 11 12 -6 12 -8 0 -12 -4 -9 -9z"/>
<path d="M18570 41935 c0 -8 29 -12 39 -5 9 5 4 8 -13 8 -14 0 -26 -2 -26 -3z"/>
<path d="M18616 41907 c3 -10 9 -15 12 -12 3 3 0 11 -7 18 -10 9 -11 8 -5 -6z"/>
<path d="M17650 41906 c0 -2 8 -10 18 -17 15 -13 16 -12 3 4 -13 16 -21 21
-21 13z"/>
<path d="M18160 41901 c0 -5 5 -13 10 -16 6 -3 10 -2 10 4 0 5 -4 13 -10 16
-5 3 -10 2 -10 -4z"/>
<path d="M18736 41878 c3 -5 10 -6 15 -3 13 9 11 12 -6 12 -8 0 -12 -4 -9 -9z"/>
<path d="M17646 41482 c-3 -5 1 -9 9 -9 8 0 12 4 9 9 -3 4 -7 8 -9 8 -2 0 -6
-4 -9 -8z"/>
<path d="M18736 41482 c-3 -5 1 -9 9 -9 8 0 12 4 9 9 -3 4 -7 8 -9 8 -2 0 -6
-4 -9 -8z"/>
<path d="M18169 41028 c-5 -15 -4 -50 1 -53 3 -2 6 9 6 26 0 24 -3 37 -7 27z"/>
<path d="M18605 41021 c-3 -5 0 -13 6 -17 7 -4 9 -3 5 4 -3 6 2 13 11 15 16 4
16 5 1 6 -9 0 -19 -3 -23 -8z"/>
<path d="M18736 41012 c-3 -5 1 -9 9 -9 8 0 12 4 9 9 -3 4 -7 8 -9 8 -2 0 -6
-4 -9 -8z"/>
<path d="M18583 40986 c-1 -11 1 -15 4 -8 4 10 10 9 24 -4 15 -13 18 -14 14
-3 -3 8 -13 19 -23 26 -15 9 -18 7 -19 -11z"/>
<path d="M18730 40986 c0 -2 7 -7 16 -10 8 -3 12 -2 9 4 -6 10 -25 14 -25 6z"/>
<path d="M18570 40575 c0 -8 29 -12 39 -5 9 5 4 8 -13 8 -14 0 -26 -2 -26 -3z"/>
<path d="M18616 40547 c3 -10 9 -15 12 -12 3 3 0 11 -7 18 -10 9 -11 8 -5 -6z"/>
<path d="M17650 40546 c0 -2 8 -10 18 -17 15 -13 16 -12 3 4 -13 16 -21 21
-21 13z"/>
<path d="M18160 40541 c0 -5 5 -13 10 -16 6 -3 10 -2 10 4 0 5 -4 13 -10 16
-5 3 -10 2 -10 -4z"/>
<path d="M18736 40518 c3 -5 10 -6 15 -3 13 9 11 12 -6 12 -8 0 -12 -4 -9 -9z"/>
<path d="M18169 39668 c-5 -15 -4 -50 1 -53 3 -2 6 9 6 26 0 24 -3 37 -7 27z"/>
<path d="M18605 39661 c-3 -5 0 -13 6 -17 7 -4 9 -3 5 4 -3 6 2 13 11 15 16 4
16 5 1 6 -9 0 -19 -3 -23 -8z"/>
<path d="M18736 39652 c-3 -5 1 -9 9 -9 8 0 12 4 9 9 -3 4 -7 8 -9 8 -2 0 -6
-4 -9 -8z"/>
<path d="M18583 39626 c-1 -11 1 -15 4 -8 4 10 10 9 24 -4 15 -13 18 -14 14
-3 -3 8 -13 19 -23 26 -15 9 -18 7 -19 -11z"/>
<path d="M18730 39626 c0 -2 7 -7 16 -10 8 -3 12 -2 9 4 -6 10 -25 14 -25 6z"/>
<path d="M17666 39197 c3 -10 9 -15 12 -12 3 3 0 11 -7 18 -10 9 -11 8 -5 -6z"/>
<path d="M18575 39200 c-3 -5 -1 -10 4 -10 6 0 11 5 11 10 0 6 -2 10 -4 10 -3
0 -8 -4 -11 -10z"/>
<path d="M18596 39152 c-3 -5 1 -9 9 -9 8 0 12 4 9 9 -3 4 -7 8 -9 8 -2 0 -6
-4 -9 -8z"/>
<path d="M17659 38283 c-13 -16 -12 -17 4 -4 9 7 17 15 17 17 0 8 -8 3 -21
-13z"/>
<path d="M18165 38250 c3 -5 8 -10 11 -10 2 0 4 5 4 10 0 6 -5 10 -11 10 -5 0
-7 -4 -4 -10z"/>
<path d="M17666 37837 c3 -10 9 -15 12 -12 3 3 0 11 -7 18 -10 9 -11 8 -5 -6z"/>
<path d="M18575 37840 c-3 -5 -1 -10 4 -10 6 0 11 5 11 10 0 6 -2 10 -4 10 -3
0 -8 -4 -11 -10z"/>
<path d="M18596 37792 c-3 -5 1 -9 9 -9 8 0 12 4 9 9 -3 4 -7 8 -9 8 -2 0 -6
-4 -9 -8z"/>
<path d="M17659 36923 c-13 -16 -12 -17 4 -4 9 7 17 15 17 17 0 8 -8 3 -21
-13z"/>
<path d="M18165 36890 c3 -5 8 -10 11 -10 2 0 4 5 4 10 0 6 -5 10 -11 10 -5 0
-7 -4 -4 -10z"/>
<path d="M18165 36470 c-3 -5 -1 -10 4 -10 6 0 11 5 11 10 0 6 -2 10 -4 10 -3
0 -8 -4 -11 -10z"/>
<path d="M18574 36466 c-3 -8 4 -24 16 -36 16 -16 25 -18 38 -11 10 6 12 11 4
11 -10 0 -10 5 -1 21 8 15 8 19 0 15 -6 -4 -11 -2 -11 5 0 7 -8 5 -22 -7 -19
-17 -21 -17 -15 -1 4 9 4 17 1 17 -2 0 -7 -6 -10 -14z m43 -25 c-1 -15 -4 -17
-14 -9 -7 5 -10 14 -7 19 10 16 23 9 21 -10z"/>
<path d="M18740 36460 c-9 -6 -10 -10 -3 -10 6 0 15 5 18 10 8 12 4 12 -15 0z"/>
<path d="M17650 36446 c0 -2 8 -10 18 -17 15 -13 16 -12 3 4 -13 16 -21 21
-21 13z"/>
<path d="M18736 36428 c3 -5 10 -6 15 -3 13 9 11 12 -6 12 -8 0 -12 -4 -9 -9z"/>
<path d="M18580 35559 c0 -5 5 -7 10 -4 6 3 10 8 10 11 0 2 -4 4 -10 4 -5 0
-10 -5 -10 -11z"/>
<path d="M18626 35557 c3 -10 9 -15 12 -12 3 3 0 11 -7 18 -10 9 -11 8 -5 -6z"/>
<path d="M18736 35562 c-3 -5 1 -9 9 -9 8 0 12 4 9 9 -3 4 -7 8 -9 8 -2 0 -6
-4 -9 -8z"/>
<path d="M18584 35536 c-10 -8 -16 -18 -11 -22 4 -4 7 -2 7 4 0 7 5 12 11 12
6 0 8 -7 5 -16 -6 -15 -4 -15 10 -3 10 8 12 15 5 17 -6 2 -9 8 -5 13 8 13 1
11 -22 -5z"/>
<path d="M17666 35523 c-6 -14 -5 -15 5 -6 7 7 10 15 7 18 -3 3 -9 -2 -12 -12z"/>
<path d="M18165 35110 c-3 -5 -1 -10 4 -10 6 0 11 5 11 10 0 6 -2 10 -4 10 -3
0 -8 -4 -11 -10z"/>
<path d="M18574 35106 c-3 -8 4 -24 16 -36 16 -16 25 -18 38 -11 10 6 12 11 4
11 -10 0 -10 5 -1 21 8 15 8 19 0 15 -6 -4 -11 -2 -11 5 0 7 -8 5 -22 -7 -19
-17 -21 -17 -15 -1 4 9 4 17 1 17 -2 0 -7 -6 -10 -14z m43 -25 c-1 -15 -4 -17
-14 -9 -7 5 -10 14 -7 19 10 16 23 9 21 -10z"/>
<path d="M18740 35100 c-9 -6 -10 -10 -3 -10 6 0 15 5 18 10 8 12 4 12 -15 0z"/>
<path d="M17650 35086 c0 -2 8 -10 18 -17 15 -13 16 -12 3 4 -13 16 -21 21
-21 13z"/>
<path d="M18736 35068 c3 -5 10 -6 15 -3 13 9 11 12 -6 12 -8 0 -12 -4 -9 -9z"/>
<path d="M17646 34598 c3 -5 10 -6 15 -3 13 9 11 12 -6 12 -8 0 -12 -4 -9 -9z"/>
<path d="M18736 34598 c3 -5 10 -6 15 -3 13 9 11 12 -6 12 -8 0 -12 -4 -9 -9z"/>
<path d="M18580 34199 c0 -5 5 -7 10 -4 6 3 10 8 10 11 0 2 -4 4 -10 4 -5 0
-10 -5 -10 -11z"/>
<path d="M18626 34197 c3 -10 9 -15 12 -12 3 3 0 11 -7 18 -10 9 -11 8 -5 -6z"/>
<path d="M18736 34202 c-3 -5 1 -9 9 -9 8 0 12 4 9 9 -3 4 -7 8 -9 8 -2 0 -6
-4 -9 -8z"/>
<path d="M18584 34176 c-10 -8 -16 -18 -11 -22 4 -4 7 -2 7 4 0 7 5 12 11 12
6 0 8 -7 5 -16 -6 -15 -4 -15 10 -3 10 8 12 15 5 17 -6 2 -9 8 -5 13 8 13 1
11 -22 -5z"/>
<path d="M17666 34163 c-6 -14 -5 -15 5 -6 7 7 10 15 7 18 -3 3 -9 -2 -12 -12z"/>
<path d="M18169 33748 c-5 -15 -4 -50 1 -53 3 -2 6 9 6 26 0 24 -3 37 -7 27z"/>
<path d="M18605 33741 c-3 -5 0 -13 6 -17 7 -4 9 -3 5 4 -3 6 2 13 11 15 16 4
16 5 1 6 -9 0 -19 -3 -23 -8z"/>
<path d="M18736 33732 c-3 -5 1 -9 9 -9 8 0 12 4 9 9 -3 4 -7 8 -9 8 -2 0 -6
-4 -9 -8z"/>
<path d="M18583 33706 c-1 -11 1 -15 4 -8 4 10 10 9 24 -4 15 -13 18 -14 14
-3 -3 8 -13 19 -23 26 -15 9 -18 7 -19 -11z"/>
<path d="M18730 33706 c0 -2 7 -7 16 -10 8 -3 12 -2 9 4 -6 10 -25 14 -25 6z"/>
<path d="M17646 33238 c3 -5 10 -6 15 -3 13 9 11 12 -6 12 -8 0 -12 -4 -9 -9z"/>
<path d="M18736 33238 c3 -5 10 -6 15 -3 13 9 11 12 -6 12 -8 0 -12 -4 -9 -9z"/>
<path d="M17659 32823 c-12 -16 -12 -17 2 -6 11 9 85 13 260 16 l244 2 -246 3
c-225 2 -248 0 -260 -15z"/>
<path d="M18565 32821 c-3 -5 -2 -12 3 -15 5 -3 9 1 9 9 0 17 -3 19 -12 6z"/>
<path d="M18169 32388 c-5 -15 -4 -50 1 -53 3 -2 6 9 6 26 0 24 -3 37 -7 27z"/>
<path d="M18605 32381 c-3 -5 0 -13 6 -17 7 -4 9 -3 5 4 -3 6 2 13 11 15 16 4
16 5 1 6 -9 0 -19 -3 -23 -8z"/>
<path d="M18736 32372 c-3 -5 1 -9 9 -9 8 0 12 4 9 9 -3 4 -7 8 -9 8 -2 0 -6
-4 -9 -8z"/>
<path d="M18583 32346 c-1 -11 1 -15 4 -8 4 10 10 9 24 -4 15 -13 18 -14 14
-3 -3 8 -13 19 -23 26 -15 9 -18 7 -19 -11z"/>
<path d="M18730 32346 c0 -2 7 -7 16 -10 8 -3 12 -2 9 4 -6 10 -25 14 -25 6z"/>
<path d="M17659 31463 c-12 -16 -12 -17 2 -6 11 9 85 13 260 16 l244 2 -246 3
c-225 2 -248 0 -260 -15z"/>
<path d="M18565 31461 c-3 -5 -2 -12 3 -15 5 -3 9 1 9 9 0 17 -3 19 -12 6z"/>
<path d="M17659 31003 c-13 -16 -12 -17 4 -4 9 7 17 15 17 17 0 8 -8 3 -21
-13z"/>
<path d="M18165 30970 c3 -5 8 -10 11 -10 2 0 4 5 4 10 0 6 -5 10 -11 10 -5 0
-7 -4 -4 -10z"/>
<path d="M18165 30080 c0 -15 3 -26 8 -23 4 2 7 13 7 23 0 10 -3 21 -7 23 -5
3 -8 -8 -8 -23z"/>
<path d="M18615 30080 c-15 -16 -21 -18 -34 -7 -14 11 -14 10 -2 -6 11 -14 16
-15 29 -5 13 11 15 10 9 -4 -3 -10 -2 -18 3 -18 14 0 21 18 10 25 -8 5 -7 11
1 21 18 22 4 17 -16 -6z"/>
<path d="M17659 29643 c-13 -16 -12 -17 4 -4 9 7 17 15 17 17 0 8 -8 3 -21
-13z"/>
<path d="M18165 29610 c3 -5 8 -10 11 -10 2 0 4 5 4 10 0 6 -5 10 -11 10 -5 0
-7 -4 -4 -10z"/>
<path d="M17647 29179 c7 -7 15 -10 18 -7 3 3 -2 9 -12 12 -14 6 -15 5 -6 -5z"/>
<path d="M18740 29180 c-9 -6 -10 -10 -3 -10 6 0 15 5 18 10 8 12 4 12 -15 0z"/>
<path d="M17646 29148 c3 -5 10 -6 15 -3 13 9 11 12 -6 12 -8 0 -12 -4 -9 -9z"/>
<path d="M18736 29148 c3 -5 10 -6 15 -3 13 9 11 12 -6 12 -8 0 -12 -4 -9 -9z"/>
<path d="M18165 28720 c0 -15 3 -26 8 -23 4 2 7 13 7 23 0 10 -3 21 -7 23 -5
3 -8 -8 -8 -23z"/>
<path d="M18615 28720 c-15 -16 -21 -18 -34 -7 -14 11 -14 10 -2 -6 11 -14 16
-15 29 -5 13 11 15 10 9 -4 -3 -10 -2 -18 3 -18 14 0 21 18 10 25 -8 5 -7 11
1 21 18 22 4 17 -16 -6z"/>
<path d="M18580 28279 c0 -5 5 -7 10 -4 6 3 10 8 10 11 0 2 -4 4 -10 4 -5 0
-10 -5 -10 -11z"/>
<path d="M18626 28277 c3 -10 9 -15 12 -12 3 3 0 11 -7 18 -10 9 -11 8 -5 -6z"/>
<path d="M18736 28282 c-3 -5 1 -9 9 -9 8 0 12 4 9 9 -3 4 -7 8 -9 8 -2 0 -6
-4 -9 -8z"/>
<path d="M18584 28256 c-10 -8 -16 -18 -11 -22 4 -4 7 -2 7 4 0 7 5 12 11 12
6 0 8 -7 5 -16 -6 -15 -4 -15 10 -3 10 8 12 15 5 17 -6 2 -9 8 -5 13 8 13 1
11 -22 -5z"/>
<path d="M17666 28243 c-6 -14 -5 -15 5 -6 7 7 10 15 7 18 -3 3 -9 -2 -12 -12z"/>
<path d="M17647 27819 c7 -7 15 -10 18 -7 3 3 -2 9 -12 12 -14 6 -15 5 -6 -5z"/>
<path d="M18740 27820 c-9 -6 -10 -10 -3 -10 6 0 15 5 18 10 8 12 4 12 -15 0z"/>
<path d="M17646 27788 c3 -5 10 -6 15 -3 13 9 11 12 -6 12 -8 0 -12 -4 -9 -9z"/>
<path d="M18736 27788 c3 -5 10 -6 15 -3 13 9 11 12 -6 12 -8 0 -12 -4 -9 -9z"/>
<path d="M18570 27375 c0 -8 29 -12 39 -5 9 5 4 8 -13 8 -14 0 -26 -2 -26 -3z"/>
<path d="M18616 27347 c3 -10 9 -15 12 -12 3 3 0 11 -7 18 -10 9 -11 8 -5 -6z"/>
<path d="M17650 27346 c0 -2 8 -10 18 -17 15 -13 16 -12 3 4 -13 16 -21 21
-21 13z"/>
<path d="M18160 27341 c0 -5 5 -13 10 -16 6 -3 10 -2 10 4 0 5 -4 13 -10 16
-5 3 -10 2 -10 -4z"/>
<path d="M18736 27318 c3 -5 10 -6 15 -3 13 9 11 12 -6 12 -8 0 -12 -4 -9 -9z"/>
<path d="M18580 26919 c0 -5 5 -7 10 -4 6 3 10 8 10 11 0 2 -4 4 -10 4 -5 0
-10 -5 -10 -11z"/>
<path d="M18626 26917 c3 -10 9 -15 12 -12 3 3 0 11 -7 18 -10 9 -11 8 -5 -6z"/>
<path d="M18736 26922 c-3 -5 1 -9 9 -9 8 0 12 4 9 9 -3 4 -7 8 -9 8 -2 0 -6
-4 -9 -8z"/>
<path d="M18584 26896 c-10 -8 -16 -18 -11 -22 4 -4 7 -2 7 4 0 7 5 12 11 12
6 0 8 -7 5 -16 -6 -15 -4 -15 10 -3 10 8 12 15 5 17 -6 2 -9 8 -5 13 8 13 1
11 -22 -5z"/>
<path d="M17666 26883 c-6 -14 -5 -15 5 -6 7 7 10 15 7 18 -3 3 -9 -2 -12 -12z"/>
<path d="M17646 26452 c-3 -5 1 -9 9 -9 8 0 12 4 9 9 -3 4 -7 8 -9 8 -2 0 -6
-4 -9 -8z"/>
<path d="M18736 26452 c-3 -5 1 -9 9 -9 8 0 12 4 9 9 -3 4 -7 8 -9 8 -2 0 -6
-4 -9 -8z"/>
<path d="M17645 26420 c-3 -6 1 -7 9 -4 18 7 21 14 7 14 -6 0 -13 -4 -16 -10z"/>
<path d="M18730 26426 c0 -2 7 -7 16 -10 8 -3 12 -2 9 4 -6 10 -25 14 -25 6z"/>
<path d="M18570 26015 c0 -8 29 -12 39 -5 9 5 4 8 -13 8 -14 0 -26 -2 -26 -3z"/>
<path d="M18616 25987 c3 -10 9 -15 12 -12 3 3 0 11 -7 18 -10 9 -11 8 -5 -6z"/>
<path d="M17650 25986 c0 -2 8 -10 18 -17 15 -13 16 -12 3 4 -13 16 -21 21
-21 13z"/>
<path d="M18160 25981 c0 -5 5 -13 10 -16 6 -3 10 -2 10 4 0 5 -4 13 -10 16
-5 3 -10 2 -10 -4z"/>
<path d="M18736 25958 c3 -5 10 -6 15 -3 13 9 11 12 -6 12 -8 0 -12 -4 -9 -9z"/>
<path d="M17659 25543 c-12 -16 -12 -17 2 -6 11 9 85 13 260 16 l244 2 -246 3
c-225 2 -248 0 -260 -15z"/>
<path d="M18565 25541 c-3 -5 -2 -12 3 -15 5 -3 9 1 9 9 0 17 -3 19 -12 6z"/>
<path d="M17646 25092 c-3 -5 1 -9 9 -9 8 0 12 4 9 9 -3 4 -7 8 -9 8 -2 0 -6
-4 -9 -8z"/>
<path d="M18736 25092 c-3 -5 1 -9 9 -9 8 0 12 4 9 9 -3 4 -7 8 -9 8 -2 0 -6
-4 -9 -8z"/>
<path d="M17645 25060 c-3 -6 1 -7 9 -4 18 7 21 14 7 14 -6 0 -13 -4 -16 -10z"/>
<path d="M18730 25066 c0 -2 7 -7 16 -10 8 -3 12 -2 9 4 -6 10 -25 14 -25 6z"/>
<path d="M17666 24637 c3 -10 9 -15 12 -12 3 3 0 11 -7 18 -10 9 -11 8 -5 -6z"/>
<path d="M18575 24640 c-3 -5 -1 -10 4 -10 6 0 11 5 11 10 0 6 -2 10 -4 10 -3
0 -8 -4 -11 -10z"/>
<path d="M18596 24592 c-3 -5 1 -9 9 -9 8 0 12 4 9 9 -3 4 -7 8 -9 8 -2 0 -6
-4 -9 -8z"/>
<path d="M17659 24183 c-12 -16 -12 -17 2 -6 11 9 85 13 260 16 l244 2 -246 3
c-225 2 -248 0 -260 -15z"/>
<path d="M18565 24181 c-3 -5 -2 -12 3 -15 5 -3 9 1 9 9 0 17 -3 19 -12 6z"/>
<path d="M17666 23277 c3 -10 9 -15 12 -12 3 3 0 11 -7 18 -10 9 -11 8 -5 -6z"/>
<path d="M18575 23280 c-3 -5 -1 -10 4 -10 6 0 11 5 11 10 0 6 -2 10 -4 10 -3
0 -8 -4 -11 -10z"/>
<path d="M18596 23232 c-3 -5 1 -9 9 -9 8 0 12 4 9 9 -3 4 -7 8 -9 8 -2 0 -6
-4 -9 -8z"/>
<path d="M18165 22800 c0 -15 3 -26 8 -23 4 2 7 13 7 23 0 10 -3 21 -7 23 -5
3 -8 -8 -8 -23z"/>
<path d="M18615 22800 c-15 -16 -21 -18 -34 -7 -14 11 -14 10 -2 -6 11 -14 16
-15 29 -5 13 11 15 10 9 -4 -3 -10 -2 -18 3 -18 14 0 21 18 10 25 -8 5 -7 11
1 21 18 22 4 17 -16 -6z"/>
<path d="M18165 21910 c-3 -5 -1 -10 4 -10 6 0 11 5 11 10 0 6 -2 10 -4 10 -3
0 -8 -4 -11 -10z"/>
<path d="M18574 21906 c-3 -8 4 -24 16 -36 16 -16 25 -18 38 -11 10 6 12 11 4
11 -10 0 -10 5 -1 21 8 15 8 19 0 15 -6 -4 -11 -2 -11 5 0 7 -8 5 -22 -7 -19
-17 -21 -17 -15 -1 4 9 4 17 1 17 -2 0 -7 -6 -10 -14z m43 -25 c-1 -15 -4 -17
-14 -9 -7 5 -10 14 -7 19 10 16 23 9 21 -10z"/>
<path d="M18740 21900 c-9 -6 -10 -10 -3 -10 6 0 15 5 18 10 8 12 4 12 -15 0z"/>
<path d="M17650 21886 c0 -2 8 -10 18 -17 15 -13 16 -12 3 4 -13 16 -21 21
-21 13z"/>
<path d="M18736 21868 c3 -5 10 -6 15 -3 13 9 11 12 -6 12 -8 0 -12 -4 -9 -9z"/>
<path d="M18165 21440 c0 -15 3 -26 8 -23 4 2 7 13 7 23 0 10 -3 21 -7 23 -5
3 -8 -8 -8 -23z"/>
<path d="M18615 21440 c-15 -16 -21 -18 -34 -7 -14 11 -14 10 -2 -6 11 -14 16
-15 29 -5 13 11 15 10 9 -4 -3 -10 -2 -18 3 -18 14 0 21 18 10 25 -8 5 -7 11
1 21 18 22 4 17 -16 -6z"/>
<path d="M17646 21002 c-3 -5 1 -9 9 -9 8 0 12 4 9 9 -3 4 -7 8 -9 8 -2 0 -6
-4 -9 -8z"/>
<path d="M18736 21002 c-3 -5 1 -9 9 -9 8 0 12 4 9 9 -3 4 -7 8 -9 8 -2 0 -6
-4 -9 -8z"/>
<path d="M18165 20550 c-3 -5 -1 -10 4 -10 6 0 11 5 11 10 0 6 -2 10 -4 10 -3
0 -8 -4 -11 -10z"/>
<path d="M18574 20546 c-3 -8 4 -24 16 -36 16 -16 25 -18 38 -11 10 6 12 11 4
11 -10 0 -10 5 -1 21 8 15 8 19 0 15 -6 -4 -11 -2 -11 5 0 7 -8 5 -22 -7 -19
-17 -21 -17 -15 -1 4 9 4 17 1 17 -2 0 -7 -6 -10 -14z m43 -25 c-1 -15 -4 -17
-14 -9 -7 5 -10 14 -7 19 10 16 23 9 21 -10z"/>
<path d="M18740 20540 c-9 -6 -10 -10 -3 -10 6 0 15 5 18 10 8 12 4 12 -15 0z"/>
<path d="M17650 20526 c0 -2 8 -10 18 -17 15 -13 16 -12 3 4 -13 16 -21 21
-21 13z"/>
<path d="M18736 20508 c3 -5 10 -6 15 -3 13 9 11 12 -6 12 -8 0 -12 -4 -9 -9z"/>
<path d="M18570 20095 c0 -8 29 -12 39 -5 9 5 4 8 -13 8 -14 0 -26 -2 -26 -3z"/>
<path d="M18616 20067 c3 -10 9 -15 12 -12 3 3 0 11 -7 18 -10 9 -11 8 -5 -6z"/>
<path d="M17650 20066 c0 -2 8 -10 18 -17 15 -13 16 -12 3 4 -13 16 -21 21
-21 13z"/>
<path d="M18160 20061 c0 -5 5 -13 10 -16 6 -3 10 -2 10 4 0 5 -4 13 -10 16
-5 3 -10 2 -10 -4z"/>
<path d="M18736 20038 c3 -5 10 -6 15 -3 13 9 11 12 -6 12 -8 0 -12 -4 -9 -9z"/>
<path d="M17646 19642 c-3 -5 1 -9 9 -9 8 0 12 4 9 9 -3 4 -7 8 -9 8 -2 0 -6
-4 -9 -8z"/>
<path d="M18736 19642 c-3 -5 1 -9 9 -9 8 0 12 4 9 9 -3 4 -7 8 -9 8 -2 0 -6
-4 -9 -8z"/>
<path d="M17659 19163 c-13 -16 -12 -17 4 -4 16 13 21 21 13 21 -2 0 -10 -8
-17 -17z"/>
<path d="M18165 19130 c3 -5 8 -10 11 -10 2 0 4 5 4 10 0 6 -5 10 -11 10 -5 0
-7 -4 -4 -10z"/>
<path d="M17666 18717 c3 -10 9 -15 12 -12 3 3 0 11 -7 18 -10 9 -11 8 -5 -6z"/>
<path d="M18575 18720 c-3 -5 -1 -10 4 -10 6 0 11 5 11 10 0 6 -2 10 -4 10 -3
0 -8 -4 -11 -10z"/>
<path d="M18596 18672 c-3 -5 1 -9 9 -9 8 0 12 4 9 9 -3 4 -7 8 -9 8 -2 0 -6
-4 -9 -8z"/>
<path d="M17659 17803 c-13 -16 -12 -17 4 -4 9 7 17 15 17 17 0 8 -8 3 -21
-13z"/>
<path d="M18165 17770 c3 -5 8 -10 11 -10 2 0 4 5 4 10 0 6 -5 10 -11 10 -5 0
-7 -4 -4 -10z"/>
<path d="M17666 17357 c3 -10 9 -15 12 -12 3 3 0 11 -7 18 -10 9 -11 8 -5 -6z"/>
<path d="M18575 17360 c-3 -5 -1 -10 4 -10 6 0 11 5 11 10 0 6 -2 10 -4 10 -3
0 -8 -4 -11 -10z"/>
<path d="M18596 17312 c-3 -5 1 -9 9 -9 8 0 12 4 9 9 -3 4 -7 8 -9 8 -2 0 -6
-4 -9 -8z"/>
<path d="M17659 16443 c-13 -16 -12 -17 4 -4 9 7 17 15 17 17 0 8 -8 3 -21
-13z"/>
<path d="M18165 16410 c3 -5 8 -10 11 -10 2 0 4 5 4 10 0 6 -5 10 -11 10 -5 0
-7 -4 -4 -10z"/>
<path d="M18165 15990 c-3 -5 -1 -10 4 -10 6 0 11 5 11 10 0 6 -2 10 -4 10 -3
0 -8 -4 -11 -10z"/>
<path d="M18574 15986 c-3 -8 4 -24 16 -36 16 -16 25 -18 38 -11 10 6 12 11 4
11 -10 0 -10 5 -1 21 8 15 8 19 0 15 -6 -4 -11 -2 -11 5 0 7 -8 5 -22 -7 -19
-17 -21 -17 -15 -1 4 9 4 17 1 17 -2 0 -7 -6 -10 -14z m43 -25 c-1 -15 -4 -17
-14 -9 -7 5 -10 14 -7 19 10 16 23 9 21 -10z"/>
<path d="M18740 15980 c-9 -6 -10 -10 -3 -10 6 0 15 5 18 10 8 12 4 12 -15 0z"/>
<path d="M17650 15966 c0 -2 8 -10 18 -17 15 -13 16 -12 3 4 -13 16 -21 21
-21 13z"/>
<path d="M18736 15948 c3 -5 10 -6 15 -3 13 9 11 12 -6 12 -8 0 -12 -4 -9 -9z"/>
<path d="M18580 15079 c0 -5 5 -7 10 -4 6 3 10 8 10 11 0 2 -4 4 -10 4 -5 0
-10 -5 -10 -11z"/>
<path d="M18626 15077 c3 -10 9 -15 12 -12 3 3 0 11 -7 18 -10 9 -11 8 -5 -6z"/>
<path d="M18736 15082 c-3 -5 1 -9 9 -9 8 0 12 4 9 9 -3 4 -7 8 -9 8 -2 0 -6
-4 -9 -8z"/>
<path d="M18584 15056 c-10 -8 -16 -18 -11 -22 4 -4 7 -2 7 4 0 7 5 12 11 12
6 0 8 -7 5 -16 -6 -15 -4 -15 10 -3 10 8 12 15 5 17 -6 2 -9 8 -5 13 8 13 1
11 -22 -5z"/>
<path d="M17666 15043 c-6 -14 -5 -15 5 -6 7 7 10 15 7 18 -3 3 -9 -2 -12 -12z"/>
<path d="M18165 14630 c-3 -5 -1 -10 4 -10 6 0 11 5 11 10 0 6 -2 10 -4 10 -3
0 -8 -4 -11 -10z"/>
<path d="M18574 14626 c-3 -8 4 -24 16 -36 16 -16 25 -18 38 -11 10 6 12 11 4
11 -10 0 -10 5 -1 21 8 15 8 19 0 15 -6 -4 -11 -2 -11 5 0 7 -8 5 -22 -7 -19
-17 -21 -17 -15 -1 4 9 4 17 1 17 -2 0 -7 -6 -10 -14z m43 -25 c-1 -15 -4 -17
-14 -9 -7 5 -10 14 -7 19 10 16 23 9 21 -10z"/>
<path d="M18740 14620 c-9 -6 -10 -10 -3 -10 6 0 15 5 18 10 8 12 4 12 -15 0z"/>
<path d="M17650 14606 c0 -2 8 -10 18 -17 15 -13 16 -12 3 4 -13 16 -21 21
-21 13z"/>
<path d="M18736 14588 c3 -5 10 -6 15 -3 13 9 11 12 -6 12 -8 0 -12 -4 -9 -9z"/>
<path d="M17646 14118 c3 -5 10 -6 15 -3 13 9 11 12 -6 12 -8 0 -12 -4 -9 -9z"/>
<path d="M18736 14118 c3 -5 10 -6 15 -3 13 9 11 12 -6 12 -8 0 -12 -4 -9 -9z"/>
<path d="M18580 13719 c0 -5 5 -7 10 -4 6 3 10 8 10 11 0 2 -4 4 -10 4 -5 0
-10 -5 -10 -11z"/>
<path d="M18626 13717 c3 -10 9 -15 12 -12 3 3 0 11 -7 18 -10 9 -11 8 -5 -6z"/>
<path d="M18736 13722 c-3 -5 1 -9 9 -9 8 0 12 4 9 9 -3 4 -7 8 -9 8 -2 0 -6
-4 -9 -8z"/>
<path d="M18584 13696 c-10 -8 -16 -18 -11 -22 4 -4 7 -2 7 4 0 7 5 12 11 12
6 0 8 -7 5 -16 -6 -15 -4 -15 10 -3 10 8 12 15 5 17 -6 2 -9 8 -5 13 8 13 1
11 -22 -5z"/>
<path d="M17666 13683 c-6 -14 -5 -15 5 -6 7 7 10 15 7 18 -3 3 -9 -2 -12 -12z"/>
<path d="M18169 13268 c-5 -15 -4 -50 1 -53 3 -2 6 9 6 26 0 24 -3 37 -7 27z"/>
<path d="M18605 13261 c-3 -5 0 -13 6 -17 7 -4 9 -3 5 4 -3 6 2 13 11 15 16 4
16 5 1 6 -9 0 -19 -3 -23 -8z"/>
<path d="M18736 13252 c-3 -5 1 -9 9 -9 8 0 12 4 9 9 -3 4 -7 8 -9 8 -2 0 -6
-4 -9 -8z"/>
<path d="M18583 13226 c-1 -11 1 -15 4 -8 4 10 10 9 24 -4 15 -13 18 -14 14
-3 -3 8 -13 19 -23 26 -15 9 -18 7 -19 -11z"/>
<path d="M18730 13226 c0 -2 7 -7 16 -10 8 -3 12 -2 9 4 -6 10 -25 14 -25 6z"/>
<path d="M17646 12758 c3 -5 10 -6 15 -3 13 9 11 12 -6 12 -8 0 -12 -4 -9 -9z"/>
<path d="M18736 12758 c3 -5 10 -6 15 -3 13 9 11 12 -6 12 -8 0 -12 -4 -9 -9z"/>
<path d="M17659 12343 c-12 -16 -12 -17 2 -6 11 9 85 13 260 16 l244 2 -246 3
c-225 2 -248 0 -260 -15z"/>
<path d="M18565 12341 c-3 -5 -2 -12 3 -15 5 -3 9 1 9 9 0 17 -3 19 -12 6z"/>
<path d="M18169 11908 c-5 -15 -4 -50 1 -53 3 -2 6 9 6 26 0 24 -3 37 -7 27z"/>
<path d="M18605 11901 c-3 -5 0 -13 6 -17 7 -4 9 -3 5 4 -3 6 2 13 11 15 16 4
16 5 1 6 -9 0 -19 -3 -23 -8z"/>
<path d="M18736 11892 c-3 -5 1 -9 9 -9 8 0 12 4 9 9 -3 4 -7 8 -9 8 -2 0 -6
-4 -9 -8z"/>
<path d="M18583 11866 c-1 -11 1 -15 4 -8 4 10 10 9 24 -4 15 -13 18 -14 14
-3 -3 8 -13 19 -23 26 -15 9 -18 7 -19 -11z"/>
<path d="M18730 11866 c0 -2 7 -7 16 -10 8 -3 12 -2 9 4 -6 10 -25 14 -25 6z"/>
<path d="M17659 10983 c-12 -16 -12 -17 2 -6 11 9 85 13 260 16 l244 2 -246 3
c-225 2 -248 0 -260 -15z"/>
<path d="M18565 10981 c-3 -5 -2 -12 3 -15 5 -3 9 1 9 9 0 17 -3 19 -12 6z"/>
<path d="M17659 10523 c-13 -16 -12 -17 4 -4 16 13 21 21 13 21 -2 0 -10 -8
-17 -17z"/>
<path d="M18165 10490 c3 -5 8 -10 11 -10 2 0 4 5 4 10 0 6 -5 10 -11 10 -5 0
-7 -4 -4 -10z"/>
<path d="M18165 9600 c0 -15 3 -26 8 -23 4 2 7 13 7 23 0 10 -3 21 -7 23 -5 3
-8 -8 -8 -23z"/>
<path d="M18615 9600 c-15 -16 -21 -18 -34 -7 -14 11 -14 10 -2 -6 11 -14 16
-15 29 -5 13 11 15 10 9 -4 -3 -10 -2 -18 3 -18 14 0 21 18 10 25 -8 5 -7 11
1 21 18 22 4 17 -16 -6z"/>
<path d="M17659 9163 c-13 -16 -12 -17 4 -4 9 7 17 15 17 17 0 8 -8 3 -21 -13z"/>
<path d="M18165 9130 c3 -5 8 -10 11 -10 2 0 4 5 4 10 0 6 -5 10 -11 10 -5 0
-7 -4 -4 -10z"/>
<path d="M17647 8699 c7 -7 15 -10 18 -7 3 3 -2 9 -12 12 -14 6 -15 5 -6 -5z"/>
<path d="M18740 8700 c-9 -6 -10 -10 -3 -10 6 0 15 5 18 10 8 12 4 12 -15 0z"/>
<path d="M17646 8668 c3 -5 10 -6 15 -3 13 9 11 12 -6 12 -8 0 -12 -4 -9 -9z"/>
<path d="M18736 8668 c3 -5 10 -6 15 -3 13 9 11 12 -6 12 -8 0 -12 -4 -9 -9z"/>
<path d="M18165 8240 c0 -15 3 -26 8 -23 4 2 7 13 7 23 0 10 -3 21 -7 23 -5 3
-8 -8 -8 -23z"/>
<path d="M18615 8240 c-15 -16 -21 -18 -34 -7 -14 11 -14 10 -2 -6 11 -14 16
-15 29 -5 13 11 15 10 9 -4 -3 -10 -2 -18 3 -18 14 0 21 18 10 25 -8 5 -7 11
1 21 18 22 4 17 -16 -6z"/>
<path d="M18580 7799 c0 -5 5 -7 10 -4 6 3 10 8 10 11 0 2 -4 4 -10 4 -5 0
-10 -5 -10 -11z"/>
<path d="M18626 7797 c3 -10 9 -15 12 -12 3 3 0 11 -7 18 -10 9 -11 8 -5 -6z"/>
<path d="M18736 7802 c-3 -5 1 -9 9 -9 8 0 12 4 9 9 -3 4 -7 8 -9 8 -2 0 -6
-4 -9 -8z"/>
<path d="M18584 7776 c-10 -8 -16 -18 -11 -22 4 -4 7 -2 7 4 0 7 5 12 11 12 6
0 8 -7 5 -16 -6 -15 -4 -15 10 -3 10 8 12 15 5 17 -6 2 -9 8 -5 13 8 13 1 11
-22 -5z"/>
<path d="M17666 7763 c-6 -14 -5 -15 5 -6 7 7 10 15 7 18 -3 3 -9 -2 -12 -12z"/>
<path d="M17647 7339 c7 -7 15 -10 18 -7 3 3 -2 9 -12 12 -14 6 -15 5 -6 -5z"/>
<path d="M18740 7340 c-9 -6 -10 -10 -3 -10 6 0 15 5 18 10 8 12 4 12 -15 0z"/>
<path d="M17646 7308 c3 -5 10 -6 15 -3 13 9 11 12 -6 12 -8 0 -12 -4 -9 -9z"/>
<path d="M18736 7308 c3 -5 10 -6 15 -3 13 9 11 12 -6 12 -8 0 -12 -4 -9 -9z"/>
<path d="M18570 6895 c0 -8 29 -12 39 -5 9 5 4 8 -13 8 -14 0 -26 -2 -26 -3z"/>
<path d="M18616 6867 c3 -10 9 -15 12 -12 3 3 0 11 -7 18 -10 9 -11 8 -5 -6z"/>
<path d="M17650 6866 c0 -2 8 -10 18 -17 15 -13 16 -12 3 4 -13 16 -21 21 -21
13z"/>
<path d="M18160 6861 c0 -5 5 -13 10 -16 6 -3 10 -2 10 4 0 5 -4 13 -10 16 -5
3 -10 2 -10 -4z"/>
<path d="M18736 6838 c3 -5 10 -6 15 -3 13 9 11 12 -6 12 -8 0 -12 -4 -9 -9z"/>
<path d="M18580 6439 c0 -5 5 -7 10 -4 6 3 10 8 10 11 0 2 -4 4 -10 4 -5 0
-10 -5 -10 -11z"/>
<path d="M18626 6437 c3 -10 9 -15 12 -12 3 3 0 11 -7 18 -10 9 -11 8 -5 -6z"/>
<path d="M18736 6442 c-3 -5 1 -9 9 -9 8 0 12 4 9 9 -3 4 -7 8 -9 8 -2 0 -6
-4 -9 -8z"/>
<path d="M18584 6416 c-10 -8 -16 -18 -11 -22 4 -4 7 -2 7 4 0 7 5 12 11 12 6
0 8 -7 5 -16 -6 -15 -4 -15 10 -3 10 8 12 15 5 17 -6 2 -9 8 -5 13 8 13 1 11
-22 -5z"/>
<path d="M17666 6403 c-6 -14 -5 -15 5 -6 7 7 10 15 7 18 -3 3 -9 -2 -12 -12z"/>
<path d="M17646 5972 c-3 -5 1 -9 9 -9 8 0 12 4 9 9 -3 4 -7 8 -9 8 -2 0 -6
-4 -9 -8z"/>
<path d="M18736 5972 c-3 -5 1 -9 9 -9 8 0 12 4 9 9 -3 4 -7 8 -9 8 -2 0 -6
-4 -9 -8z"/>
<path d="M17645 5940 c-3 -6 1 -7 9 -4 18 7 21 14 7 14 -6 0 -13 -4 -16 -10z"/>
<path d="M18730 5946 c0 -2 7 -7 16 -10 8 -3 12 -2 9 4 -6 10 -25 14 -25 6z"/>
<path d="M18570 5535 c0 -8 29 -12 39 -5 9 5 4 8 -13 8 -14 0 -26 -2 -26 -3z"/>
<path d="M18616 5507 c3 -10 9 -15 12 -12 3 3 0 11 -7 18 -10 9 -11 8 -5 -6z"/>
<path d="M17650 5506 c0 -2 8 -10 18 -17 15 -13 16 -12 3 4 -13 16 -21 21 -21
13z"/>
<path d="M18160 5501 c0 -5 5 -13 10 -16 6 -3 10 -2 10 4 0 5 -4 13 -10 16 -5
3 -10 2 -10 -4z"/>
<path d="M18736 5478 c3 -5 10 -6 15 -3 13 9 11 12 -6 12 -8 0 -12 -4 -9 -9z"/>
<path d="M17659 5063 c-12 -16 -12 -17 2 -6 11 9 85 13 260 16 l244 2 -246 3
c-225 2 -248 0 -260 -15z"/>
<path d="M18565 5061 c-3 -5 -2 -12 3 -15 5 -3 9 1 9 9 0 17 -3 19 -12 6z"/>
<path d="M17646 4612 c-3 -5 1 -9 9 -9 8 0 12 4 9 9 -3 4 -7 8 -9 8 -2 0 -6
-4 -9 -8z"/>
<path d="M18736 4612 c-3 -5 1 -9 9 -9 8 0 12 4 9 9 -3 4 -7 8 -9 8 -2 0 -6
-4 -9 -8z"/>
<path d="M17645 4580 c-3 -6 1 -7 9 -4 18 7 21 14 7 14 -6 0 -13 -4 -16 -10z"/>
<path d="M18730 4586 c0 -2 7 -7 16 -10 8 -3 12 -2 9 4 -6 10 -25 14 -25 6z"/>
<path d="M17666 4157 c3 -10 9 -15 12 -12 3 3 0 11 -7 18 -10 9 -11 8 -5 -6z"/>
<path d="M18575 4160 c-3 -5 -1 -10 4 -10 6 0 11 5 11 10 0 6 -2 10 -4 10 -3
0 -8 -4 -11 -10z"/>
<path d="M18596 4112 c-3 -5 1 -9 9 -9 8 0 12 4 9 9 -3 4 -7 8 -9 8 -2 0 -6
-4 -9 -8z"/>
<path d="M17659 3703 c-12 -16 -12 -17 2 -6 11 9 85 13 260 16 l244 2 -246 3
c-225 2 -248 0 -260 -15z"/>
<path d="M18565 3701 c-3 -5 -2 -12 3 -15 5 -3 9 1 9 9 0 17 -3 19 -12 6z"/>
<path d="M21630 31135 l0 -1215 160 0 160 0 0 1215 0 1215 -160 0 -160 0 0
-1215z"/>
<path d="M30052 32338 c3 -7 148 -554 323 -1215 l319 -1203 168 0 c92 0 168 2
168 5 0 3 569 2081 583 2127 1 4 133 -475 292 -1063 l290 -1069 170 0 170 0
319 1203 c175 661 321 1208 324 1215 3 9 -33 12 -161 12 l-166 0 -9 -32 c-5
-18 -117 -489 -248 -1046 -227 -963 -239 -1011 -247 -960 -16 103 -77 395
-116 553 -22 88 -123 456 -225 817 -102 362 -186 660 -186 663 0 3 -87 5 -194
5 l-194 0 -11 -32 c-37 -118 -471 -1680 -513 -1849 l-52 -207 -42 206 c-34
168 -411 1802 -430 1865 -5 15 -22 17 -171 17 -128 0 -164 -3 -161 -12z"/>
<path d="M35310 31135 l0 -1215 150 0 150 0 0 1215 0 1215 -150 0 -150 0 0
-1215z"/>
<path d="M36060 31135 l0 -1215 150 0 150 0 0 1215 0 1215 -150 0 -150 0 0
-1215z"/>
<path d="M23208 31710 c-82 -15 -175 -50 -235 -89 -53 -35 -140 -116 -177
-166 -14 -18 -15 -8 -16 103 l0 122 -135 0 -135 0 0 -880 0 -880 149 0 150 0
4 573 c4 622 5 634 63 748 83 165 310 255 509 204 118 -31 193 -102 231 -215
17 -50 18 -109 22 -682 l3 -628 150 0 150 0 -3 673 c-4 599 -6 679 -21 732
-56 194 -164 303 -362 365 -79 24 -266 35 -347 20z"/>
<path d="M25068 31710 c-82 -15 -175 -50 -235 -89 -53 -35 -140 -116 -177
-166 -14 -18 -15 -8 -16 103 l0 122 -135 0 -135 0 0 -880 0 -880 149 0 150 0
4 573 c4 622 5 634 63 748 83 165 310 255 509 204 118 -31 193 -102 231 -215
17 -50 18 -109 22 -682 l3 -628 150 0 150 0 -3 673 c-4 599 -6 679 -21 732
-56 194 -164 303 -362 365 -79 24 -266 35 -347 20z"/>
<path d="M26817 31704 c-357 -64 -596 -340 -647 -747 -23 -181 -5 -395 46
-545 86 -257 272 -431 539 -503 117 -32 384 -32 500 -1 247 67 419 225 510
466 14 38 24 70 22 73 -5 4 -300 44 -301 41 -26 -70 -89 -173 -132 -218 -153
-160 -437 -186 -635 -59 -70 45 -153 139 -189 215 -29 61 -70 218 -70 272 l0
22 670 0 670 0 0 93 c0 552 -325 911 -820 906 -47 0 -120 -7 -163 -15z m285
-245 c79 -17 170 -63 231 -119 81 -74 129 -176 152 -327 l7 -43 -512 0 -512 0
7 47 c19 130 84 256 168 329 117 101 300 146 459 113z"/>
<path d="M28715 31706 c-22 -7 -54 -20 -71 -29 -43 -22 -126 -115 -174 -195
l-40 -67 0 133 0 132 -130 0 -130 0 0 -880 0 -880 149 0 150 0 4 553 c3 480 6
562 21 627 27 114 62 185 118 235 90 81 205 95 335 43 l61 -25 51 135 c28 74
50 136 49 137 -2 2 -31 17 -65 34 -112 56 -241 75 -328 47z"/>
<path d="M33955 31704 c-248 -38 -426 -147 -508 -309 -33 -67 -81 -204 -74
-212 3 -2 278 -43 293 -43 1 0 13 33 28 73 38 105 87 165 166 204 161 80 456
65 582 -30 68 -51 100 -125 106 -247 l5 -98 -64 -20 c-75 -23 -291 -62 -512
-92 -190 -26 -279 -49 -372 -98 -306 -161 -370 -578 -122 -805 98 -91 221
-134 402 -144 236 -12 435 54 622 205 l61 50 16 -69 c8 -37 25 -87 36 -109
l20 -40 150 0 149 0 -26 58 c-52 118 -54 145 -62 762 -7 507 -10 581 -26 630
-49 155 -127 234 -292 296 -136 51 -387 68 -578 38z m592 -1036 c-7 -164 -27
-250 -77 -327 -60 -94 -164 -168 -294 -209 -76 -24 -264 -23 -335 2 -63 22
-134 82 -163 140 -28 56 -34 141 -14 202 38 115 123 169 318 204 266 46 426
80 493 104 39 13 72 25 74 25 2 1 1 -63 -2 -141z"/>
<path d="M3410 28615 c-91 -18 -167 -49 -240 -96 -247 -160 -370 -466 -387
-964 -8 -257 14 -468 68 -635 78 -240 245 -409 474 -480 98 -30 247 -37 355
-16 253 47 443 233 522 511 29 105 32 324 5 425 -53 197 -179 354 -352 438
-96 47 -148 57 -280 56 -102 -1 -131 -5 -193 -27 -123 -43 -215 -108 -301
-212 l-33 -40 7 115 c16 279 81 466 209 598 144 150 385 163 533 29 46 -42 85
-110 108 -190 l17 -59 71 6 c172 16 197 19 197 26 0 33 -47 175 -76 231 -120
228 -408 344 -704 284z m270 -1019 c164 -60 263 -208 277 -416 24 -372 -233
-625 -538 -530 -157 48 -261 169 -310 358 -69 272 60 529 301 597 68 19 205
14 270 -9z"/>
<path d="M5895 28614 c-233 -46 -405 -229 -490 -521 -46 -157 -59 -286 -59
-568 -1 -282 11 -393 59 -575 73 -272 226 -448 451 -516 91 -28 305 -26 399 3
263 83 421 314 482 705 25 163 25 608 -1 763 -54 330 -193 566 -386 658 -134
63 -299 82 -455 51z m302 -238 c80 -36 164 -122 202 -208 66 -147 86 -299 86
-648 0 -276 -9 -384 -42 -520 -39 -160 -121 -273 -242 -333 -58 -28 -75 -32
-151 -32 -76 0 -93 4 -151 32 -155 77 -231 214 -271 488 -17 120 -17 599 0
720 45 314 135 462 315 521 67 22 180 13 254 -20z"/>
<path d="M7605 28614 c-233 -46 -405 -229 -490 -521 -46 -157 -59 -286 -59
-568 -1 -282 11 -393 59 -575 73 -272 226 -448 451 -516 91 -28 305 -26 399 3
263 83 421 314 482 705 25 163 25 608 -1 763 -54 330 -193 566 -386 658 -134
63 -299 82 -455 51z m302 -238 c80 -36 164 -122 202 -208 66 -147 86 -299 86
-648 0 -276 -9 -384 -42 -520 -39 -160 -121 -273 -242 -333 -58 -28 -75 -32
-151 -32 -76 0 -93 4 -151 32 -155 77 -231 214 -271 488 -17 120 -17 599 0
720 45 314 135 462 315 521 67 22 180 13 254 -20z"/>
<path d="M9386 28048 c-112 -21 -238 -98 -318 -195 l-38 -45 0 111 0 111 -120
0 -120 0 0 -795 0 -795 134 0 134 0 5 513 c4 553 7 578 61 685 54 105 168 178
294 189 143 12 237 -40 284 -155 23 -57 23 -59 26 -644 l3 -588 134 0 135 0 0
493 c0 505 4 574 41 672 46 122 170 211 311 222 107 8 176 -14 237 -75 77 -78
75 -53 78 -719 l4 -593 134 0 135 0 0 590 c0 644 -3 684 -58 800 -74 156 -252
242 -472 227 -167 -11 -305 -85 -410 -219 l-38 -48 -31 55 c-60 106 -155 174
-278 200 -76 16 -192 18 -267 3z"/>
<path d="M4650 26595 l0 -155 155 0 155 0 0 155 0 155 -155 0 -155 0 0 -155z"/>
<path d="M6836 25324 c-3 -9 -6 -4553 -6 -10100 l0 -10084 -168 -2 -168 -3
182 -1080 c101 -594 183 -1081 184 -1082 0 -2 -497 -3 -1104 -3 -997 0 -1104
-2 -1110 -16 -8 -21 -8 -20 10 -38 14 -15 471 -16 4884 -16 2678 0 4875 3
4884 6 10 4 16 18 16 35 l0 29 -3781 0 -3781 0 6 27 c15 71 346 2099 346 2120
l0 23 -165 0 -165 0 0 10100 0 10100 -29 0 c-17 0 -31 -6 -35 -16z"/>
</g>
</svg>
